<svg xmlns="http://www.w3.org/2000/svg" viewBox="0 0 500 500"><g id="freepik--Floor--inject-60"><path id="freepik--floor--inject-60" d="M98,427.4c88.34,38.8,231.58,38.8,319.92,0s88.34-101.7,0-140.5S186.34,248.11,98,286.9,9.66,388.6,98,427.4Z" style="fill:#fafafa"></path></g><g id="freepik--Shadows--inject-60"><path d="M444,345.47l-51.26-30.4a6.9,6.9,0,0,0-5.66-.26l-54.33,24.45c-1.6.74-1.66,2.05-.14,2.93l59,34.17a5.36,5.36,0,0,0,5.35-.27l46.08-27C445.17,347.91,445.56,346.35,444,345.47Z" style="fill:#e0e0e0"></path><path d="M272,280.38c22.38,12.92,21.18,34.56-2.68,48.34L153.05,395.83c-23.86,13.77-61.35,14.47-83.73,1.54S48.13,362.81,72,349l116.23-67.11C212.09,268.14,249.58,267.45,272,280.38Z" style="fill:#e6e6e6"></path></g><g id="freepik--Bath--inject-60"><g id="freepik--bath--inject-60"><path d="M241.38,321.72v8.59a1.09,1.09,0,0,0,.48-.1l4.39-2.57a1.39,1.39,0,0,0,.75-1.25V318Z" style="fill:#5B00FF"></path><path d="M235.77,321.32v5.07a1.43,1.43,0,0,0,.71,1.25s4.24,2.47,4.43,2.57a1,1,0,0,0,.47.1v-8.59Z" style="fill:#5B00FF"></path><path d="M235.77,321.32v5.07a1.43,1.43,0,0,0,.71,1.25s4.24,2.47,4.43,2.57a1,1,0,0,0,.47.1v-8.59Z" style="opacity:0.1"></path><path d="M151.25,373.75v8.59a1.16,1.16,0,0,0,.47-.1l4.4-2.57a1.41,1.41,0,0,0,.74-1.25V370Z" style="fill:#5B00FF"></path><path d="M145.64,373.34v5.08a1.44,1.44,0,0,0,.71,1.25l4.43,2.57a1.16,1.16,0,0,0,.47.1v-8.59Z" style="fill:#5B00FF"></path><path d="M145.64,373.34v5.08a1.44,1.44,0,0,0,.71,1.25l4.43,2.57a1.16,1.16,0,0,0,.47.1v-8.59Z" style="opacity:0.1"></path><path d="M285.15,227.39c0,51.32-11.09,74.38-38,90.54L247,318a41,41,0,0,1-5.41,3.72l-89.26,51.54c-9.67,5.58-22.25,8.34-34.5,8.26l-.07,0c-35.06,0-71.21-23.83-71.21-82.8Z" style="fill:#37474f"></path><path d="M268.85,203.6c22.75,13.14,21.53,35.15-2.72,49.15L148,321c-24.26,14-62.37,14.71-85.12,1.57s-21.54-35.14,2.72-49.15l118.17-68.23C208,191.17,246.09,190.46,268.85,203.6Z" style="fill:#455a64"></path><path d="M102.89,325.19c15.4,0,30.59-3.67,41.68-10.07l118.18-68.23c9.93-5.73,15.63-13.08,15.63-20.15,0-6.33-4.58-12.47-12.92-17.28C256,204,242.93,201,228.78,201c-15.4,0-30.59,3.67-41.68,10.07L68.93,279.26C59,285,53.29,292.34,53.29,299.42c0,6.33,4.59,12.46,12.92,17.27,9.5,5.48,22.53,8.5,36.68,8.5Z" style="fill:#37474f"></path><path d="M223.82,264.17a79.33,79.33,0,0,1,8.25.43l-87.5,50.52c-11.09,6.4-26.28,10.07-41.68,10.07h0c-1.43,0-2.84-.05-4.25-.11L190,272.35C199,267.15,211.32,264.17,223.82,264.17Z" style="fill:#263238"></path><path d="M272.67,206.84v-8.67a3.67,3.67,0,0,0-5.63-3.25l-10.81,6.24a4.23,4.23,0,0,0-2,3.26,4.08,4.08,0,0,0,1.84,3.2,4.24,4.24,0,0,0,3.8-.07l4.26-2.46V207a2.11,2.11,0,0,0,1.24,1.74,6.67,6.67,0,0,0,6,0A2,2,0,0,0,272.67,206.84Z" style="fill:#5B00FF"></path><path d="M268.78,209.39c-1.62-.1-3-1.26-3-1.72,0-.79-.12-2.32.29-2.83s1.83-1.89,1.83-1.89l-3.7,2.14V207a2.11,2.11,0,0,0,1.24,1.74A6.36,6.36,0,0,0,268.78,209.39Z" style="opacity:0.1"></path></g></g><g id="freepik--Mirrow--inject-60"><g id="freepik--mirrow--inject-60"><polygon points="89.94 100.07 89.94 185.16 148.89 151.13 148.89 66.03 89.94 100.07" style="fill:#5B00FF"></polygon><polygon points="93.62 102.2 145.2 72.41 145.21 149 93.62 178.78 93.62 102.2" style="fill:#fafafa"></polygon><polygon points="89.94 100.07 86.25 97.94 86.25 183.03 89.94 185.16 89.94 100.07" style="fill:#5B00FF"></polygon><polygon points="89.94 100.07 86.25 97.94 86.25 183.03 89.94 185.16 89.94 100.07" style="opacity:0.2"></polygon><polygon points="148.89 66.03 145.21 63.91 86.25 97.94 89.94 100.07 148.89 66.03" style="fill:#5B00FF"></polygon><polygon points="148.89 66.03 145.21 63.91 86.25 97.94 89.94 100.07 148.89 66.03" style="fill:#fff;opacity:0.2"></polygon><polygon points="145.2 72.41 143.19 73.58 143.19 147.84 145.21 149 145.2 72.41" style="fill:#5B00FF"></polygon><polygon points="145.2 72.41 143.19 73.58 143.19 147.84 145.21 149 145.2 72.41" style="opacity:0.1"></polygon><polygon points="145.21 149 143.19 147.84 93.62 176.65 93.62 178.78 145.21 149" style="fill:#5B00FF"></polygon><polygon points="145.21 149 143.19 147.84 93.62 176.65 93.62 178.78 145.21 149" style="opacity:0.2"></polygon></g></g><g id="freepik--Plants--inject-60"><g id="freepik--Plant--inject-60"><path d="M434,322.62c-.14-6,3.38-16.61,9.42-24.55S460,285.52,467,287.73c6.53,2.06,6,10.57-1.69,16.38s-19.35,13.17-22.57,23l-7,12.1Z" style="fill:#5B00FF"></path><path d="M434,322.62c-.14-6,3.38-16.61,9.42-24.55S460,285.52,467,287.73c6.53,2.06,6,10.57-1.69,16.38s-19.35,13.17-22.57,23l-7,12.1Z" style="opacity:0.1"></path><path d="M433.93,330.5h-.09a.41.41,0,0,1-.32-.49c4.57-20.87,22.12-36.37,29.85-38.48a.41.41,0,0,1,.22.8c-7.57,2.07-24.76,17.31-29.26,37.86A.41.41,0,0,1,433.93,330.5Z" style="fill:#fff"></path><path d="M437.47,347.08c.88-3.4,4.86-9.06,11.41-13.81,7.25-5.26,16.51-7.82,18.56-11.83,2.47-4.81-1.64-9.2-9.18-8.08s-20.6,11.76-22.36,27.35Z" style="fill:#5B00FF"></path><path d="M436.43,340.92a.39.39,0,0,1-.15,0,.42.42,0,0,1-.24-.54c5.17-13.67,18.3-21.17,25.24-23.46a.43.43,0,0,1,.53.27.41.41,0,0,1-.27.52c-6.8,2.24-19.67,9.59-24.72,23A.42.42,0,0,1,436.43,340.92Z" style="fill:#fff"></path></g></g><g id="freepik--Character--inject-60"><g id="freepik--Chair--inject-60"><path d="M430,280.6v65.51a2.16,2.16,0,0,0,1,1.68l2.62,1.52a2.16,2.16,0,0,0,1.95,0l2.62-1.52a2.16,2.16,0,0,0,1-1.68V280.6a1.13,1.13,0,0,0-1.12-1.13h-6.89A1.13,1.13,0,0,0,430,280.6Z" style="fill:#263238"></path><path d="M438,279.47H435.7a1.14,1.14,0,0,0-1.13,1.13v68.14c0,.62.43.88,1,.57l2.62-1.52a2.16,2.16,0,0,0,1-1.68V280.6A1.13,1.13,0,0,0,438,279.47Z" style="fill:#37474f"></path><path d="M390.34,299.55v69.26a2.15,2.15,0,0,0,1,1.69l2.62,1.51a2.16,2.16,0,0,0,1.95,0l2.62-1.51a2.18,2.18,0,0,0,1-1.69V299.55a1.13,1.13,0,0,0-1.13-1.13h-6.88A1.13,1.13,0,0,0,390.34,299.55Z" style="fill:#263238"></path><path d="M398.34,298.42H396a1.14,1.14,0,0,0-1.13,1.13v71.9c0,.62.44.87,1,.56l2.62-1.51a2.18,2.18,0,0,0,1-1.69V299.55A1.13,1.13,0,0,0,398.34,298.42Z" style="fill:#37474f"></path><path d="M338.76,277.25V339a2.17,2.17,0,0,0,1,1.72l2.62,1.51a2.16,2.16,0,0,0,1.95,0l2.62-1.51a2.13,2.13,0,0,0,1-1.68V277.28a1.12,1.12,0,0,0-1.12-1.12h-6.88A1.11,1.11,0,0,0,338.76,277.25Z" style="fill:#263238"></path><path d="M346.77,276.16h-2.32a1.12,1.12,0,0,0-1.12,1.12v64.4c0,.62.43.87,1,.56l2.62-1.51a2.13,2.13,0,0,0,1-1.68V277.28A1.12,1.12,0,0,0,346.77,276.16Z" style="fill:#37474f"></path><path d="M443.28,282.72v1a5,5,0,0,1-1.74,4.25l-44.21,25.53a5,5,0,0,1-5,.26l-52.38-30.22a5.73,5.73,0,0,1-2.59-4.49v-1a5.1,5.1,0,0,1,2.72-4.25l51-22.95a6.46,6.46,0,0,1,5.32.24l45.07,26.68C443.23,278.83,443.28,281.07,443.28,282.72Z" style="fill:#37474f"></path><path d="M441.46,277.74l-45.07-26.68a6.46,6.46,0,0,0-5.32-.24l-51,22.95c-1.5.69-1.56,1.93-.13,2.76l52.38,30.21a5,5,0,0,0,5-.25l43.27-25.4C442.53,280,442.9,278.57,441.46,277.74Z" style="fill:#455a64"></path></g><g id="freepik--character--inject-60"><path d="M350.81,187.55C342.3,198,327.74,213,328.23,213c0,0-12.93-26.7-14.12-29.85s.27-4.22.86-6.94.19-3.76.19-3.76c-8.35-4.76-13.74-1.74-14.72,7.89,1.18,2.61,2.23,5.27,3.24,8,4,10.68,13.77,36.73,15.73,40.15s4.72,8.62,10.15,6c1.2-.59,33.75-31,33.75-31l8.59-26.82C361.17,175.29,359.28,177.12,350.81,187.55Z" style="fill:#ffa8a7"></path><path d="M309.56,178.47h0a1.88,1.88,0,0,1-1.63-2.09l3.6-28.74a1.86,1.86,0,0,1,2.08-1.62h0a1.87,1.87,0,0,1,1.63,2.09l-3.6,28.74A1.86,1.86,0,0,1,309.56,178.47Z" style="fill:#5B00FF"></path><rect x="305.28" y="143.24" width="16.69" height="5.4" rx="0.78" transform="translate(20.53 -37.78) rotate(7.13)" style="fill:#5B00FF"></rect><rect x="306.36" y="146.77" width="14.22" height="0.78" transform="translate(20.68 -37.75) rotate(7.13)" style="fill:#fafafa"></rect><rect x="306.51" y="145.55" width="14.22" height="0.78" transform="translate(20.52 -37.77) rotate(7.13)" style="fill:#fafafa"></rect><rect x="306.67" y="144.33" width="14.22" height="0.78" transform="translate(20.37 -37.8) rotate(7.13)" style="fill:#fafafa"></rect><rect x="311.36" y="148.61" width="3.74" height="0.9" transform="translate(20.9 -37.69) rotate(7.12)" style="opacity:0.1"></rect><path d="M300.44,180.3c-1.78-4-3.15-8.06-.22-14.68,3.76-8.51,9.13-6.88,13.6-7.21s7.15,5.08,6.51,7.21-3.29,5.11-4.3,6.1a6.11,6.11,0,0,1-1.64,1.18c-1.85,1-7.26-1-9.14,0S301.44,176.84,300.44,180.3Z" style="fill:#ffa8a7"></path><path d="M387.83,297.34c-9.24-1.48-36.25-12.55-48.52-25.88l7.73-8.09s30,4.57,40.79,15.31,4.46,16.5,4.46,16.5Z" style="fill:#5B00FF"></path><path d="M387.83,297.34c-9.24-1.48-36.25-12.55-48.52-25.88l7.73-8.09s30,4.57,40.79,15.31,4.46,16.5,4.46,16.5Z" style="opacity:0.1"></path><path d="M374.32,167.08h2.54a24.47,24.47,0,0,0,24.52-24.41h0a22.83,22.83,0,0,0-22.79-22.88l-5.81,0a22.84,22.84,0,0,0-22.88,22.79h0A24.47,24.47,0,0,0,374.32,167.08Z" style="fill:#263238"></path><path d="M351.6,133.93c3.07-4.83,20.95-6.45,34.61,7.81,5.8,6,9.55,13.92,5.28,20.52,0,0-.07.05-.11.08v2.55s5.09-2,8.57-12.25c2.55-7.52,3.95-27.6,1.43-35.46-3.32-10.35-26.18-20.5-34.28-16.89C356.53,105,349.9,128.84,351.6,133.93Z" style="fill:#f0f0f0"></path><path d="M367.1,131c12,.25,27.06-11.41,26.82-22.82,0,0,3.79,11.48-7.71,19.7C378,133.76,367.1,131,367.1,131Z" style="fill:#e0e0e0"></path><path d="M360.27,289.72c.09.19.2.39.3.6Q360.44,290,360.27,289.72Z" style="fill:#5B00FF"></path><path d="M360.17,289.52l.1.2A1.86,1.86,0,0,0,360.17,289.52Z" style="fill:#5B00FF"></path><path d="M360.57,290.32l.12.23Z" style="fill:#5B00FF"></path><path d="M380.39,323c-1.8-.7-3.51-1-5.07-2.17s-2.34-3.77-2.95-5.45C369,306,368.68,301,362.64,292.25c-1.42-2-2-3-2.47-3.61-.82-1.06.79-2.47,1.87-3.23l38-25.29L377.8,240.66c-14.51,10.42-14.55,10.22-24.86,18.88-8.41,7.06-18.82,15.62-19.84,20.11-1.09,4.74.7,8.84,8.44,19.7,2.22,3.11,21.87,32.69,23.41,35.91a31.43,31.43,0,0,1,.44,25.12c-1.33,3.38.41,5.85,4.49,4.42,2.79-1,7.51-4.29,9.27-7.32,3.29-5.67,2.19-9.06,1.63-12.33s-.52-8.35,1-11.48a11.33,11.33,0,0,0,1-7C382.53,325.61,381.64,323.41,380.39,323Z" style="fill:#f28f8f"></path><path d="M363,289.35l0,.07Z" style="fill:#5B00FF"></path><path d="M421.22,243.39c-7.56-11.25-11.15-16.26-11.15-16.26-.2-22,.5-38.29-7.85-46.11l-16.05-6.42L370,176.83c-5.2,1.31-6.38,4.43-10.19,13.58C357,197.1,353.49,202,356,210.35c2.1,7,10.39,9.86,10.39,9.86l6,9.8s3.24,11.51,3.3,12.55a39,39,0,0,0,10.22,10.59l5.32,7.15s-26.66,20.41-29,27.28c-1.79,5.3-7.15,39.35-9.91,53.75a127.54,127.54,0,0,1-4.58,17.42c-.55,1.62-1.12,3.17-1.64,4.42a46.31,46.31,0,0,1-7.54,12.91,37.2,37.2,0,0,1-7.06,6.15c-4.92,3.13-5,3.91-3.42,6.2s9.56,3.72,14.77,1.75c7.55-2.84,7.86-7.7,10.5-10.87s7.28-3.66,8.92-6.34.22-5.29-.38-6.65a15.21,15.21,0,0,1-1.09-3,13,13,0,0,1,.46-4.44,53,53,0,0,1,4.42-12.44c1.64-3.28,4.09-8.08,7.26-13.94,5.81-10.77,7.6-19.36,7.2-24.61s-.12-6.93,2.63-8.15c1.45-.64,6-2.78,11.39-5.45a68.77,68.77,0,0,0,13.05-9c9.33-7.76,14-13,16.63-21.08A24.36,24.36,0,0,0,421.22,243.39Z" style="fill:#ffa8a7"></path><path d="M394.6,288.17c-5.74,7-14.29,10.53-18.46,7-1.6-1.36-2.56-3.1-.85-5.35,2.78-3.64,9.64-8.15,10.18-11.16" style="fill:#f28f8f"></path><path d="M360.09,131.84c-2.53,1.9-8.29,9.43-6.36,23.64,1.64,12,5.88,14.59,7.95,15.22s5.79-.31,9.4-1.33l.82,7.24s-3.51,5-2.81,8.28,7.7,2.86,12.1-.92a20.52,20.52,0,0,0,5.83-9.44l-1.71-15.23s2.86,3,6.63-.11,3.17-9.87.53-12-7.65-.81-8.23,2.62c0,0-4.86,1.83-13.17-1.59S361.13,136.46,360.09,131.84Z" style="fill:#ffa8a7"></path><path d="M361.89,130.58s-1.64,9.59,2.55,17.9c0,0-11.57,2-13.2-6.7a19.78,19.78,0,0,1,.48-4.36,8.94,8.94,0,0,1,10.17-6.84Z" style="fill:#263238"></path><path d="M369.09,146l3.37,1.59a2,2,0,0,0-.92-2.55A1.82,1.82,0,0,0,369.09,146Z" style="fill:#263238"></path><path d="M367.61,161.21l-3.4,1.52a1.83,1.83,0,0,0,2.44,1A1.94,1.94,0,0,0,367.61,161.21Z" style="fill:#f28f8f"></path><path d="M355,151.15a1.53,1.53,0,1,0,1.43-1.68A1.56,1.56,0,0,0,355,151.15Z" style="fill:#263238"></path><path d="M367.11,151.15a1.55,1.55,0,0,0,1.62,1.49,1.59,1.59,0,1,0-1.62-1.49Z" style="fill:#263238"></path><polygon points="362.07 149.48 362.86 158.65 357.88 157.7 362.07 149.48" style="fill:#f28f8f"></polygon><path d="M371.08,169.37c3-.7,9-3.26,10.11-5.47,0,0,.11,1.41-1.69,3.55s-8.15,4.27-8.15,4.27Z" style="fill:#f28f8f"></path><path d="M385.31,159.3v29h0a6.06,6.06,0,0,0,6.07-6.07V161.74s-2.11,1.86-3.73.82A6.93,6.93,0,0,1,385.31,159.3Z" style="fill:#263238"></path><path d="M358.25,194c2.47,7.11,17.95,10.17,30.1,9.57A46.38,46.38,0,0,0,409,197.45l-.5-3.15s2.25-.63,2.68,3.67,0,28.72,0,28.72,10.65,13.56,12.7,20.89c2.44,8.71,5.35,17.11-6.61,31-14.25,16.61-24,20.46-29.52,18.72l4.46-2.16c-1.55-13.9-36.72-30.83-48.82-27.57l-4.16,3.85s-1.22-2.94,3.08-7,25.38-19.8,26.92-23.77,1.77-9.91,1.77-9.91l-6.87-8.24s-11-7.36-9.75-19,4.34-10.8,4.34-10.8Z" style="fill:#5B00FF"></path><path d="M390.2,203.4c3.2,8.37,5.72,26.44,6.09,33.1.49,8.76,2.46,29.75-15.72,43.86l2.39,1.81s13.33-9.76,15.16-29.5c2.24-24.2-5.3-49.59-5.3-49.59Z" style="opacity:0.1"></path><path d="M371.08,202a23.23,23.23,0,0,1,2.89-7.33,31.82,31.82,0,0,0-.84,7.78Z" style="fill:#f28f8f"></path><path d="M402.22,181c7.14,3.69,9.91,5.29,11.85,11.69s11.79,40.93,11.59,46.15-25.31,41-31.06,48-14.29,10.53-18.46,7c-1.6-1.35-2.56-3.1-.85-5.35,2.78-3.64,9.64-8.15,10.18-11.16,0,0-6.19-.68-7-2.27-1.74-3.29,6.66-.94,13.21-5.26,5.51-3.65,17.41-34.34,17.41-34.34l-11.49-33.33S393.69,185.92,402.22,181Z" style="fill:#ffa8a7"></path></g></g></svg>