<svg xmlns="http://www.w3.org/2000/svg" viewBox="0 0 500 500"><g id="freepik--Plant--inject-151"><g id="freepik--plant--inject-151"><path d="M404.34,149.46a60.47,60.47,0,0,1,7.43-8c10-9.56,18.64-22.47,16.8-37C427,91.73,417.2,79.6,403.4,80.12c-7.1.27-13.48,4.66-15.39,11.63-1.17,4.3-1.15,8.74-3.84,12.49-2.34,3.28-5.82,5.14-9.42,6.71-.22.09-.41.81-.06.82,5.71.25,11-4.43,13.34-9.4,1.58-3.4,1.78-7.25,3.28-10.68A13.68,13.68,0,0,1,397.8,85c6.11-3.06,13.71-1.07,18.53,3.46A26,26,0,0,1,424,103.37c2.27,13.88-6.28,26.39-15.72,35.58-5.07,4.93-9.35,10-12,16.68a67.15,67.15,0,0,0-4.42,22.25c-.3,8.42,1.06,16.78,1.78,25.15a118.46,118.46,0,0,1-.09,14.1,90.46,90.46,0,0,1-2.82,15.41c-.33,1.18,1.48,3.08,2.16,1.53,3-6.89,4.24-20.19,3.86-27.59-.39-7.86-1.51-15.67-1.45-23.55a71.54,71.54,0,0,1,3.75-23.08A41,41,0,0,1,404.34,149.46Z" style="fill:#ebebeb"></path><path d="M345.32,110.76a14,14,0,0,0-7.64,6.06,7.45,7.45,0,0,0-1,4.08,7.66,7.66,0,0,0,2.72,5,20.08,20.08,0,0,0,5,3,15.65,15.65,0,0,0-3.15,5,5.34,5.34,0,0,0,1.12,5.51,6.08,6.08,0,0,0,2.74,1.25,12.19,12.19,0,0,0,7.28-.67,7.72,7.72,0,0,0-1.06,3.68,3.42,3.42,0,0,0,2.23,3.25,6.86,6.86,0,0,0,4.16.11,19,19,0,0,0,9.91-6.42,42,42,0,0,0,6.09-10.3c1.61-3.61,3-7.61,2.11-11.46-1.05-4.24-4.9-7.35-9.05-8.72C360.27,108,351.74,108.42,345.32,110.76Z" style="fill:#e0e0e0"></path><path d="M344.38,104c-2.72,1.2-5.72,3.34-5.43,6.29.65,6.83,13.31,7.23,18.23,7.17-4.14,2-8.67,4.76-9.5,9.29a4.59,4.59,0,0,0,.42,3.2c.93,1.54,2.91,2,4.69,2.26a46.91,46.91,0,0,0,12.13.06,18.39,18.39,0,0,0-3.15,5.88,7.85,7.85,0,0,0,.79,6.46c1.55,2.29,4.57,3.25,7.33,3,9.74-.83,13.65-12.77,15.88-20.66,1.4-4.93,2.18-10.24.76-15.17C381.86,95.53,356,98.89,344.38,104Z" style="fill:#f0f0f0"></path><path d="M435.51,185.25c-4.59.28-9.24-.33-13.18-2.79a25.23,25.23,0,0,1-8.36-9,21.88,21.88,0,0,1-2.61-6.87c-.6-3.32-.23-6.84,2.16-9.37a7.23,7.23,0,0,1,1.74-1.31,8.28,8.28,0,0,1,2.54-.94,6.6,6.6,0,0,1,3.09.21,17.52,17.52,0,0,1,2.3,1.17,5.07,5.07,0,0,1,4.73-2.78c2.08.17,3.76,1.84,4.73,3.69,1.66,3.19,1.68,7,1.21,10.55-.59,4.45-4.47,16,2.59,17.36C436.13,185.21,435.82,185.23,435.51,185.25Z" style="fill:#f0f0f0"></path><path d="M351.46,198.85c4.09,2.09,8.6,3.4,13.2,2.72a25.25,25.25,0,0,0,11.26-4.9,21.9,21.9,0,0,0,5.14-5.25c1.88-2.8,2.95-6.18,1.77-9.45a6.9,6.9,0,0,0-1.06-1.89,8.18,8.18,0,0,0-2-1.89,6.63,6.63,0,0,0-2.91-1,18.25,18.25,0,0,0-2.57.15,5.09,5.09,0,0,0-3.22-4.44c-2-.68-4.19.17-5.82,1.48-2.8,2.26-4.33,5.73-5.33,9.19-1.24,4.31-2.31,16.44-9.33,14.87C350.9,198.56,351.18,198.7,351.46,198.85Z" style="fill:#f0f0f0"></path><path d="M425,167.36c-1.94-1-1.08-2.87-.53-4.43A9.07,9.07,0,0,0,425,160a10.13,10.13,0,0,0-1.64-5.46,11.51,11.51,0,0,0-10.34-5c-10.35.51-15.63,10.71-19,19.1-.28.68.42,1.15.83.47,4.3-7.11,9.63-16.52,19.15-16.54,3.93,0,7.76,2.13,9,6,.7,2.21-.18,4.16-.26,6.36-.05,1.38.45,2.83,1.94,3.14C425,168.14,425.33,167.52,425,167.36Z" style="fill:#ebebeb"></path><path d="M367.2,187.44c2.18-.09,2.18-2.16,2.34-3.8a8.7,8.7,0,0,1,.75-2.87,10.12,10.12,0,0,1,3.77-4.27,11.5,11.5,0,0,1,11.5-.23c9.19,4.79,9.71,16.27,9.28,25.31,0,.73-.87.87-.95.08-.93-8.26-1.83-19-10.46-23-3.57-1.65-7.94-1.33-10.7,1.7-1.56,1.71-1.57,3.85-2.43,5.89-.53,1.27-1.6,2.38-3.07,2C367,188.18,366.86,187.45,367.2,187.44Z" style="fill:#ebebeb"></path></g></g><g id="freepik--Floor--inject-151"><path id="freepik--floor--inject-151" d="M420.22,242.79c-94.06-54.08-246.56-54.08-340.62,0s-94.06,141.77,0,195.85,246.56,54.08,340.62,0S514.28,296.87,420.22,242.79Z" style="fill:#f5f5f5"></path></g><g id="freepik--Shadow--inject-151"><path id="freepik--shadow--inject-151" d="M65.66,387.19c.87,0,1.75-.06,2.62,0a35.41,35.41,0,0,1,7.36,1.46C81.16,390,87,388,92.17,386.28l15.59-5.21c5.58-1.86,14.72-6.55,20.64-6.08,4.91.39,6.71,1.83,12.19,5.24,3.91,2.43,18.22,12.68,33.17,23,15.85,11,34.92,21.65,55.27,20.91,17.15-.63,35.55-14.44,48-27.66,12.3,6.35,31.59-7.79,48.57-18.79,25.6-16.57,32.53-22.43,50.5-33,15.35-9,23.9-13.89,33.7-19,7.28-3.8,17.46-5.79,23.17-6.19s16.07-.76,19.7-.93c7.92-.36,12.23-2.82,14.07-6.05,3.11-5.44-5.41-9.44-8.1-10.5a65.41,65.41,0,0,0-13.55-4,106.84,106.84,0,0,0-37.86-1.29c-12.56,1.78-24.85,6-36.78,10.19-21.94,7.73-42.76,18.44-64.86,25.7-10.92,3.58-23.06,6.25-33.66,1.84-12.08-5-19-17.92-30.21-24.7-13.2-8-29.91-6.3-45.15-3.79-13.53,2.22-27,4.94-40.09,9.15a148.28,148.28,0,0,0-19.13,7.57c-3.07,1.48-6.08,3.08-9,4.83-2.62,1.55-5.43,2.39-8.14,3.83-9,4.73-16.31,11.92-24.88,17.28-17.58,11-39.93,11.66-56.53,25-2.31,1.85-3.73,3.44-2.3,6.47,1.64,3.52,5.31,5.53,8.84,6.7,4.87,1.61,10,1.49,15,.9C62.12,387.49,63.88,387.28,65.66,387.19Z" style="fill:#e0e0e0"></path></g><g id="freepik--Hair--inject-151"><g id="freepik--hair--inject-151"><path d="M63.81,407.42A16.92,16.92,0,0,0,68,412a19.49,19.49,0,0,0,5.15,2.6,39.76,39.76,0,0,0,11.67,1.75c4.37.14,8.75,0,13.12.09,5.29.07,10.63,0,15.86.93a35.85,35.85,0,0,1,7,2,11.43,11.43,0,0,1,5,3.33,4.35,4.35,0,0,1,.79,3.89,7.72,7.72,0,0,1-3.13,4c-3.83,2.77-8.67,3.55-13.29,3.2a18,18,0,0,1-6.59-1.61c-1.49-.73-3.36-2.05-3.39-3.9,0-2.11,2.1-3.72,3.82-4.51a10.94,10.94,0,0,1,7.17-.23,6.13,6.13,0,0,1,2.63,1.26c.53.5.44,1,.07,1.57a4.65,4.65,0,0,1-2.48,1.73c-.46.16-.88.38-1.34.56a4.51,4.51,0,0,1-2.25.14c-.86-.14-2.45-.65-2.39-1.77,0-.19-.18,0-.19.08a2.11,2.11,0,0,0,1.4,1.85,10.57,10.57,0,0,0,3.73.76c2.09.24,4.92-1.23,5.17-3.51s-2-3.74-3.9-4.33a12.35,12.35,0,0,0-7.81-.09,8.1,8.1,0,0,0-4.93,4.73,5.91,5.91,0,0,0,1.93,5.9,13.49,13.49,0,0,0,7,3.2,27.38,27.38,0,0,0,8,.27,19.17,19.17,0,0,0,7.36-2.4,11.5,11.5,0,0,0,4.59-4.37,6.8,6.8,0,0,0,.41-5.39,9.61,9.61,0,0,0-4.18-4.89A25.48,25.48,0,0,0,116.8,416a48.34,48.34,0,0,0-8.29-1.31c-5.85-.44-11.76-.23-17.62-.35-8.29-.18-17.26.33-24.27-4.89A15.4,15.4,0,0,1,64,407.11c-.11-.12-.25.21-.19.31Z" style="fill:#37474f"></path><path d="M83.62,407.3a15.18,15.18,0,0,0,4.11,1.48,43.46,43.46,0,0,0,4.51.93c3.12.49,6.24,1,9.38,1.31s6.41.44,9.63.54a42.89,42.89,0,0,1,8.83.9,22.82,22.82,0,0,1,4.46,1.53c.68.32,1.34.69,2,1.06s1.33.88,2,1.23c.14.07.23-.27.16-.35a9.18,9.18,0,0,0-3.25-2.5,21,21,0,0,0-3.66-1.45,46.66,46.66,0,0,0-8.69-1.52c-3.26-.33-6.53-.61-9.79-.86-1.64-.12-3.29-.32-4.93-.38s-3.11-.12-4.67-.29c-1.71-.18-3.42-.38-5.12-.68s-3.31-.81-5-1c0,0-.06.07,0,.09Z" style="fill:#37474f"></path><path d="M118.72,397.8a8.66,8.66,0,0,0,.5,7.48c1.51,2.67,4.27,4.51,7,5.72a40.66,40.66,0,0,0,11,2.7c3.88.52,7.79.77,11.68,1.24,3.66.45,8.32.95,10.51,4.39.09.14.23-.11.19-.21-1-2.85-4.17-4.31-6.92-4.86-3.74-.75-7.58-.95-11.37-1.34A68.84,68.84,0,0,1,130,411.09a19.52,19.52,0,0,1-8.7-4.58,10.43,10.43,0,0,1-2.57-3.85,6.9,6.9,0,0,1,.15-4.8c.06-.17-.11-.22-.17-.06Z" style="fill:#37474f"></path><path d="M139.38,396.41a2.15,2.15,0,0,0,1.83-1,2.11,2.11,0,0,0,.27-1.76c-.48-1.53-2.48-2.19-3.88-2.46a12.37,12.37,0,0,0-6.35.54,7.15,7.15,0,0,0-3.84,2.78c-1.86,2.94-.16,6.22,2.16,8.3,3,2.72,7,4.18,10.83,5.27,7.82,2.21,16,2.82,23.9,4.5a43.23,43.23,0,0,1,9.82,3.07c2.28,1.09,5.58,3,5.6,5.93,0,3.9-4.81,4.93-7.83,5a7.91,7.91,0,0,1-5.14-1.51,2.29,2.29,0,0,1-1-1.86,3,3,0,0,1,1.6-2,6.72,6.72,0,0,1,2.88-.77s.07-.11,0-.1a6.18,6.18,0,0,0-4.27,1.69,2.27,2.27,0,0,0-.05,3.07,7.55,7.55,0,0,0,4.47,2.22,13.42,13.42,0,0,0,5.17,0,6.88,6.88,0,0,0,4.07-2.06,5.59,5.59,0,0,0,1.07-5.35c-.91-2.86-3.58-4.79-6.15-6.06a42.82,42.82,0,0,0-9.71-3.12c-3.56-.79-7.17-1.36-10.77-1.93-4.31-.69-8.63-1.37-12.87-2.44-3.81-1-7.82-2.25-10.87-4.84a6.43,6.43,0,0,1-2.5-3.64,3.79,3.79,0,0,1,1.68-3.44,11.46,11.46,0,0,1,5.44-1.92c1.76-.22,4.41-.2,5.71,1.26.85,1-.48,1.94-1.25,2.4-.06,0-.15.24,0,.23Z" style="fill:#37474f"></path></g></g><g id="freepik--Character--inject-151"><g id="freepik--character--inject-151"><g id="freepik--Bottom--inject-151"><path d="M128.74,301.34c-4.74,19-3.36,43.21,23.17,68.23C177.84,394,195.32,404.79,208.56,411c10,4.67,25.6,7.5,48.67-9.1a116.51,116.51,0,0,0,27.34-27.53L221,274.86Z" style="fill:#37474f"></path><path d="M221.87,303.61c-1.25,10-7.89,20.57-15.35,26.11-7-2.14-17.41-5.94-36.23-.17,21.24-1.65,33.87,4.21,33.87,4.21s17.53,27.53,36.23,40.1c11.84,8,24.25,13.33,32.45,14.58a102.72,102.72,0,0,0,11.73-14.07L269,350l-9-9.87Z" style="fill:#263238"></path><path d="M212.48,333.25c12.63,16.33,38.2,40.69,52.11,47.27s21.94,2,38.17-5.24c12-5.31,54.32-33.52,73.37-44.52s26.22-15.14,38.83-17.64,24-2,33.14-8.08.76-14.88-12.3-15.83-22.43-.23-35.51-4.78-19.43-1.86-22.12,1.48-2,10.72-10.72,15.08-35.78,8.52-48.59,13.3-30.55,18.8-30.55,18.8c-19-17.57-34.52-42-65.95-61C228.85,301.34,225.93,323.28,212.48,333.25Z" style="fill:#ffa8a7"></path><path d="M222.36,272.12c6.86,2.86,21.22,14.36,39.93,31.38,20,18.18,27.22,23.05,27.22,23.05a76.81,76.81,0,0,1,12.64-7.64c7.65-3.72,25-8.5,45.69-12.16,14.07,4,19.1,19.67,17.1,30.74-8.41,5.23-38,25.75-55.11,35.87S280.67,387,269.31,383.68,238,367.48,226.4,353.9c-12.36-14.52-16.05-21.61-16.05-21.61a36.08,36.08,0,0,0,11.52-28.68A218.59,218.59,0,0,1,222.36,272.12Z" style="fill:#37474f"></path><path d="M373.55,295.81c6.63-2.49,14.82-2.9,20.21-3.41s16.94.43,27.21,1.75,18.73,5.18,20,8,1.92,7.44-16.69,9.49c0,0,17-.43,28.83-1,13.24-.67,12.47-11.2,6.11-17.07-6-5.53-13.78-10.09-27-10.43-14.4-.37-18.14,4.34-31.55-2.29-11.83-5.84-19.37-3.3-22.35-1.17C373.57,283.07,373.55,295.81,373.55,295.81Z" style="fill:#455a64"></path></g><g id="freepik--Top--inject-151"><path d="M215.8,142.52c3.11,3.73,9.17,4.77,12.32,2.08-4.53-2.18-6.57-7.7-6.41-12.73s2-9.8,3.36-14.65c2-7.32,2.67-15.11,1-22.5A31.21,31.21,0,0,0,218,79.65c-1.91-1.92-4.18-2.92-6.21-4.58a48.38,48.38,0,0,0-7.57-5.28c-15.93-8.59-36.24-5.69-45.3,6.38a20,20,0,0,0,.4-3.6c.06-5.47-2.59-7-4.88-6.64a1.44,1.44,0,0,0-1.32,1.5.93.93,0,0,0,1.19.93.89.89,0,0,1-.83-1.38,1.6,1.6,0,0,1,1.49-.65c1.75,0,3.79,2.28,3.47,6.23a15.58,15.58,0,0,1-1.21,4.55c-2.87,0-4.63-1.56-4.76-3a1.63,1.63,0,0,1,.52-1.55.89.89,0,0,1,1.45.71.94.94,0,0,0-1-1.11A1.44,1.44,0,0,0,152,73.59c-.17,1.94,1.08,4,4.67,4.3a31.83,31.83,0,0,0-10.88,3.32C141,84,138.11,90.32,136.47,97c-1.76,7.17-1.82,13.68-2.45,19.56a28.28,28.28,0,0,1-4.56,6.46c-5.29,5.39-11.14,5.31-13.3,2.77a3.05,3.05,0,0,1-.92-3,1.7,1.7,0,0,1,3-.52,1.78,1.78,0,0,0-2.83-.56,2.75,2.75,0,0,0-.51,3.77c2.26,3.81,7.82,5.66,15.62-1.24a34,34,0,0,0,2.7-2.67,25,25,0,0,1-2.49,7c-3.06,5.56-7.07,7.3-11,12.45-2.17,2.82-3.3,9.53,0,12.48-2.1-8.36,4.07-12.89,8.27-13.63-4,5.27-2.41,19.52,7,23.13-1.56-5,.6-12,4.7-13.16,0,0-3.35,12.74,9.7,15.07,10.52,1.88,18.41-5.2,18.41-5.2s-13.13-2.3-15.38-10.3l1.41-13.35,19.84,24.31c6.7,5.64,17.76,6.49,25.62,6,13.26-.83,22.2-8.21,25.4-16.35C220.81,150.24,215.8,146.52,215.8,142.52Z" style="fill:#37474f"></path><path d="M179,105.9c2.68-4.94.2-9.45-2.92-12.88-4.32-4.76-10.61-10.48-15.8-13,9.05,3.66,17.43,12.74,22.15,16.17a42.06,42.06,0,0,0,10.38,5.46l-6.94,2.18Z" style="fill:#ffa8a7"></path><path d="M216.1,130.23c-3,23.91-11.36,29.05-15.43,30.35s-7.92.45-15.1-1.5L183.77,170s8.68,7.85,6.32,11.44c-4,6.08-16.94,3.1-25.62-.42-7.79-3.15-11.53-7-13.42-9.76a4.48,4.48,0,0,1-.55-3.26l3.38-32s-3.83,2.25-9.58-1.62c-5.17-3.48-6.32-14.38-1.48-19.05a8,8,0,0,1,9.57-1c4.28,2.58,4.46,5.47,4.12,9.91a44.66,44.66,0,0,0,0,6.44c.68,4.87,3.58,7,6.79,7.68a14,14,0,0,1-2.13-6.28c-.26-3.34-.74-6.52,3.4-12.71,1.54-2.31,4.22-4.4,6.3-6.1s4.5-3.36,6.16-5c3.28-3.26,5.55-8.46,5.42-12,5.1,3.33,11.1,4.25,16.18,4.51,8,.4,14.23-2.17,15.62-4.51a16.59,16.59,0,0,1,1.7,4.51,54,54,0,0,1,1.33,9.68A122.69,122.69,0,0,1,216.1,130.23Z" style="fill:#ffa8a7"></path><path d="M192,143.78a3.1,3.1,0,0,1,1.28.9c.14.15.3.43.51.47a.27.27,0,0,0,.25,0,.31.31,0,0,0,.07-.09,1.45,1.45,0,0,0-.4-1.39,2.86,2.86,0,0,0-1.22-.83,3.47,3.47,0,0,0-2.77,0c-.15.09-.32.28-.12.41a2.26,2.26,0,0,0,.78.16A8.35,8.35,0,0,1,192,143.78Z" style="fill:#b16668"></path><path d="M189.4,123.5c0,1.7-1.38,1.72-3.08,1.72s-3.07,0-3.07-1.72a3.08,3.08,0,0,1,6.15,0Z" style="fill:#263238"></path><path d="M210.33,124.94c-.22,1.68-1.59,1.52-3.27,1.29s-3.05-.44-2.82-2.12a3.07,3.07,0,1,1,6.09.83Z" style="fill:#263238"></path><polygon points="195.56 116.09 195.99 137.88 206.72 135.5 195.56 116.09" style="fill:#f28f8f"></polygon><path d="M179.32,116.06l7.48-3.55a4.34,4.34,0,0,1-2,5.66A4,4,0,0,1,179.32,116.06Z" style="fill:#263238"></path><path d="M208.93,113.27l6,5.78a4,4,0,0,1-5.81.25A4.38,4.38,0,0,1,208.93,113.27Z" style="fill:#263238"></path><path d="M185.57,159.08c-7.42-1.08-23.72-6.7-27.21-17.67,0,0,.88,7.85,5,12.56,6.25,7.1,21.48,9.38,21.48,9.38Z" style="fill:#f28f8f"></path><path d="M296.67,204.21c-2.28-17.06-5.38-39.54-5.61-50.37l-19.84,4.78c-.09,5.36-.43,10.13-1.87,23.17-.68,6.1-1.5,12.12-2.15,17.75-8.58-4.13-32.86-15.79-44.12-21.28-14.82-7.21-18.17-7.49-27.59-7.95l-.34,32.35s42.4,22.93,69,31.56c16.4,5.32,24.7,6.86,28.37-1.1C294.7,228.3,298.77,220,296.67,204.21Z" style="fill:#ffa8a7"></path><path d="M267.2,199.54c-1.08,5.87-2.13,15.87,0,22.77-3.46-6.54-4.71-15-3.25-24.34Z" style="fill:#f28f8f"></path><path d="M196,169.76A52.14,52.14,0,0,1,215.87,174c7.22,3.06,37.17,18.26,37.17,18.26s.91,24.63-10.23,34.55l-47.66-17.9Z" style="fill:#5B00FF"></path><path d="M271.22,158.62c0-2.69-.34-4.23-1.72-5.91s-3.78-4-4.72-6c-1.57-3.25-1.31-5.29-2.29-7.91a56.23,56.23,0,0,0-5.28-10.74,11.19,11.19,0,0,1-2-6.36A1.84,1.84,0,0,1,256.6,120a2.28,2.28,0,0,1,1,0c2.47.35,4.14,2.33,5.35,4.52a27.61,27.61,0,0,0,4.1,6c1,.91,2.07,1.88,2.83,1.44.4-.24-.07-1.88.63-4.2-.76-1.29-.76-2.49-.28-4.54a12,12,0,0,1-3.18-3.93,10.82,10.82,0,0,1-5.23.44,33.39,33.39,0,0,1-4.34,1.56,6.47,6.47,0,0,1-2.7-.08,2.89,2.89,0,0,1-1.77-1.56c-.25-.75.37-1,.91-1.25s2-1,2-1a4,4,0,0,1-2.93-1.59,1.11,1.11,0,0,1-.3-.84c.06-.41.61-.61.87-.69,1.76-.5,2.37-.54,4.41-.95,1.74-.35,3.44-.38,5.05-.69.62-.31,1.94-.84,2.58-1.06a17.07,17.07,0,0,1,2.14-.52,7.49,7.49,0,0,1,2.18.49c1.29.37,2,.75,3.08,1.11a23.64,23.64,0,0,1,2.57-.2,4.81,4.81,0,0,1,3.18.89,23.32,23.32,0,0,1,2.27,2.39l5.59,6.46c1.24,1.44,2.19,2.29,3.33,3.81s1.35,3.14,1.28,9c0,3.42-.2,15.24-.21,17.29l0,6.69" style="fill:#ffa8a7"></path><path d="M271.24,158.62c1.37-1.6,4-5.06,3-7.48a13.21,13.21,0,0,1,.7-11.74c2.64-4.34,2.68-5.42,3.62-9.27s3.41-3.72,2.66-4.58a8.27,8.27,0,0,1-3.23-5.66,6.25,6.25,0,0,1-2.67-3.87,9.1,9.1,0,0,1-5.48-1.07c-1.53-1.77.23-1.94.23-1.94l2.79-.49c-1-.34-1.67-.7-2.88-1a7.49,7.49,0,0,0-2.18-.49,17.07,17.07,0,0,0-2.14.52c-.64.22-2,.75-2.58,1.06-1.61.31-3.31.34-5.05.69-2,.41-2.65.45-4.41.95-.26.08-.81.28-.87.69a1.11,1.11,0,0,0,.3.84,4,4,0,0,0,2.93,1.59s-1.47.65-2,1-1.16.5-.91,1.25a2.89,2.89,0,0,0,1.77,1.56,2.47,2.47,0,0,0,.53.11,2,2,0,0,0-.1.5c0,.25,0,.51,0,.76a8.55,8.55,0,0,0,.35,2h0a12.81,12.81,0,0,0,1.12,2.7c.15.28.31.57.49.86.54.9,1,1.74,1.51,2.57a52,52,0,0,1,3.77,8.17,14.1,14.1,0,0,1,.55,1.89c.07.3.13.6.19.91.12.61.24,1.22.4,1.87.07.32.16.66.27,1a15.59,15.59,0,0,0,.88,2.24,24.12,24.12,0,0,0,3.53,4.63c.43.49.84.95,1.19,1.37a8,8,0,0,1,.85,1.26,7.14,7.14,0,0,1,.8,2.83c.05.54.07,1.14.07,1.82Zm-1.09-28.69c-.07,1.06,0,1.76-.24,1.91a.85.85,0,0,1-.61.09,1.67,1.67,0,0,1-.34-.11,7,7,0,0,1-1.48-1.08l-.39-.34a13.19,13.19,0,0,1-1.81-2.22c-.71-1-1.51-2.34-2.29-3.73a9.47,9.47,0,0,0-3.52-3.9c.93-.34,1.77-.7,2.39-.94a10.82,10.82,0,0,0,5.23-.44,12,12,0,0,0,3.18,3.93c-.48,2.05-.48,3.25.28,4.54A10.13,10.13,0,0,0,270.15,129.93Z" style="fill:#f28f8f"></path><path d="M256,117.33a15,15,0,0,0,2.6-.11,13.11,13.11,0,0,0,2.53-.6h.1c.5.11,1.05.16,1.57.22s1.07.08,1.6.1a9.71,9.71,0,0,0,3.11-.3l.2-.07.08.19a12.89,12.89,0,0,0,1.72,3,11,11,0,0,0,1.2,1.26,10.67,10.67,0,0,1,1.65,1.71,12,12,0,0,0-1.76-1.57,8.9,8.9,0,0,1-1.32-1.21,10.79,10.79,0,0,1-1.9-3l.29.12a5.63,5.63,0,0,1-1.65.33,12.82,12.82,0,0,1-1.64,0c-.54,0-1.08-.07-1.62-.13a13.46,13.46,0,0,1-1.63-.26h.1a12.53,12.53,0,0,1-2.6.46A11,11,0,0,1,256,117.33Z" style="fill:#b16668"></path><path d="M281.22,125.55A7.67,7.67,0,0,1,279,123a11.42,11.42,0,0,1-1.18-3.22l.07.13a10.42,10.42,0,0,1-1.64-1.68,6,6,0,0,1-1.08-2.11l.24.18a11.73,11.73,0,0,1-3.44-.28,6.58,6.58,0,0,1-1.65-.62,2.41,2.41,0,0,1-1.2-1.36,1.94,1.94,0,0,1-.05-.49.63.63,0,0,1,.34-.46,2.89,2.89,0,0,1,.85-.3,14.53,14.53,0,0,1,1.7-.25c1.14-.09,2.27-.13,3.41-.19-1.13.15-2.26.28-3.38.44a14.58,14.58,0,0,0-1.65.31,2.53,2.53,0,0,0-.73.29.28.28,0,0,0-.16.19,1.12,1.12,0,0,0,.06.35,2,2,0,0,0,1,1.09,5.77,5.77,0,0,0,1.54.55,12.7,12.7,0,0,0,3.32.26h.19l0,.18a7.57,7.57,0,0,0,2.5,3.59l.06,0,0,.07a11.11,11.11,0,0,0,1,3.16A7.69,7.69,0,0,0,281.22,125.55Z" style="fill:#b16668"></path><path d="M277.76,133.27c0,1.63-1,3-1.67,4.42a26,26,0,0,0-2,4.26,13.47,13.47,0,0,0-.76,4.58,17.16,17.16,0,0,0,.88,4.61,13.43,13.43,0,0,1-1.25-4.6,12.73,12.73,0,0,1,.67-4.74,22.79,22.79,0,0,1,2.11-4.29c.41-.68.82-1.35,1.2-2A5.93,5.93,0,0,0,277.76,133.27Z" style="fill:#b16668"></path><path d="M265.66,111.51l-3.15,1.43a12.78,12.78,0,0,0-1.52.78c-.24.14-.38.31-.32.53a1,1,0,0,0,.43.56,4.76,4.76,0,0,0,3.19.51,15.41,15.41,0,0,0,3.28-.87l.17-.06.11.14a11.81,11.81,0,0,0,2.22,2.13,8.83,8.83,0,0,0,2.75,1.36l.12,0,0,.12a6.67,6.67,0,0,0,.48,1.58,10.5,10.5,0,0,0,.77,1.49,9.38,9.38,0,0,0,1,1.35,10.44,10.44,0,0,1,1.08,1.31,9.77,9.77,0,0,0-1.17-1.24,9.89,9.89,0,0,1-1.11-1.3,9.66,9.66,0,0,1-.87-1.49,7.66,7.66,0,0,1-.57-1.65l.14.15a8.44,8.44,0,0,1-2.91-1.36,12,12,0,0,1-2.35-2.21l.28.08a14.77,14.77,0,0,1-3.4.87,5,5,0,0,1-3.48-.65,1.32,1.32,0,0,1-.55-.81.83.83,0,0,1,.5-.85,13.29,13.29,0,0,1,1.59-.73Z" style="fill:#b16668"></path><path d="M268.28,132.54c.7,1.72.45,3.64,1.74,6a24.63,24.63,0,0,1,0-7h0c0,.14-.07.25-.15.29-.75.44-1.78-.53-2.82-1.44l-.3-.29A10.43,10.43,0,0,1,268.28,132.54Z" style="fill:#b16668"></path><path d="M266.11,129.31h0l0,0Z" style="fill:#f28f8f"></path><path d="M208.35,94.08c3.12,10.77,13.5,16.77,22.11,19.15,13.43,3.73,23.44,2.86,27,9.65s-1,17.08-5.12,19.4c4.5-1.68,13.07-11.43,6.51-21.86C251.71,109.13,223,118,208.35,94.08Z" style="fill:#37474f"></path><path d="M211.83,97.31C216.91,107.18,226,117,237,117.71c-16.14.87-27.54-12.28-29.13-19.84Z" style="fill:#37474f"></path><path d="M213.46,94.08c3.94,6.49,13.72,12.5,21.19,13.59s12.08-2.5,12.27-5.82a3.09,3.09,0,0,0-1.06-2.92,1.7,1.7,0,0,0-2.73,1.41,1.79,1.79,0,0,1,1.92-2.15,2.75,2.75,0,0,1,2.68,2.7c.51,4.39-2.81,9.23-13.19,8.45-10.07-.75-20.89-6.41-24.69-10.85A23.29,23.29,0,0,1,213.46,94.08Z" style="fill:#37474f"></path><path d="M263,124.45c-1.21-2.19-2.88-4.17-5.35-4.52a2.28,2.28,0,0,0-1,0,1.84,1.84,0,0,0-1.35,1.73,11.19,11.19,0,0,0,2,6.36,56.23,56.23,0,0,1,5.28,10.74l4.6-8.4A27.61,27.61,0,0,1,263,124.45Z" style="fill:#f28f8f"></path><path d="M231.94,278s-4.7,22.9-38.87,33.31-66.3-.58-66.3-.58c1.67-15.06,3.2-24,5.48-36.5s.73-24.31-1.2-30.5c-2.6-8.32-4.45-16.09-9-36.73-1.68-7.58-7.07-28.44,7-32.62,8.07-2.42,13-3.25,21.46-5.22a3.6,3.6,0,0,0,.62,2.13c1.89,2.78,5.63,6.61,13.42,9.77,8.68,3.53,21.6,6.5,25.62.42,2.36-3.59-6.32-11.44-6.32-11.44l.27-1.63c1.88.15,8.05.67,11.94,1.36,7,1.26,14.46,9.5,26.17,32.64,5.85,11.57,13,26.49-3,39.67-.64,8.62,1.06,13.61-.11,23.77C219,265.84,227.43,273,231.94,278Z" style="fill:#455a64"></path><path d="M196.32,237.89s-6,12.26-21.82,11.36C160,248.42,154.55,236,154.55,236s.16,16.68,19.84,17.24S196.32,237.89,196.32,237.89Z" style="opacity:0.2"></path><path d="M128.05,178.89c-19.39,7.37-23.09,16.2-26.68,32.06s-9.85,56.26-12.31,71.66c-3.31,20.72-6,62.69-9.25,65.91s-20.72,8.23-25.29,11.72A126.63,126.63,0,0,0,41.15,373c-1.57,1.86-1.74,5.19,5.75,7.47,8,2.45,11.54,3.47,18.17-.44,2.73-1.61,6.51-3.94,9.11-5.54,4.07-2.5,11-4.31,12.73-4.19,2.88.19-1.6,3.93-5,6.42-2.57,1.86-4.12,5.33-2.76,7.52,1.11,1.8,7.68-2.35,12.4-4.24,5.76-2.3,12-9.58,12.61-16.27.7-8,2.32-13.93,4.88-28s9.06-34,11-46.7c2.69-18,14.29-62.67,14.29-62.67C138.5,208.08,135,192.82,128.05,178.89Z" style="fill:#ffa8a7"></path><path d="M130.38,174c-15.22,4.35-20.22,9.28-24.78,20.7-4.77,11.91-12.51,60-12.51,60s3.19,6.46,13.9,9.56c13.81,4,18.75,1.25,18.75,1.25l11.2-46.21S144,190.9,130.38,174Z" style="fill:#5B00FF"></path></g></g></g><g id="freepik--Icons--inject-151"><g id="freepik--Signs--inject-151"><g id="freepik--smiley-face--inject-151"><circle cx="127.31" cy="62.3" r="12.49" transform="translate(-13.93 74.16) rotate(-30.88)" style="fill:#5B00FF"></circle><g style="opacity:0.35000000000000003"><circle cx="127.31" cy="62.3" r="12.49" transform="translate(-13.93 74.16) rotate(-30.88)" style="fill:#fff"></circle></g><path d="M134.63,65a.72.72,0,0,1-.76,0c-1.17-.81-3.29-.72-4.94.2h0a5,5,0,0,0-2.79,4.08.73.73,0,0,1-.69.77.74.74,0,0,1-.76-.7c-.09-2,1.36-4.22,3.53-5.42l0,0c2.16-1.2,4.82-1.25,6.46-.12a.72.72,0,0,1,.19,1A.65.65,0,0,1,134.63,65Z" style="fill:#37474f"></path><path d="M129.25,57.82a1.39,1.39,0,1,0,.43-2.06A1.5,1.5,0,0,0,129.25,57.82Z" style="fill:#37474f"></path><path d="M120.19,63a1.39,1.39,0,1,0,.43-2.06A1.5,1.5,0,0,0,120.19,63Z" style="fill:#37474f"></path></g><polygon points="89.26 84.69 105.43 90.29 108.23 85.57 115.48 91.95 117.47 87.54 127.47 93.4 115.66 79.04 113.6 84.02 105.63 74.51 101.99 81.21 94.23 72.94 89.26 84.69" style="fill:#5B00FF"></polygon><polygon points="118.59 105.16 119.08 99.28 130.46 97.01 114.58 94.52 113.85 99.22 101.59 97.41 102.81 107.01 118.59 105.16" style="fill:#5B00FF"></polygon><g style="opacity:0.30000000000000004"><polygon points="89.26 84.69 105.43 90.29 108.23 85.57 115.48 91.95 117.47 87.54 127.47 93.4 115.66 79.04 113.6 84.02 105.63 74.51 101.99 81.21 94.23 72.94 89.26 84.69"></polygon></g><g id="freepik--question-marks--inject-151"><path d="M148.86,27a13,13,0,0,1,3.69,0,10.08,10.08,0,0,1,3.32,1.11,8,8,0,0,1,2.53,2.2,7,7,0,0,1,1.28,3.31,7.21,7.21,0,0,1-.13,2.82,8.66,8.66,0,0,1-1,2.26,13.87,13.87,0,0,1-1.46,1.92l-1.53,1.69A11.24,11.24,0,0,0,154.34,44a3.37,3.37,0,0,0-.52,1.72,1.57,1.57,0,0,1-.25.8.94.94,0,0,1-.67.41l-3,.39a1.09,1.09,0,0,1-.81-.21.89.89,0,0,1-.4-.71,7,7,0,0,1,.3-2.8,10.15,10.15,0,0,1,1.1-2.27,14.32,14.32,0,0,1,1.52-1.91c.56-.59,1.07-1.14,1.53-1.67a8.62,8.62,0,0,0,1.12-1.56,2.5,2.5,0,0,0,.32-1.59A3,3,0,0,0,153,32.29a5.51,5.51,0,0,0-3.49-.52,5.24,5.24,0,0,0-4.5,4,2.25,2.25,0,0,1-.33.71,1,1,0,0,1-.7.31l-3.21.43a.86.86,0,0,1-.64-.16.84.84,0,0,1-.34-.6,6.07,6.07,0,0,1,.48-2.94,9.52,9.52,0,0,1,1.83-2.89A11.55,11.55,0,0,1,145,28.3,10.33,10.33,0,0,1,148.86,27Zm4.55,22.26a1,1,0,0,1,.79.21,1,1,0,0,1,.41.71l.46,3.48a1,1,0,0,1-.21.79,1.06,1.06,0,0,1-.71.42l-3.4.45a1.06,1.06,0,0,1-.8-.22,1,1,0,0,1-.41-.71l-.46-3.48a1,1,0,0,1,.22-.79,1,1,0,0,1,.71-.42Z" style="fill:#5B00FF"></path><path d="M180.14,43a8.79,8.79,0,0,1,1.94,1.65,6.76,6.76,0,0,1,1.27,2.06,5.37,5.37,0,0,1,.37,2.28,4.88,4.88,0,0,1-.79,2.32,5,5,0,0,1-1.31,1.44,6.42,6.42,0,0,1-1.53.76,9,9,0,0,1-1.62.37l-1.56.22a7.86,7.86,0,0,0-1.37.32,2.28,2.28,0,0,0-1,.68,1,1,0,0,1-.48.31.61.61,0,0,1-.54-.08l-1.77-1.12a.76.76,0,0,1-.34-.47.63.63,0,0,1,.11-.55,4.67,4.67,0,0,1,1.39-1.35,6.51,6.51,0,0,1,1.6-.72,9.3,9.3,0,0,1,1.65-.34c.55-.06,1.06-.13,1.55-.21a5.69,5.69,0,0,0,1.28-.33,1.77,1.77,0,0,0,.87-.7,2.08,2.08,0,0,0,.17-1.93,3.73,3.73,0,0,0-1.61-1.82,3.62,3.62,0,0,0-4.16.14,1.61,1.61,0,0,1-.49.23.7.7,0,0,1-.51-.15l-1.89-1.19a.6.6,0,0,1-.27-.37.59.59,0,0,1,.09-.47,4.12,4.12,0,0,1,1.55-1.34,6.69,6.69,0,0,1,2.25-.73,8.17,8.17,0,0,1,2.6.07A7.09,7.09,0,0,1,180.14,43Zm-7.43,13.8a.76.76,0,0,1,.33.47.73.73,0,0,1-.1.56l-1.29,2a.75.75,0,0,1-.47.32.73.73,0,0,1-.56-.09l-2-1.27a.77.77,0,0,1-.23-1l1.29-2a.76.76,0,0,1,.47-.33.73.73,0,0,1,.56.1Z" style="fill:#5B00FF"></path><g style="opacity:0.2"><path d="M180.14,43a8.79,8.79,0,0,1,1.94,1.65,6.76,6.76,0,0,1,1.27,2.06,5.37,5.37,0,0,1,.37,2.28,4.88,4.88,0,0,1-.79,2.32,5,5,0,0,1-1.31,1.44,6.42,6.42,0,0,1-1.53.76,9,9,0,0,1-1.62.37l-1.56.22a7.86,7.86,0,0,0-1.37.32,2.28,2.28,0,0,0-1,.68,1,1,0,0,1-.48.31.61.61,0,0,1-.54-.08l-1.77-1.12a.76.76,0,0,1-.34-.47.63.63,0,0,1,.11-.55,4.67,4.67,0,0,1,1.39-1.35,6.51,6.51,0,0,1,1.6-.72,9.3,9.3,0,0,1,1.65-.34c.55-.06,1.06-.13,1.55-.21a5.69,5.69,0,0,0,1.28-.33,1.77,1.77,0,0,0,.87-.7,2.08,2.08,0,0,0,.17-1.93,3.73,3.73,0,0,0-1.61-1.82,3.62,3.62,0,0,0-4.16.14,1.61,1.61,0,0,1-.49.23.7.7,0,0,1-.51-.15l-1.89-1.19a.6.6,0,0,1-.27-.37.59.59,0,0,1,.09-.47,4.12,4.12,0,0,1,1.55-1.34,6.69,6.69,0,0,1,2.25-.73,8.17,8.17,0,0,1,2.6.07A7.09,7.09,0,0,1,180.14,43Zm-7.43,13.8a.76.76,0,0,1,.33.47.73.73,0,0,1-.1.56l-1.29,2a.75.75,0,0,1-.47.32.73.73,0,0,1-.56-.09l-2-1.27a.77.77,0,0,1-.23-1l1.29-2a.76.76,0,0,1,.47-.33.73.73,0,0,1,.56.1Z"></path></g></g></g></g></svg>