  0
SECTION
  2
HEADER
  9
$ACADVER
  1
AC1024
  9
$ACADMAINTVER
 70
     6
  9
$DWGCODEPAGE
  3
ANSI_1251
  9
$INSBASE
 10
0.0
 20
0.0
 30
0.0
  9
$EXTMIN
 10
1.000000000000000E+20
 20
1.000000000000000E+20
 30
1.000000000000000E+20
  9
$EXTMAX
 10
-1.000000000000000E+20
 20
-1.000000000000000E+20
 30
-1.000000000000000E+20
  9
$LIMMIN
 10
0.0
 20
0.0
  9
$LIMMAX
 10
12.0
 20
9.0
  9
$ORTHOMODE
 70
     0
  9
$REGENMODE
 70
     1
  9
$FILLMODE
 70
     1
  9
$QTEXTMODE
 70
     0
  9
$MIRRTEXT
 70
     1
  9
$LTSCALE
 40
1.0
  9
$ATTMODE
 70
     1
  9
$TEXTSIZE
 40
0.2
  9
$TRACEWID
 40
0.05
  9
$TEXTSTYLE
  7
Standard
  9
$CLAYER
  8
0
  9
$CELTYPE
  6
ByLayer
  9
$CECOLOR
 62
   256
  9
$CELTSCALE
 40
1.0
  9
$DISPSILH
 70
     0
  9
$DIMSCALE
 40
1.0
  9
$DIMASZ
 40
0.18
  9
$DIMEXO
 40
0.0625
  9
$DIMDLI
 40
0.38
  9
$DIMRND
 40
0.0
  9
$DIMDLE
 40
0.0
  9
$DIMEXE
 40
0.18
  9
$DIMTP
 40
0.0
  9
$DIMTM
 40
0.0
  9
$DIMTXT
 40
0.18
  9
$DIMCEN
 40
0.09
  9
$DIMTSZ
 40
0.0
  9
$DIMTOL
 70
     0
  9
$DIMLIM
 70
     0
  9
$DIMTIH
 70
     1
  9
$DIMTOH
 70
     1
  9
$DIMSE1
 70
     0
  9
$DIMSE2
 70
     0
  9
$DIMTAD
 70
     0
  9
$DIMZIN
 70
     0
  9
$DIMBLK
  1

  9
$DIMASO
 70
     1
  9
$DIMSHO
 70
     1
  9
$DIMPOST
  1

  9
$DIMAPOST
  1

  9
$DIMALT
 70
     0
  9
$DIMALTD
 70
     2
  9
$DIMALTF
 40
25.4
  9
$DIMLFAC
 40
1.0
  9
$DIMTOFL
 70
     0
  9
$DIMTVP
 40
0.0
  9
$DIMTIX
 70
     0
  9
$DIMSOXD
 70
     0
  9
$DIMSAH
 70
     0
  9
$DIMBLK1
  1

  9
$DIMBLK2
  1

  9
$DIMSTYLE
  2
Standard
  9
$DIMCLRD
 70
     0
  9
$DIMCLRE
 70
     0
  9
$DIMCLRT
 70
     0
  9
$DIMTFAC
 40
1.0
  9
$DIMGAP
 40
0.09
  9
$DIMJUST
 70
     0
  9
$DIMSD1
 70
     0
  9
$DIMSD2
 70
     0
  9
$DIMTOLJ
 70
     1
  9
$DIMTZIN
 70
     0
  9
$DIMALTZ
 70
     0
  9
$DIMALTTZ
 70
     0
  9
$DIMUPT
 70
     0
  9
$DIMDEC
 70
     4
  9
$DIMTDEC
 70
     4
  9
$DIMALTU
 70
     2
  9
$DIMALTTD
 70
     2
  9
$DIMTXSTY
  7
Standard
  9
$DIMAUNIT
 70
     0
  9
$DIMADEC
 70
     0
  9
$DIMALTRND
 40
0.0
  9
$DIMAZIN
 70
     0
  9
$DIMDSEP
 70
    46
  9
$DIMATFIT
 70
     3
  9
$DIMFRAC
 70
     0
  9
$DIMLDRBLK
  1

  9
$DIMLUNIT
 70
     2
  9
$DIMLWD
 70
    -2
  9
$DIMLWE
 70
    -2
  9
$DIMTMOVE
 70
     0
  9
$DIMFXL
 40
1.0
  9
$DIMFXLON
 70
     0
  9
$DIMJOGANG
 40
0.7853981633974483
  9
$DIMTFILL
 70
     0
  9
$DIMTFILLCLR
 70
     0
  9
$DIMARCSYM
 70
     0
  9
$DIMLTYPE
  6

  9
$DIMLTEX1
  6

  9
$DIMLTEX2
  6

  9
$DIMTXTDIRECTION
 70
     0
  9
$LUNITS
 70
     2
  9
$LUPREC
 70
     4
  9
$SKETCHINC
 40
0.1
  9
$FILLETRAD
 40
0.5
  9
$AUNITS
 70
     0
  9
$AUPREC
 70
     0
  9
$MENU
  1
.
  9
$ELEVATION
 40
0.0
  9
$PELEVATION
 40
0.0
  9
$THICKNESS
 40
0.0
  9
$LIMCHECK
 70
     0
  9
$CHAMFERA
 40
0.5
  9
$CHAMFERB
 40
0.5
  9
$CHAMFERC
 40
1.0
  9
$CHAMFERD
 40
0.0
  9
$SKPOLY
 70
     0
  9
$TDCREATE
 40
2458732.586171921
  9
$TDUCREATE
 40
2458732.461171921
  9
$TDUPDATE
 40
2458732.586171956
  9
$TDUUPDATE
 40
2458732.461171956
  9
$TDINDWG
 40
0.0000000116
  9
$TDUSRTIMER
 40
0.0000000116
  9
$USRTIMER
 70
     1
  9
$ANGBASE
 50
0.0
  9
$ANGDIR
 70
     0
  9
$PDMODE
 70
     0
  9
$PDSIZE
 40
0.0
  9
$PLINEWID
 40
0.0
  9
$SPLFRAME
 70
     0
  9
$SPLINETYPE
 70
     6
  9
$SPLINESEGS
 70
     8
  9
$HANDSEED
  5
78
  9
$SURFTAB1
 70
     6
  9
$SURFTAB2
 70
     6
  9
$SURFTYPE
 70
     6
  9
$SURFU
 70
     6
  9
$SURFV
 70
     6
  9
$UCSBASE
  2

  9
$UCSNAME
  2

  9
$UCSORG
 10
0.0
 20
0.0
 30
0.0
  9
$UCSXDIR
 10
1.0
 20
0.0
 30
0.0
  9
$UCSYDIR
 10
0.0
 20
1.0
 30
0.0
  9
$UCSORTHOREF
  2

  9
$UCSORTHOVIEW
 70
     0
  9
$UCSORGTOP
 10
0.0
 20
0.0
 30
0.0
  9
$UCSORGBOTTOM
 10
0.0
 20
0.0
 30
0.0
  9
$UCSORGLEFT
 10
0.0
 20
0.0
 30
0.0
  9
$UCSORGRIGHT
 10
0.0
 20
0.0
 30
0.0
  9
$UCSORGFRONT
 10
0.0
 20
0.0
 30
0.0
  9
$UCSORGBACK
 10
0.0
 20
0.0
 30
0.0
  9
$PUCSBASE
  2

  9
$PUCSNAME
  2

  9
$PUCSORG
 10
0.0
 20
0.0
 30
0.0
  9
$PUCSXDIR
 10
1.0
 20
0.0
 30
0.0
  9
$PUCSYDIR
 10
0.0
 20
1.0
 30
0.0
  9
$PUCSORTHOREF
  2

  9
$PUCSORTHOVIEW
 70
     0
  9
$PUCSORGTOP
 10
0.0
 20
0.0
 30
0.0
  9
$PUCSORGBOTTOM
 10
0.0
 20
0.0
 30
0.0
  9
$PUCSORGLEFT
 10
0.0
 20
0.0
 30
0.0
  9
$PUCSORGRIGHT
 10
0.0
 20
0.0
 30
0.0
  9
$PUCSORGFRONT
 10
0.0
 20
0.0
 30
0.0
  9
$PUCSORGBACK
 10
0.0
 20
0.0
 30
0.0
  9
$USERI1
 70
     0
  9
$USERI2
 70
     0
  9
$USERI3
 70
     0
  9
$USERI4
 70
     0
  9
$USERI5
 70
     0
  9
$USERR1
 40
0.0
  9
$USERR2
 40
0.0
  9
$USERR3
 40
0.0
  9
$USERR4
 40
0.0
  9
$USERR5
 40
0.0
  9
$WORLDVIEW
 70
     1
  9
$SHADEDGE
 70
     3
  9
$SHADEDIF
 70
    70
  9
$TILEMODE
 70
     1
  9
$MAXACTVP
 70
    64
  9
$PINSBASE
 10
0.0
 20
0.0
 30
0.0
  9
$PLIMCHECK
 70
     0
  9
$PEXTMIN
 10
1.000000000000000E+20
 20
1.000000000000000E+20
 30
1.000000000000000E+20
  9
$PEXTMAX
 10
-1.000000000000000E+20
 20
-1.000000000000000E+20
 30
-1.000000000000000E+20
  9
$PLIMMIN
 10
0.0
 20
0.0
  9
$PLIMMAX
 10
12.0
 20
9.0
  9
$UNITMODE
 70
     0
  9
$VISRETAIN
 70
     1
  9
$PLINEGEN
 70
     0
  9
$PSLTSCALE
 70
     1
  9
$TREEDEPTH
 70
  3020
  9
$CMLSTYLE
  2
Standard
  9
$CMLJUST
 70
     0
  9
$CMLSCALE
 40
1.0
  9
$PROXYGRAPHICS
 70
     1
  9
$MEASUREMENT
 70
     0
  9
$CELWEIGHT
370
    -1
  9
$ENDCAPS
280
     0
  9
$JOINSTYLE
280
     0
  9
$LWDISPLAY
290
     1
  9
$INSUNITS
 70
     1
  9
$HYPERLINKBASE
  1

  9
$STYLESHEET
  1

  9
$XEDIT
290
     1
  9
$CEPSNTYPE
380
     0
  9
$PSTYLEMODE
290
     1
  9
$FINGERPRINTGUID
  2
{E22DC47D-D17D-4A27-8FEE-F11117031415}
  9
$VERSIONGUID
  2
{FAEB1C32-E019-11D5-929B-00C0DF256EC4}
  9
$EXTNAMES
290
     1
  9
$PSVPSCALE
 40
0.0
  9
$OLESTARTUP
290
     0
  9
$SORTENTS
280
   127
  9
$INDEXCTL
280
     0
  9
$HIDETEXT
280
     1
  9
$XCLIPFRAME
280
     2
  9
$HALOGAP
280
     0
  9
$OBSCOLOR
 70
   257
  9
$OBSLTYPE
280
     0
  9
$INTERSECTIONDISPLAY
280
     0
  9
$INTERSECTIONCOLOR
 70
   257
  9
$DIMASSOC
280
     2
  9
$PROJECTNAME
  1

  9
$CAMERADISPLAY
290
     0
  9
$LENSLENGTH
 40
50.0
  9
$CAMERAHEIGHT
 40
0.0
  9
$STEPSPERSEC
 40
2.0
  9
$STEPSIZE
 40
6.0
  9
$3DDWFPREC
 40
2.0
  9
$PSOLWIDTH
 40
0.25
  9
$PSOLHEIGHT
 40
4.0
  9
$LOFTANG1
 40
1.570796326794897
  9
$LOFTANG2
 40
1.570796326794897
  9
$LOFTMAG1
 40
0.0
  9
$LOFTMAG2
 40
0.0
  9
$LOFTPARAM
 70
     7
  9
$LOFTNORMALS
280
     1
  9
$LATITUDE
 40
37.795
  9
$LONGITUDE
 40
-122.394
  9
$NORTHDIRECTION
 40
0.0
  9
$TIMEZONE
 70
 -8000
  9
$LIGHTGLYPHDISPLAY
280
     1
  9
$TILEMODELIGHTSYNCH
280
     1
  9
$CMATERIAL
347
3C
  9
$SOLIDHIST
280
     1
  9
$SHOWHIST
280
     1
  9
$DWFFRAME
280
     2
  9
$DGNFRAME
280
     2
  9
$REALWORLDSCALE
290
     1
  9
$INTERFERECOLOR
 62
   256
  9
$CSHADOW
280
     0
  9
$SHADOWPLANELOCATION
 40
0.0
  0
ENDSEC
  0
SECTION
  2
CLASSES
  0
CLASS
  1
ACDBDICTIONARYWDFLT
  2
AcDbDictionaryWithDefault
  3
ObjectDBX Classes
 90
        0
 91
        4
280
     0
281
     0
  0
CLASS
  1
VISUALSTYLE
  2
AcDbVisualStyle
  3
ObjectDBX Classes
 90
     4095
 91
        4
280
     0
281
     0
  0
CLASS
  1
MATERIAL
  2
AcDbMaterial
  3
ObjectDBX Classes
 90
     1153
 91
        4
280
     0
281
     0
  0
CLASS
  1
SUN
  2
AcDbSun
  3
SCENEOE
 90
     1024
 91
        4
280
     0
281
     0
  0
ENDSEC
  0
SECTION
  2
TABLES
  0
TABLE
  2
VPORT
  5
8
330
0
100
AcDbSymbolTable
 70
     1
  0
VPORT
  5
29
330
8
100
AcDbSymbolTableRecord
100
AcDbViewportTableRecord
  2
*Active
 70
     0
 10
0.0
 20
0.0
 11
1.0
 21
1.0
 12
0.0
 22
0.0
 13
0.0
 23
0.0
 14
0.5
 24
0.5
 15
0.5
 25
0.5
 16
0.0
 26
0.0
 36
1.0
 17
375.0
 27
-375.0
 37
0.0
 40
750.0
 41
1.0
 42
50.0
 43
0.0
 44
0.0
 50
0.0
 51
0.0
 71
     0
 72
   100
 73
     1
 74
     3
 75
     0
 76
     0
 77
     0
 78
     0
281
     0
 65
     1
110
0.0
120
0.0
130
0.0
111
1.0
121
0.0
131
0.0
112
0.0
122
1.0
132
0.0
 79
     0
146
0.0
 60
     3
 61
     5
292
     1
282
     1
141
0.0
142
0.0
 63
   250
361
3F
  0
ENDTAB
  0
TABLE
  2
LTYPE
  5
5
330
0
100
AcDbSymbolTable
 70
     1
  0
LTYPE
  5
14
330
5
100
AcDbSymbolTableRecord
100
AcDbLinetypeTableRecord
  2
ByBlock
 70
     0
  3

 72
    65
 73
     0
 40
0.0
  0
LTYPE
  5
15
330
5
100
AcDbSymbolTableRecord
100
AcDbLinetypeTableRecord
  2
ByLayer
 70
     0
  3

 72
    65
 73
     0
 40
0.0
  0
LTYPE
  5
16
330
5
100
AcDbSymbolTableRecord
100
AcDbLinetypeTableRecord
  2
Continuous
 70
     0
  3
Solid line
 72
    65
 73
     0
 40
0.0
  0
ENDTAB
  0
TABLE
  2
LAYER
  5
2
330
0
100
AcDbSymbolTable
 70
     2
  0
LAYER
  5
10
330
2
100
AcDbSymbolTableRecord
100
AcDbLayerTableRecord
  2
0
 70
     0
 62
     7
  6
Continuous
370
    -3
390
F
347
3E
  0
LAYER
  5
40
330
2
100
AcDbSymbolTableRecord
100
AcDbLayerTableRecord
  2
Layer 1
 70
     0
 62
     7
  6
Continuous
370
    -3
390
F
347
3E
  0
ENDTAB
  0
TABLE
  2
STYLE
  5
3
330
0
100
AcDbSymbolTable
 70
     1
  0
STYLE
  5
11
330
3
100
AcDbSymbolTableRecord
100
AcDbTextStyleTableRecord
  2
Standard
 70
     0
 40
0.0
 41
1.0
 50
0.0
 71
     0
 42
0.2
  3
txt
  4

  0
ENDTAB
  0
TABLE
  2
VIEW
  5
6
330
0
100
AcDbSymbolTable
 70
     0
  0
ENDTAB
  0
TABLE
  2
UCS
  5
7
330
0
100
AcDbSymbolTable
 70
     0
  0
ENDTAB
  0
TABLE
  2
APPID
  5
9
330
0
100
AcDbSymbolTable
 70
     1
  0
APPID
  5
12
330
9
100
AcDbSymbolTableRecord
100
AcDbRegAppTableRecord
  2
ACAD
 70
     0
  0
ENDTAB
  0
TABLE
  2
DIMSTYLE
  5
A
330
0
100
AcDbSymbolTable
 70
     1
100
AcDbDimStyleTable
  0
DIMSTYLE
105
27
330
A
100
AcDbSymbolTableRecord
100
AcDbDimStyleTableRecord
  2
Standard
 70
     0
178
     0
340
11
  0
ENDTAB
  0
TABLE
  2
BLOCK_RECORD
  5
1
330
0
100
AcDbSymbolTable
 70
     7
  0
BLOCK_RECORD
  5
1F
330
1
100
AcDbSymbolTableRecord
100
AcDbBlockTableRecord
  2
*Model_Space
340
22
 70
     0
280
     1
281
     0
  0
BLOCK_RECORD
  5
1B
330
1
100
AcDbSymbolTableRecord
100
AcDbBlockTableRecord
  2
*Paper_Space
340
1E
 70
     0
280
     1
281
     0
  0
BLOCK_RECORD
  5
23
330
1
100
AcDbSymbolTableRecord
100
AcDbBlockTableRecord
  2
*Paper_Space0
340
26
 70
     0
280
     1
281
     0
  0
BLOCK_RECORD
  5
41
330
1
100
AcDbSymbolTableRecord
100
AcDbBlockTableRecord
  2
block 2
340
0
102
{BLKREFS
331
42
102
}
 70
     0
280
     1
281
     0
  0
BLOCK_RECORD
  5
56
330
1
100
AcDbSymbolTableRecord
100
AcDbBlockTableRecord
  2
block 3
340
0
102
{BLKREFS
331
57
102
}
 70
     0
280
     1
281
     0
  0
BLOCK_RECORD
  5
5D
330
1
100
AcDbSymbolTableRecord
100
AcDbBlockTableRecord
  2
block 4
340
0
102
{BLKREFS
331
5E
102
}
 70
     0
280
     1
281
     0
  0
BLOCK_RECORD
  5
63
330
1
100
AcDbSymbolTableRecord
100
AcDbBlockTableRecord
  2
block 5
340
0
102
{BLKREFS
331
64
102
}
 70
     0
280
     1
281
     0
  0
BLOCK_RECORD
  5
69
330
1
100
AcDbSymbolTableRecord
100
AcDbBlockTableRecord
  2
block 6
340
0
102
{BLKREFS
331
6A
102
}
 70
     0
280
     1
281
     0
  0
BLOCK_RECORD
  5
6F
330
1
100
AcDbSymbolTableRecord
100
AcDbBlockTableRecord
  2
block 7
340
0
102
{BLKREFS
331
70
102
}
 70
     0
280
     1
281
     0
  0
ENDTAB
  0
ENDSEC
  0
SECTION
  2
BLOCKS
  0
BLOCK
  5
20
330
1F
100
AcDbEntity
  8
0
100
AcDbBlockBegin
  2
*Model_Space
 70
     0
 10
0.0
 20
0.0
 30
0.0
  3
*Model_Space
  1

  0
ENDBLK
  5
21
330
1F
100
AcDbEntity
  8
0
100
AcDbBlockEnd
  0
BLOCK
  5
1C
330
1B
100
AcDbEntity
 67
     1
  8
0
100
AcDbBlockBegin
  2
*Paper_Space
 70
     0
 10
0.0
 20
0.0
 30
0.0
  3
*Paper_Space
  1

  0
ENDBLK
  5
1D
330
1B
100
AcDbEntity
 67
     1
  8
0
100
AcDbBlockEnd
  0
BLOCK
  5
24
330
23
100
AcDbEntity
  8
0
100
AcDbBlockBegin
  2
*Paper_Space0
 70
     0
 10
0.0
 20
0.0
 30
0.0
  3
*Paper_Space0
  1

  0
ENDBLK
  5
25
330
23
100
AcDbEntity
  8
0
100
AcDbBlockEnd
  0
BLOCK
  5
43
330
41
100
AcDbEntity
  8
0
100
AcDbBlockBegin
  2
block 2
 70
     0
 10
0.0
 20
0.0
 30
0.0
  3
block 2
  1

  0
SPLINE
  5
45
330
41
100
AcDbEntity
  8
Layer 1
370
     0
100
AcDbSpline
210
0.0
220
0.0
230
1.0
 70
    11
 71
     3
 72
    92
 73
    88
 74
     0
 42
0.0000000001
 43
0.0000000001
 12
1.0
 22
0.0
 32
0.0
 13
1.0
 23
0.0
 33
0.0
 40
0.0
 40
0.0
 40
0.0
 40
0.0
 40
1.0
 40
1.0
 40
1.0
 40
2.0
 40
2.0
 40
2.0
 40
3.0
 40
3.0
 40
3.0
 40
4.0
 40
4.0
 40
4.0
 40
5.0
 40
5.0
 40
5.0
 40
6.0
 40
6.0
 40
6.0
 40
7.0
 40
7.0
 40
7.0
 40
8.0
 40
8.0
 40
8.0
 40
9.0
 40
9.0
 40
9.0
 40
10.0
 40
10.0
 40
10.0
 40
11.0
 40
11.0
 40
11.0
 40
12.0
 40
12.0
 40
12.0
 40
13.0
 40
13.0
 40
13.0
 40
14.0
 40
14.0
 40
14.0
 40
15.0
 40
15.0
 40
15.0
 40
16.0
 40
16.0
 40
16.0
 40
17.0
 40
17.0
 40
17.0
 40
18.0
 40
18.0
 40
18.0
 40
19.0
 40
19.0
 40
19.0
 40
20.0
 40
20.0
 40
20.0
 40
21.0
 40
21.0
 40
21.0
 40
22.0
 40
22.0
 40
22.0
 40
23.0
 40
23.0
 40
23.0
 40
24.0
 40
24.0
 40
24.0
 40
25.0
 40
25.0
 40
25.0
 40
26.0
 40
26.0
 40
26.0
 40
27.0
 40
27.0
 40
27.0
 40
28.0
 40
28.0
 40
28.0
 40
29.0
 40
29.0
 40
29.0
 40
29.0
 10
587.0054851709938
 20
-652.4750000000004
 30
0.0
 10
562.1797857981437
 20
-652.4164999999994
 30
0.0
 10
537.3540864252936
 20
-652.3636000000006
 30
0.0
 10
512.5282870524461
 20
-652.3192999999992
 30
0.0
 10
463.8704882816455
 20
-652.2325000000001
 30
0.0
 10
415.2126895108449
 20
-652.1782999999996
 30
0.0
 10
366.5547907400469
 20
-652.1782999999996
 30
0.0
 10
305.7118922770678
 20
-652.1782999999996
 30
0.0
 10
244.8398938148239
 20
-653.2536999999993
 30
0.0
 10
184.0033953516831
 20
-652.1661000000004
 30
0.0
 10
143.5753963729803
 20
-651.4434000000001
 30
0.0
 10
161.9402959090439
 20
-625.6762999999992
 30
0.0
 10
159.7027959655679
 20
-598.1625999999997
 30
0.0
 10
157.6451960175473
 20
-572.8608000000004
 30
0.0
 10
138.6130000000003
 20
-555.1429000000007
 30
0.0
 10
131.0845966885245
 20
-532.9411999999993
 30
0.0
 10
107.8362972758259
 20
-464.3806000000004
 30
0.0
 10
164.4710958451105
 20
-329.6491999999998
 30
0.0
 10
164.4710958451105
 20
-329.6491999999998
 30
0.0
 10
164.4710958451105
 20
-329.6491999999998
 30
0.0
 10
151.8820961631354
 20
-317.0601999999999
 30
0.0
 10
151.8820961631354
 20
-317.0601999999999
 30
0.0
 10
139.6840964712828
 20
-304.8621999999996
 30
0.0
 10
129.0872967389805
 20
-291.1782999999996
 30
0.0
 10
120.3331969601277
 20
-276.3139000000001
 30
0.0
 10
98.94620000000032
 20
-239.9992000000002
 30
0.0
 10
57.46180000000004
 20
-169.7615999999998
 30
0.0
 10
42.25590000000011
 20
-145.4321
 30
0.0
 10
35.6275999999998
 20
-134.8269
 30
0.0
 10
30.3094000000001
 20
-121.5504000000001
 30
0.0
 10
32.5009
 20
-108.7722999999996
 30
0.0
 10
33.30590000000029
 20
-104.0785999999998
 30
0.0
 10
35.89660000000003
 20
-99.43069999999989
 30
0.0
 10
40.19729999999981
 20
-97.38550000000032
 30
0.0
 10
42.84799999999996
 20
-96.1248999999998
 30
0.0
 10
45.87169999999969
 20
-95.95449999999983
 30
0.0
 10
48.80649999999969
 20
-95.90110000000004
 30
0.0
 10
57.61660000000029
 20
-95.74129999999968
 30
0.0
 10
65.72220000000016
 20
-96.53359999999975
 30
0.0
 10
74.49240000000009
 20
-98.14400000000023
 30
0.0
 10
116.1693970653141
 20
-105.7968000000001
 30
0.0
 10
156.1522960552611
 20
-122.5717000000004
 30
0.0
 10
190.8025951799209
 20
-146.9639999999999
 30
0.0
 10
227.0458942643381
 20
-172.4777000000004
 30
0.0
 10
262.5105933684245
 20
-198.3666000000003
 30
0.0
 10
293.8403925769671
 20
-230.0883999999996
 30
0.0
 10
329.0145916883921
 20
-221.7421000000004
 30
0.0
 10
461.3647883449448
 20
-226.5114999999996
 30
0.0
 10
461.3647883449448
 20
-226.5114999999996
 30
0.0
 10
471.8265880806575
 20
-220.6481999999996
 30
0.0
 10
482.5788878090316
 20
-215.3038999999999
 30
0.0
 10
493.3921875358647
 20
-210.1239999999998
 30
0.0
 10
525.2574867308795
 20
-194.8595999999998
 30
0.0
 10
557.8576859073291
 20
-181.0639000000001
 30
0.0
 10
590.7313850768696
 20
-168.1286
 30
0.0
 10
620.5932843224946
 20
-156.3783000000003
 30
0.0
 10
651.53108354094
 20
-143.2479999999996
 30
0.0
 10
683.2508827396305
 20
-137.7682000000004
 30
0.0
 10
690.5032825564194
 20
-136.5153
 30
0.0
 10
698.2175823615398
 20
-136.3181999999997
 30
0.0
 10
704.9620821911594
 20
-139.2644
 30
0.0
 10
717.3506818781971
 20
-144.6760999999997
 30
0.0
 10
717.6948818695018
 20
-159.6980000000003
 30
0.0
 10
717.9480818631055
 20
-171.2885999999999
 30
0.0
 10
718.5876818469478
 20
-200.5649000000003
 30
0.0
 10
713.4275819773029
 20
-219.9322000000002
 30
0.0
 10
695.9580824186196
 20
-243.1620000000003
 30
0.0
 10
677.8687828755938
 20
-267.2157999999999
 30
0.0
 10
660.3780000000006
 20
-291.7817999999997
 30
0.0
 10
640.4744838202532
 20
-314.4007000000001
 30
0.0
 10
637.8444838866926
 20
-317.3896000000004
 30
0.0
 10
603.8570847452866
 20
-352.7147000000004
 30
0.0
 10
600.7786848230535
 20
-347.7169000000004
 30
0.0
 10
620.1085843347391
 20
-379.0992000000006
 30
0.0
 10
626.4627841742185
 20
-417.5949000000001
 30
0.0
 10
634.8434839625043
 20
-452.9398999999994
 30
0.0
 10
643.7770837368225
 20
-490.6167999999998
 30
0.0
 10
651.847883532937
 20
-528.5396000000001
 30
0.0
 10
657.1211833997222
 20
-566.9207999999999
 30
0.0
 10
659.9590000000007
 20
-587.5761000000002
 30
0.0
 10
668.460183113275
 20
-616.2564999999995
 30
0.0
 10
665.0154832002954
 20
-636.9424999999992
 30
0.0
 10
663.7097832332802
 20
-644.7744000000002
 30
0.0
 10
658.100483374983
 20
-649.027
 30
0.0
 10
650.6233835638704
 20
-651.2235000000001
 30
0.0
 10
631.390184049742
 20
-656.8737000000001
 30
0.0
 10
606.8436846698387
 20
-652.5216999999993
 30
0.0
 10
587.0054851709938
 20
-652.4750000000004
 30
0.0
  0
SPLINE
  5
46
330
41
100
AcDbEntity
  8
Layer 1
370
     0
100
AcDbSpline
210
0.0
220
0.0
230
1.0
 70
    11
 71
     3
 72
   113
 73
   109
 74
     0
 42
0.0000000001
 43
0.0000000001
 12
1.0
 22
0.0
 32
0.0
 13
1.0
 23
0.0
 33
0.0
 40
0.0
 40
0.0
 40
0.0
 40
0.0
 40
1.0
 40
1.0
 40
1.0
 40
2.0
 40
2.0
 40
2.0
 40
3.0
 40
3.0
 40
3.0
 40
4.0
 40
4.0
 40
4.0
 40
5.0
 40
5.0
 40
5.0
 40
6.0
 40
6.0
 40
6.0
 40
7.0
 40
7.0
 40
7.0
 40
8.0
 40
8.0
 40
8.0
 40
9.0
 40
9.0
 40
9.0
 40
10.0
 40
10.0
 40
10.0
 40
11.0
 40
11.0
 40
11.0
 40
12.0
 40
12.0
 40
12.0
 40
13.0
 40
13.0
 40
13.0
 40
14.0
 40
14.0
 40
14.0
 40
15.0
 40
15.0
 40
15.0
 40
16.0
 40
16.0
 40
16.0
 40
17.0
 40
17.0
 40
17.0
 40
18.0
 40
18.0
 40
18.0
 40
19.0
 40
19.0
 40
19.0
 40
20.0
 40
20.0
 40
20.0
 40
21.0
 40
21.0
 40
21.0
 40
22.0
 40
22.0
 40
22.0
 40
23.0
 40
23.0
 40
23.0
 40
24.0
 40
24.0
 40
24.0
 40
25.0
 40
25.0
 40
25.0
 40
26.0
 40
26.0
 40
26.0
 40
27.0
 40
27.0
 40
27.0
 40
28.0
 40
28.0
 40
28.0
 40
29.0
 40
29.0
 40
29.0
 40
30.0
 40
30.0
 40
30.0
 40
31.0
 40
31.0
 40
31.0
 40
32.0
 40
32.0
 40
32.0
 40
33.0
 40
33.0
 40
33.0
 40
34.0
 40
34.0
 40
34.0
 40
35.0
 40
35.0
 40
35.0
 40
36.0
 40
36.0
 40
36.0
 40
36.0
 10
644.0651837295445
 20
-629.4977999999992
 30
0.0
 10
644.0651837295445
 20
-629.4977999999992
 30
0.0
 10
179.5801954634226
 20
-629.4977999999992
 30
0.0
 10
179.5801954634226
 20
-629.4977999999992
 30
0.0
 10
183.4916953646098
 20
-619.3081000000002
 30
0.0
 10
188.5445952369628
 20
-595.6137999999992
 30
0.0
 10
188.2450952445288
 20
-592.7528999999995
 30
0.0
 10
187.4555952644732
 20
-585.2109999999993
 30
0.0
 10
183.4445953657996
 20
-578.3678999999993
 30
0.0
 10
179.5653954637964
 20
-571.75
 30
0.0
 10
177.9121955055598
 20
-568.9292999999998
 30
0.0
 10
176.3515955449839
 20
-566.2656999999999
 30
0.0
 10
175.0844955769935
 20
-563.6301000000003
 30
0.0
 10
171.4104956698066
 20
-555.9869999999992
 30
0.0
 10
167.8238957604117
 20
-548.1324999999997
 30
0.0
 10
164.3550958480409
 20
-540.5365999999995
 30
0.0
 10
162.7516958885462
 20
-537.0241999999998
 30
0.0
 10
161.148395929049
 20
-533.5135000000009
 30
0.0
 10
159.5300959699307
 20
-530.0080999999991
 30
0.0
 10
128.2460000000001
 20
-462.2225999999991
 30
0.0
 10
195.4777950618154
 20
-325.3365000000003
 30
0.0
 10
196.1606950445639
 20
-323.9619000000002
 30
0.0
 10
196.1606950445639
 20
-323.9619000000002
 30
0.0
 10
197.0767950214213
 20
-322.1184000000003
 30
0.0
 10
197.0767950214213
 20
-322.1184000000003
 30
0.0
 10
197.0767950214213
 20
-322.1184000000003
 30
0.0
 10
195.532795060426
 20
-320.7560999999996
 30
0.0
 10
195.532795060426
 20
-320.7560999999996
 30
0.0
 10
160.4592959464571
 20
-289.8098
 30
0.0
 10
128.8650967445938
 20
-249.0617000000002
 30
0.0
 10
96.10329999999976
 20
-192.5209000000004
 30
0.0
 10
88.26900000000023
 20
-179.0003999999999
 30
0.0
 10
80.72890000000007
 20
-165.3927000000003
 30
0.0
 10
73.6926999999996
 20
-152.0766000000003
 30
0.0
 10
69.44589999999971
 20
-144.0379000000003
 30
0.0
 10
65.92389999999978
 20
-136.4979000000003
 30
0.0
 10
62.92500000000018
 20
-129.0258999999996
 30
0.0
 10
62.68389999999999
 20
-128.4251000000004
 30
0.0
 10
61.96079999999984
 20
-125.8244000000004
 30
0.0
 10
61.26040000000012
 20
-123.3092999999999
 30
0.0
 10
60.09460000000036
 20
-119.1192000000001
 30
0.0
 10
59.20910000000003
 20
-116.0321000000004
 30
0.0
 10
58.49210000000039
 20
-113.7466999999997
 30
0.0
 10
204.8001948263118
 20
-159.8953000000001
 30
0.0
 10
283.0093928505812
 20
-253.7618000000002
 30
0.0
 10
283.7917928308161
 20
-254.7163
 30
0.0
 10
283.7917928308161
 20
-254.7163
 30
0.0
 10
284.8921928030177
 20
-256.0586000000003
 30
0.0
 10
284.8921928030177
 20
-256.0586000000003
 30
0.0
 10
284.8921928030177
 20
-256.0586000000003
 30
0.0
 10
286.5662927607264
 20
-255.6062000000002
 30
0.0
 10
286.5662927607264
 20
-255.6062000000002
 30
0.0
 10
351.4698911211235
 20
-238.0634
 30
0.0
 10
465.9226882298026
 20
-251.9593000000004
 30
0.0
 10
467.0710882007916
 20
-252.1017000000002
 30
0.0
 10
467.0710882007916
 20
-252.1017000000002
 30
0.0
 10
467.9364881789297
 20
-252.2091
 30
0.0
 10
467.9364881789297
 20
-252.2091
 30
0.0
 10
467.9364881789297
 20
-252.2091
 30
0.0
 10
468.6997881596471
 20
-251.7864
 30
0.0
 10
468.6997881596471
 20
-251.7864
 30
0.0
 10
551.6002860654044
 20
-205.9094000000005
 30
0.0
 10
675.5650829337901
 20
-164.6031999999996
 30
0.0
 10
697.6131823768083
 20
-157.4116000000004
 30
0.0
 10
697.6682823754163
 20
-164.3500000000004
 30
0.0
 10
697.0840000000007
 20
-171.3380999999999
 30
0.0
 10
696.5154824045385
 20
-178.1270999999997
 30
0.0
 10
696.309382409745
 20
-180.5906999999997
 30
0.0
 10
696.1032824149515
 20
-183.0551999999998
 30
0.0
 10
695.9251824194507
 20
-185.5249000000003
 30
0.0
 10
694.4806824559419
 20
-205.4955
 30
0.0
 10
681.4877827841701
 20
-223.5421999999999
 30
0.0
 10
670.0239999999994
 20
-239.4642000000003
 30
0.0
 10
670.0239999999994
 20
-239.4642000000003
 30
0.0
 10
668.3009999999995
 20
-241.8595999999998
 30
0.0
 10
668.3009999999995
 20
-241.8595999999998
 30
0.0
 10
646.7094836627439
 20
-271.9317000000001
 30
0.0
 10
624.683184219175
 20
-296.2224999999999
 30
0.0
 10
600.9643848183623
 20
-316.1197000000002
 30
0.0
 10
597.6030849032759
 20
-318.9395999999997
 30
0.0
 10
593.8740849974783
 20
-321.9525000000003
 30
0.0
 10
589.2263851148891
 20
-325.6036999999997
 30
0.0
 10
586.9435851725575
 20
-327.3984
 30
0.0
 10
583.9254852488011
 20
-329.7466999999997
 30
0.0
 10
580.8304853269874
 20
-331.9979999999996
 30
0.0
 10
579.0270853725451
 20
-333.3089
 30
0.0
 10
574.5260854862499
 20
-335.7654000000002
 30
0.0
 10
572.9436855262247
 20
-336.6012000000001
 30
0.0
 10
572.9436855262247
 20
-336.6012000000001
 30
0.0
 10
570.045185599447
 20
-338.1320999999998
 30
0.0
 10
570.045185599447
 20
-338.1320999999998
 30
0.0
 10
570.045185599447
 20
-338.1320999999998
 30
0.0
 10
572.1192855470508
 20
-340.6707999999999
 30
0.0
 10
572.1192855470508
 20
-340.6707999999999
 30
0.0
 10
572.1804855455048
 20
-340.7449999999999
 30
0.0
 10
578.2341853925755
 20
-348.1637000000001
 30
0.0
 10
580.7876853280686
 20
-352.0953
 30
0.0
 10
591.853285048528
 20
-369.1351000000004
 30
0.0
 10
597.8737848964374
 20
-389.0715999999993
 30
0.0
 10
601.8821847951767
 20
-404.5360000000001
 30
0.0
 10
604.917784718491
 20
-416.2451999999994
 30
0.0
 10
607.3795846563007
 20
-428.3245999999999
 30
0.0
 10
609.7602845961592
 20
-440.0059000000001
 30
0.0
 10
611.0841845627147
 20
-446.5015000000003
 30
0.0
 10
612.452584528146
 20
-453.2188999999998
 30
0.0
 10
613.9075844913896
 20
-459.8140999999996
 30
0.0
 10
625.572184196717
 20
-512.6800999999996
 30
0.0
 10
635.7146839404959
 20
-569.7518999999993
 30
0.0
 10
644.0651837295445
 20
-629.4977999999992
 30
0.0
  0
HATCH
  5
47
330
41
100
AcDbEntity
  8
Layer 1
 62
    43
420
 15448892
100
AcDbHatch
 10
0.0
 20
0.0
 30
0.0
210
0.0
220
0.0
230
1.0
  2
SOLID
 70
     1
 71
     0
 91
        1
 92
        1
 93
        1
 72
     4
 94
        3
 73
     0
 74
     1
 95
      113
 96
      109
 40
0.0
 40
0.0
 40
0.0
 40
0.0
 40
1.0
 40
1.0
 40
1.0
 40
2.0
 40
2.0
 40
2.0
 40
3.0
 40
3.0
 40
3.0
 40
4.0
 40
4.0
 40
4.0
 40
5.0
 40
5.0
 40
5.0
 40
6.0
 40
6.0
 40
6.0
 40
7.0
 40
7.0
 40
7.0
 40
8.0
 40
8.0
 40
8.0
 40
9.0
 40
9.0
 40
9.0
 40
10.0
 40
10.0
 40
10.0
 40
11.0
 40
11.0
 40
11.0
 40
12.0
 40
12.0
 40
12.0
 40
13.0
 40
13.0
 40
13.0
 40
14.0
 40
14.0
 40
14.0
 40
15.0
 40
15.0
 40
15.0
 40
16.0
 40
16.0
 40
16.0
 40
17.0
 40
17.0
 40
17.0
 40
18.0
 40
18.0
 40
18.0
 40
19.0
 40
19.0
 40
19.0
 40
20.0
 40
20.0
 40
20.0
 40
21.0
 40
21.0
 40
21.0
 40
22.0
 40
22.0
 40
22.0
 40
23.0
 40
23.0
 40
23.0
 40
24.0
 40
24.0
 40
24.0
 40
25.0
 40
25.0
 40
25.0
 40
26.0
 40
26.0
 40
26.0
 40
27.0
 40
27.0
 40
27.0
 40
28.0
 40
28.0
 40
28.0
 40
29.0
 40
29.0
 40
29.0
 40
30.0
 40
30.0
 40
30.0
 40
31.0
 40
31.0
 40
31.0
 40
32.0
 40
32.0
 40
32.0
 40
33.0
 40
33.0
 40
33.0
 40
34.0
 40
34.0
 40
34.0
 40
35.0
 40
35.0
 40
35.0
 40
36.0
 40
36.0
 40
36.0
 40
36.0
 10
644.0651837295445
 20
-629.4977999999992
 10
644.0651837295445
 20
-629.4977999999992
 10
179.5801954634226
 20
-629.4977999999992
 10
179.5801954634226
 20
-629.4977999999992
 10
183.4916953646098
 20
-619.3081000000002
 10
188.5445952369628
 20
-595.6137999999992
 10
188.2450952445288
 20
-592.7528999999995
 10
187.4555952644732
 20
-585.2109999999993
 10
183.4445953657996
 20
-578.3678999999993
 10
179.5653954637964
 20
-571.75
 10
177.9121955055598
 20
-568.9292999999998
 10
176.3515955449839
 20
-566.2656999999999
 10
175.0844955769935
 20
-563.6301000000003
 10
171.4104956698066
 20
-555.9869999999992
 10
167.8238957604117
 20
-548.1324999999997
 10
164.3550958480409
 20
-540.5365999999995
 10
162.7516958885462
 20
-537.0241999999998
 10
161.148395929049
 20
-533.5135000000009
 10
159.5300959699307
 20
-530.0080999999991
 10
128.2460000000001
 20
-462.2225999999991
 10
195.4777950618154
 20
-325.3365000000003
 10
196.1606950445639
 20
-323.9619000000002
 10
196.1606950445639
 20
-323.9619000000002
 10
197.0767950214213
 20
-322.1184000000003
 10
197.0767950214213
 20
-322.1184000000003
 10
197.0767950214213
 20
-322.1184000000003
 10
195.532795060426
 20
-320.7560999999996
 10
195.532795060426
 20
-320.7560999999996
 10
160.4592959464571
 20
-289.8098
 10
128.8650967445938
 20
-249.0617000000002
 10
96.10329999999976
 20
-192.5209000000004
 10
88.26900000000023
 20
-179.0003999999999
 10
80.72890000000007
 20
-165.3927000000003
 10
73.6926999999996
 20
-152.0766000000003
 10
69.44589999999971
 20
-144.0379000000003
 10
65.92389999999978
 20
-136.4979000000003
 10
62.92500000000018
 20
-129.0258999999996
 10
62.68389999999999
 20
-128.4251000000004
 10
61.96079999999984
 20
-125.8244000000004
 10
61.26040000000012
 20
-123.3092999999999
 10
60.09460000000036
 20
-119.1192000000001
 10
59.20910000000003
 20
-116.0321000000004
 10
58.49210000000039
 20
-113.7466999999997
 10
204.8001948263118
 20
-159.8953000000001
 10
283.0093928505812
 20
-253.7618000000002
 10
283.7917928308161
 20
-254.7163
 10
283.7917928308161
 20
-254.7163
 10
284.8921928030177
 20
-256.0586000000003
 10
284.8921928030177
 20
-256.0586000000003
 10
284.8921928030177
 20
-256.0586000000003
 10
286.5662927607264
 20
-255.6062000000002
 10
286.5662927607264
 20
-255.6062000000002
 10
351.4698911211235
 20
-238.0634
 10
465.9226882298026
 20
-251.9593000000004
 10
467.0710882007916
 20
-252.1017000000002
 10
467.0710882007916
 20
-252.1017000000002
 10
467.9364881789297
 20
-252.2091
 10
467.9364881789297
 20
-252.2091
 10
467.9364881789297
 20
-252.2091
 10
468.6997881596471
 20
-251.7864
 10
468.6997881596471
 20
-251.7864
 10
551.6002860654044
 20
-205.9094000000005
 10
675.5650829337901
 20
-164.6031999999996
 10
697.6131823768083
 20
-157.4116000000004
 10
697.6682823754163
 20
-164.3500000000004
 10
697.0840000000007
 20
-171.3380999999999
 10
696.5154824045385
 20
-178.1270999999997
 10
696.309382409745
 20
-180.5906999999997
 10
696.1032824149515
 20
-183.0551999999998
 10
695.9251824194507
 20
-185.5249000000003
 10
694.4806824559419
 20
-205.4955
 10
681.4877827841701
 20
-223.5421999999999
 10
670.0239999999994
 20
-239.4642000000003
 10
670.0239999999994
 20
-239.4642000000003
 10
668.3009999999995
 20
-241.8595999999998
 10
668.3009999999995
 20
-241.8595999999998
 10
646.7094836627439
 20
-271.9317000000001
 10
624.683184219175
 20
-296.2224999999999
 10
600.9643848183623
 20
-316.1197000000002
 10
597.6030849032759
 20
-318.9395999999997
 10
593.8740849974783
 20
-321.9525000000003
 10
589.2263851148891
 20
-325.6036999999997
 10
586.9435851725575
 20
-327.3984
 10
583.9254852488011
 20
-329.7466999999997
 10
580.8304853269874
 20
-331.9979999999996
 10
579.0270853725451
 20
-333.3089
 10
574.5260854862499
 20
-335.7654000000002
 10
572.9436855262247
 20
-336.6012000000001
 10
572.9436855262247
 20
-336.6012000000001
 10
570.045185599447
 20
-338.1320999999998
 10
570.045185599447
 20
-338.1320999999998
 10
570.045185599447
 20
-338.1320999999998
 10
572.1192855470508
 20
-340.6707999999999
 10
572.1192855470508
 20
-340.6707999999999
 10
572.1804855455048
 20
-340.7449999999999
 10
578.2341853925755
 20
-348.1637000000001
 10
580.7876853280686
 20
-352.0953
 10
591.853285048528
 20
-369.1351000000004
 10
597.8737848964374
 20
-389.0715999999993
 10
601.8821847951767
 20
-404.5360000000001
 10
604.917784718491
 20
-416.2451999999994
 10
607.3795846563007
 20
-428.3245999999999
 10
609.7602845961592
 20
-440.0059000000001
 10
611.0841845627147
 20
-446.5015000000003
 10
612.452584528146
 20
-453.2188999999998
 10
613.9075844913896
 20
-459.8140999999996
 10
625.572184196717
 20
-512.6800999999996
 10
635.7146839404959
 20
-569.7518999999993
 10
644.0651837295445
 20
-629.4977999999992
 97
        0
 97
        0
 75
     2
 76
     1
 98
        0
  0
SPLINE
  5
48
330
41
100
AcDbEntity
  8
Layer 1
370
     0
100
AcDbSpline
210
0.0
220
0.0
230
1.0
 70
    11
 71
     3
 72
    29
 73
    25
 74
     0
 42
0.0000000001
 43
0.0000000001
 12
1.0
 22
0.0
 32
0.0
 13
1.0
 23
0.0
 33
0.0
 40
0.0
 40
0.0
 40
0.0
 40
0.0
 40
1.0
 40
1.0
 40
1.0
 40
2.0
 40
2.0
 40
2.0
 40
3.0
 40
3.0
 40
3.0
 40
4.0
 40
4.0
 40
4.0
 40
5.0
 40
5.0
 40
5.0
 40
6.0
 40
6.0
 40
6.0
 40
7.0
 40
7.0
 40
7.0
 40
8.0
 40
8.0
 40
8.0
 40
8.0
 10
696.3462824088128
 20
-158.6291000000001
 30
0.0
 10
696.4012824074234
 20
-165.5675000000001
 30
0.0
 10
695.8170824221816
 20
-172.5555999999997
 30
0.0
 10
695.2485824365431
 20
-179.3446000000004
 30
0.0
 10
695.0424824417496
 20
-181.8082000000004
 30
0.0
 10
694.8363824469561
 20
-184.2726000000002
 30
0.0
 10
694.6581824514578
 20
-186.7422999999999
 30
0.0
 10
693.2137824879464
 20
-206.7129000000004
 30
0.0
 10
680.2207828161772
 20
-224.7596000000003
 30
0.0
 10
668.7569999999996
 20
-240.6815999999999
 30
0.0
 10
668.7569999999996
 20
-240.6815999999999
 30
0.0
 10
667.0339999999997
 20
-243.0771000000004
 30
0.0
 10
667.0339999999997
 20
-243.0771000000004
 30
0.0
 10
665.9353831770568
 20
-244.6071000000002
 30
0.0
 10
664.8350832048527
 20
-246.1120000000001
 30
0.0
 10
663.7342832326613
 20
-247.6121999999996
 30
0.0
 10
662.7111832585069
 20
-249.0020999999997
 30
0.0
 10
661.6867832843855
 20
-250.3806999999997
 30
0.0
 10
660.6615833102842
 20
-251.7491
 30
0.0
 10
675.1744829436575
 20
-219.2161999999998
 30
0.0
 10
675.5375829344848
 20
-179.9076000000005
 30
0.0
 10
675.8050000000003
 20
-163.7806
 30
0.0
 10
685.1708826911272
 20
-160.5797000000002
 30
0.0
 10
692.4792825065015
 20
-159.8905000000004
 30
0.0
 10
696.3462824088128
 20
-158.6291000000001
 30
0.0
  0
SPLINE
  5
49
330
41
100
AcDbEntity
  8
Layer 1
370
     0
100
AcDbSpline
210
0.0
220
0.0
230
1.0
 70
    11
 71
     3
 72
    44
 73
    40
 74
     0
 42
0.0000000001
 43
0.0000000001
 12
1.0
 22
0.0
 32
0.0
 13
1.0
 23
0.0
 33
0.0
 40
0.0
 40
0.0
 40
0.0
 40
0.0
 40
1.0
 40
1.0
 40
1.0
 40
2.0
 40
2.0
 40
2.0
 40
3.0
 40
3.0
 40
3.0
 40
4.0
 40
4.0
 40
4.0
 40
5.0
 40
5.0
 40
5.0
 40
6.0
 40
6.0
 40
6.0
 40
7.0
 40
7.0
 40
7.0
 40
8.0
 40
8.0
 40
8.0
 40
9.0
 40
9.0
 40
9.0
 40
10.0
 40
10.0
 40
10.0
 40
11.0
 40
11.0
 40
11.0
 40
12.0
 40
12.0
 40
12.0
 40
13.0
 40
13.0
 40
13.0
 40
13.0
 10
101.6292974326279
 20
-131.1638000000003
 30
0.0
 10
101.6279999999997
 20
-131.1634000000004
 30
0.0
 10
101.6266974326936
 20
-131.1630000000005
 30
0.0
 10
101.6253974327265
 20
-131.1624000000002
 30
0.0
 10
94.85040000000026
 20
-128.3477000000003
 30
0.0
 10
87.88450000000012
 20
-125.6235999999999
 30
0.0
 10
80.7466000000004
 20
-123.0002000000004
 30
0.0
 10
80.29939999999988
 20
-122.8360000000002
 30
0.0
 10
79.85319999999956
 20
-122.6710999999996
 30
0.0
 10
79.40480000000025
 20
-122.5078000000003
 30
0.0
 10
76.09490000000005
 20
-121.3014999999996
 30
0.0
 10
72.74669999999969
 20
-120.1180999999997
 30
0.0
 10
69.35959999999977
 20
-118.9594999999999
 30
0.0
 10
68.83520000000044
 20
-118.7802000000001
 30
0.0
 10
68.30559999999969
 20
-118.6043
 30
0.0
 10
67.77940000000035
 20
-118.4261999999999
 30
0.0
 10
64.29839999999967
 20
-117.2475999999997
 30
0.0
 10
60.78780000000006
 20
-116.0879000000004
 30
0.0
 10
57.22509999999966
 20
-114.9641000000001
 30
0.0
 10
57.94210000000021
 20
-117.2496000000001
 30
0.0
 10
58.82759999999962
 20
-120.3366999999998
 30
0.0
 10
59.99349999999959
 20
-124.5267999999996
 30
0.0
 10
60.69390000000021
 20
-127.0419000000002
 30
0.0
 10
61.41700000000037
 20
-129.6426000000001
 30
0.0
 10
61.65800000000036
 20
-130.2434000000003
 30
0.0
 10
64.65689999999995
 20
-137.7152999999998
 30
0.0
 10
68.17889999999989
 20
-145.2554
 30
0.0
 10
72.42579999999998
 20
-153.2941000000001
 30
0.0
 10
79.46200000000044
 20
-166.6102000000001
 30
0.0
 10
87.00200000000041
 20
-180.2178999999996
 30
0.0
 10
94.83640000000014
 20
-193.7383
 30
0.0
 10
96.69959999999992
 20
-196.9540999999999
 30
0.0
 10
98.55839999999989
 20
-200.1037999999999
 30
0.0
 10
100.415
 20
-203.2184999999999
 30
0.0
 10
102.2536974168543
 20
-206.2969000000003
 30
0.0
 10
104.089897370468
 20
-209.3270000000002
 30
0.0
 10
105.9237973241397
 20
-212.3150999999998
 30
0.0
 10
95.73409999999967
 20
-174.6688000000004
 30
0.0
 10
99.58539999999994
 20
-142.7624999999998
 30
0.0
 10
101.6292974326279
 20
-131.1638000000003
 30
0.0
  0
HATCH
  5
4A
330
41
100
AcDbEntity
  8
Layer 1
 62
    26
420
  8268312
100
AcDbHatch
 10
0.0
 20
0.0
 30
0.0
210
0.0
220
0.0
230
1.0
  2
SOLID
 70
     1
 71
     0
 91
        2
 92
        1
 93
        1
 72
     4
 94
        3
 73
     0
 74
     1
 95
       29
 96
       25
 40
0.0
 40
0.0
 40
0.0
 40
0.0
 40
1.0
 40
1.0
 40
1.0
 40
2.0
 40
2.0
 40
2.0
 40
3.0
 40
3.0
 40
3.0
 40
4.0
 40
4.0
 40
4.0
 40
5.0
 40
5.0
 40
5.0
 40
6.0
 40
6.0
 40
6.0
 40
7.0
 40
7.0
 40
7.0
 40
8.0
 40
8.0
 40
8.0
 40
8.0
 10
696.3462824088128
 20
-158.6291000000001
 10
696.4012824074234
 20
-165.5675000000001
 10
695.8170824221816
 20
-172.5555999999997
 10
695.2485824365431
 20
-179.3446000000004
 10
695.0424824417496
 20
-181.8082000000004
 10
694.8363824469561
 20
-184.2726000000002
 10
694.6581824514578
 20
-186.7422999999999
 10
693.2137824879464
 20
-206.7129000000004
 10
680.2207828161772
 20
-224.7596000000003
 10
668.7569999999996
 20
-240.6815999999999
 10
668.7569999999996
 20
-240.6815999999999
 10
667.0339999999997
 20
-243.0771000000004
 10
667.0339999999997
 20
-243.0771000000004
 10
665.9353831770568
 20
-244.6071000000002
 10
664.8350832048527
 20
-246.1120000000001
 10
663.7342832326613
 20
-247.6121999999996
 10
662.7111832585069
 20
-249.0020999999997
 10
661.6867832843855
 20
-250.3806999999997
 10
660.6615833102842
 20
-251.7491
 10
675.1744829436575
 20
-219.2161999999998
 10
675.5375829344848
 20
-179.9076000000005
 10
675.8050000000003
 20
-163.7806
 10
685.1708826911272
 20
-160.5797000000002
 10
692.4792825065015
 20
-159.8905000000004
 10
696.3462824088128
 20
-158.6291000000001
 97
        0
 97
        0
 92
        1
 93
        1
 72
     4
 94
        3
 73
     0
 74
     1
 95
       44
 96
       40
 40
0.0
 40
0.0
 40
0.0
 40
0.0
 40
1.0
 40
1.0
 40
1.0
 40
2.0
 40
2.0
 40
2.0
 40
3.0
 40
3.0
 40
3.0
 40
4.0
 40
4.0
 40
4.0
 40
5.0
 40
5.0
 40
5.0
 40
6.0
 40
6.0
 40
6.0
 40
7.0
 40
7.0
 40
7.0
 40
8.0
 40
8.0
 40
8.0
 40
9.0
 40
9.0
 40
9.0
 40
10.0
 40
10.0
 40
10.0
 40
11.0
 40
11.0
 40
11.0
 40
12.0
 40
12.0
 40
12.0
 40
13.0
 40
13.0
 40
13.0
 40
13.0
 10
101.6292974326279
 20
-131.1638000000003
 10
101.6279999999997
 20
-131.1634000000004
 10
101.6266974326936
 20
-131.1630000000005
 10
101.6253974327265
 20
-131.1624000000002
 10
94.85040000000026
 20
-128.3477000000003
 10
87.88450000000012
 20
-125.6235999999999
 10
80.7466000000004
 20
-123.0002000000004
 10
80.29939999999988
 20
-122.8360000000002
 10
79.85319999999956
 20
-122.6710999999996
 10
79.40480000000025
 20
-122.5078000000003
 10
76.09490000000005
 20
-121.3014999999996
 10
72.74669999999969
 20
-120.1180999999997
 10
69.35959999999977
 20
-118.9594999999999
 10
68.83520000000044
 20
-118.7802000000001
 10
68.30559999999969
 20
-118.6043
 10
67.77940000000035
 20
-118.4261999999999
 10
64.29839999999967
 20
-117.2475999999997
 10
60.78780000000006
 20
-116.0879000000004
 10
57.22509999999966
 20
-114.9641000000001
 10
57.94210000000021
 20
-117.2496000000001
 10
58.82759999999962
 20
-120.3366999999998
 10
59.99349999999959
 20
-124.5267999999996
 10
60.69390000000021
 20
-127.0419000000002
 10
61.41700000000037
 20
-129.6426000000001
 10
61.65800000000036
 20
-130.2434000000003
 10
64.65689999999995
 20
-137.7152999999998
 10
68.17889999999989
 20
-145.2554
 10
72.42579999999998
 20
-153.2941000000001
 10
79.46200000000044
 20
-166.6102000000001
 10
87.00200000000041
 20
-180.2178999999996
 10
94.83640000000014
 20
-193.7383
 10
96.69959999999992
 20
-196.9540999999999
 10
98.55839999999989
 20
-200.1037999999999
 10
100.415
 20
-203.2184999999999
 10
102.2536974168543
 20
-206.2969000000003
 10
104.089897370468
 20
-209.3270000000002
 10
105.9237973241397
 20
-212.3150999999998
 10
95.73409999999967
 20
-174.6688000000004
 10
99.58539999999994
 20
-142.7624999999998
 10
101.6292974326279
 20
-131.1638000000003
 97
        0
 97
        0
 75
     2
 76
     1
 98
        0
  0
SPLINE
  5
4B
330
41
100
AcDbEntity
  8
Layer 1
370
     0
100
AcDbSpline
210
0.0
220
0.0
230
1.0
 70
    11
 71
     3
 72
    17
 73
    13
 74
     0
 42
0.0000000001
 43
0.0000000001
 12
1.0
 22
0.0
 32
0.0
 13
1.0
 23
0.0
 33
0.0
 40
0.0
 40
0.0
 40
0.0
 40
0.0
 40
1.0
 40
1.0
 40
1.0
 40
2.0
 40
2.0
 40
2.0
 40
3.0
 40
3.0
 40
3.0
 40
4.0
 40
4.0
 40
4.0
 40
4.0
 10
303.2303923397558
 20
-381.2348999999995
 30
0.0
 10
303.2303923397558
 20
-396.6852999999992
 30
0.0
 10
293.2013925931096
 20
-409.2556000000004
 30
0.0
 10
280.8738929045285
 20
-409.2556000000004
 30
0.0
 10
268.5463932159473
 20
-409.2556000000004
 30
0.0
 10
258.5174934692986
 20
-396.6852999999992
 30
0.0
 10
258.5174934692986
 20
-381.2348999999995
 30
0.0
 10
258.5174934692986
 20
-365.7844999999998
 30
0.0
 10
268.5463932159473
 20
-353.2151000000003
 30
0.0
 10
280.8738929045285
 20
-353.2151000000003
 30
0.0
 10
293.2013925931096
 20
-353.2151000000003
 30
0.0
 10
303.2303923397558
 20
-365.7844999999998
 30
0.0
 10
303.2303923397558
 20
-381.2348999999995
 30
0.0
  0
SPLINE
  5
4C
330
41
100
AcDbEntity
  8
Layer 1
370
     0
100
AcDbSpline
210
0.0
220
0.0
230
1.0
 70
    11
 71
     3
 72
    17
 73
    13
 74
     0
 42
0.0000000001
 43
0.0000000001
 12
1.0
 22
0.0
 32
0.0
 13
1.0
 23
0.0
 33
0.0
 40
0.0
 40
0.0
 40
0.0
 40
0.0
 40
1.0
 40
1.0
 40
1.0
 40
2.0
 40
2.0
 40
2.0
 40
3.0
 40
3.0
 40
3.0
 40
4.0
 40
4.0
 40
4.0
 40
4.0
 10
487.1492876935736
 20
-353.2151000000003
 30
0.0
 10
474.8217880049924
 20
-353.2151000000003
 30
0.0
 10
464.7928882583437
 20
-365.7844999999998
 30
0.0
 10
464.7928882583437
 20
-381.2348999999995
 30
0.0
 10
464.7928882583437
 20
-396.6852999999992
 30
0.0
 10
474.8217880049924
 20
-409.2556000000004
 30
0.0
 10
487.1492876935736
 20
-409.2556000000004
 30
0.0
 10
499.4767873821547
 20
-409.2556000000004
 30
0.0
 10
509.5057871288009
 20
-396.6852999999992
 30
0.0
 10
509.5057871288009
 20
-381.2348999999995
 30
0.0
 10
509.5057871288009
 20
-365.7844999999998
 30
0.0
 10
499.4767873821547
 20
-353.2151000000003
 30
0.0
 10
487.1492876935736
 20
-353.2151000000003
 30
0.0
  0
SPLINE
  5
4D
330
41
100
AcDbEntity
  8
Layer 1
370
     0
100
AcDbSpline
210
0.0
220
0.0
230
1.0
 70
    11
 71
     3
 72
    17
 73
    13
 74
     0
 42
0.0000000001
 43
0.0000000001
 12
1.0
 22
0.0
 32
0.0
 13
1.0
 23
0.0
 33
0.0
 40
0.0
 40
0.0
 40
0.0
 40
0.0
 40
1.0
 40
1.0
 40
1.0
 40
2.0
 40
2.0
 40
2.0
 40
3.0
 40
3.0
 40
3.0
 40
4.0
 40
4.0
 40
4.0
 40
4.0
 10
367.319090720739
 20
-422.9681
 30
0.0
 10
357.4926909689748
 20
-422.9681
 30
0.0
 10
351.2224911273734
 20
-426.4107000000004
 30
0.0
 10
351.2224911273734
 20
-428.7808000000005
 30
0.0
 10
351.2224911273734
 20
-431.1509000000005
 30
0.0
 10
357.4926909689748
 20
-434.5935000000009
 30
0.0
 10
367.319090720739
 20
-434.5935000000009
 30
0.0
 10
377.1454904725033
 20
-434.5935000000009
 30
0.0
 10
383.4156903141047
 20
-431.1509000000005
 30
0.0
 10
383.4156903141047
 20
-428.7808000000005
 30
0.0
 10
383.4156903141047
 20
-426.4107000000004
 30
0.0
 10
377.1454904725033
 20
-422.9681
 30
0.0
 10
367.319090720739
 20
-422.9681
 30
0.0
  0
HATCH
  5
4E
330
41
100
AcDbEntity
  8
Layer 1
 62
    26
420
  8202776
100
AcDbHatch
 10
0.0
 20
0.0
 30
0.0
210
0.0
220
0.0
230
1.0
  2
SOLID
 70
     1
 71
     0
 91
        3
 92
        1
 93
        1
 72
     4
 94
        3
 73
     0
 74
     1
 95
       17
 96
       13
 40
0.0
 40
0.0
 40
0.0
 40
0.0
 40
1.0
 40
1.0
 40
1.0
 40
2.0
 40
2.0
 40
2.0
 40
3.0
 40
3.0
 40
3.0
 40
4.0
 40
4.0
 40
4.0
 40
4.0
 10
303.2303923397558
 20
-381.2348999999995
 10
303.2303923397558
 20
-396.6852999999992
 10
293.2013925931096
 20
-409.2556000000004
 10
280.8738929045285
 20
-409.2556000000004
 10
268.5463932159473
 20
-409.2556000000004
 10
258.5174934692986
 20
-396.6852999999992
 10
258.5174934692986
 20
-381.2348999999995
 10
258.5174934692986
 20
-365.7844999999998
 10
268.5463932159473
 20
-353.2151000000003
 10
280.8738929045285
 20
-353.2151000000003
 10
293.2013925931096
 20
-353.2151000000003
 10
303.2303923397558
 20
-365.7844999999998
 10
303.2303923397558
 20
-381.2348999999995
 97
        0
 97
        0
 92
        1
 93
        1
 72
     4
 94
        3
 73
     0
 74
     1
 95
       17
 96
       13
 40
0.0
 40
0.0
 40
0.0
 40
0.0
 40
1.0
 40
1.0
 40
1.0
 40
2.0
 40
2.0
 40
2.0
 40
3.0
 40
3.0
 40
3.0
 40
4.0
 40
4.0
 40
4.0
 40
4.0
 10
487.1492876935736
 20
-353.2151000000003
 10
474.8217880049924
 20
-353.2151000000003
 10
464.7928882583437
 20
-365.7844999999998
 10
464.7928882583437
 20
-381.2348999999995
 10
464.7928882583437
 20
-396.6852999999992
 10
474.8217880049924
 20
-409.2556000000004
 10
487.1492876935736
 20
-409.2556000000004
 10
499.4767873821547
 20
-409.2556000000004
 10
509.5057871288009
 20
-396.6852999999992
 10
509.5057871288009
 20
-381.2348999999995
 10
509.5057871288009
 20
-365.7844999999998
 10
499.4767873821547
 20
-353.2151000000003
 10
487.1492876935736
 20
-353.2151000000003
 97
        0
 97
        0
 92
        1
 93
        1
 72
     4
 94
        3
 73
     0
 74
     1
 95
       17
 96
       13
 40
0.0
 40
0.0
 40
0.0
 40
0.0
 40
1.0
 40
1.0
 40
1.0
 40
2.0
 40
2.0
 40
2.0
 40
3.0
 40
3.0
 40
3.0
 40
4.0
 40
4.0
 40
4.0
 40
4.0
 10
367.319090720739
 20
-422.9681
 10
357.4926909689748
 20
-422.9681
 10
351.2224911273734
 20
-426.4107000000004
 10
351.2224911273734
 20
-428.7808000000005
 10
351.2224911273734
 20
-431.1509000000005
 10
357.4926909689748
 20
-434.5935000000009
 10
367.319090720739
 20
-434.5935000000009
 10
377.1454904725033
 20
-434.5935000000009
 10
383.4156903141047
 20
-431.1509000000005
 10
383.4156903141047
 20
-428.7808000000005
 10
383.4156903141047
 20
-426.4107000000004
 10
377.1454904725033
 20
-422.9681
 10
367.319090720739
 20
-422.9681
 97
        0
 97
        0
 75
     2
 76
     1
 98
        0
  0
SPLINE
  5
4F
330
41
100
AcDbEntity
  8
Layer 1
370
     0
100
AcDbSpline
210
0.0
220
0.0
230
1.0
 70
    11
 71
     3
 72
    17
 73
    13
 74
     0
 42
0.0000000001
 43
0.0000000001
 12
1.0
 22
0.0
 32
0.0
 13
1.0
 23
0.0
 33
0.0
 40
0.0
 40
0.0
 40
0.0
 40
0.0
 40
1.0
 40
1.0
 40
1.0
 40
2.0
 40
2.0
 40
2.0
 40
3.0
 40
3.0
 40
3.0
 40
4.0
 40
4.0
 40
4.0
 40
4.0
 10
284.7491928066302
 20
-371.6221999999998
 30
0.0
 10
284.7491928066302
 20
-376.9313999999995
 30
0.0
 10
280.4450929153609
 20
-381.2355000000007
 30
0.0
 10
275.1358930494825
 20
-381.2355000000007
 30
0.0
 10
269.8266931836042
 20
-381.2355000000007
 30
0.0
 10
265.5225932923349
 20
-376.9313999999995
 30
0.0
 10
265.5225932923349
 20
-371.6221999999998
 30
0.0
 10
265.5225932923349
 20
-366.3128999999999
 30
0.0
 10
269.8266931836042
 20
-362.0088999999998
 30
0.0
 10
275.1358930494825
 20
-362.0088999999998
 30
0.0
 10
280.4450929153609
 20
-362.0088999999998
 30
0.0
 10
284.7491928066302
 20
-366.3128999999999
 30
0.0
 10
284.7491928066302
 20
-371.6221999999998
 30
0.0
  0
SPLINE
  5
50
330
41
100
AcDbEntity
  8
Layer 1
370
     0
100
AcDbSpline
210
0.0
220
0.0
230
1.0
 70
    11
 71
     3
 72
    17
 73
    13
 74
     0
 42
0.0000000001
 43
0.0000000001
 12
1.0
 22
0.0
 32
0.0
 13
1.0
 23
0.0
 33
0.0
 40
0.0
 40
0.0
 40
0.0
 40
0.0
 40
1.0
 40
1.0
 40
1.0
 40
2.0
 40
2.0
 40
2.0
 40
3.0
 40
3.0
 40
3.0
 40
4.0
 40
4.0
 40
4.0
 40
4.0
 10
481.4114878385226
 20
-362.0088999999998
 30
0.0
 10
476.1022879726443
 20
-362.0088999999998
 30
0.0
 10
471.798188081375
 20
-366.3128999999999
 30
0.0
 10
471.798188081375
 20
-371.6221999999998
 30
0.0
 10
471.798188081375
 20
-376.9313999999995
 30
0.0
 10
476.1022879726443
 20
-381.2355000000007
 30
0.0
 10
481.4114878385226
 20
-381.2355000000007
 30
0.0
 10
486.7208877043959
 20
-381.2355000000007
 30
0.0
 10
491.0247875956702
 20
-376.9313999999995
 30
0.0
 10
491.0247875956702
 20
-371.6221999999998
 30
0.0
 10
491.0247875956702
 20
-366.3128999999999
 30
0.0
 10
486.7208877043959
 20
-362.0088999999998
 30
0.0
 10
481.4114878385226
 20
-362.0088999999998
 30
0.0
  0
SPLINE
  5
51
330
41
100
AcDbEntity
  8
Layer 1
370
     0
100
AcDbSpline
210
0.0
220
0.0
230
1.0
 70
    11
 71
     3
 72
    17
 73
    13
 74
     0
 42
0.0000000001
 43
0.0000000001
 12
1.0
 22
0.0
 32
0.0
 13
1.0
 23
0.0
 33
0.0
 40
0.0
 40
0.0
 40
0.0
 40
0.0
 40
1.0
 40
1.0
 40
1.0
 40
2.0
 40
2.0
 40
2.0
 40
3.0
 40
3.0
 40
3.0
 40
4.0
 40
4.0
 40
4.0
 40
4.0
 10
587.3065851633874
 20
-471.7793999999994
 30
0.0
 10
587.3065851633874
 20
-490.3410999999996
 30
0.0
 10
569.8903856033576
 20
-505.3883000000005
 30
0.0
 10
548.4061861460941
 20
-505.3883000000005
 30
0.0
 10
526.9221866888256
 20
-505.3883000000005
 30
0.0
 10
509.5057871288009
 20
-490.3410999999996
 30
0.0
 10
509.5057871288009
 20
-471.7793999999994
 30
0.0
 10
509.5057871288009
 20
-453.2176999999992
 30
0.0
 10
526.9221866888256
 20
-438.1705000000002
 30
0.0
 10
548.4061861460941
 20
-438.1705000000002
 30
0.0
 10
569.8903856033576
 20
-438.1705000000002
 30
0.0
 10
587.3065851633874
 20
-453.2176999999992
 30
0.0
 10
587.3065851633874
 20
-471.7793999999994
 30
0.0
  0
SPLINE
  5
52
330
41
100
AcDbEntity
  8
Layer 1
370
     0
100
AcDbSpline
210
0.0
220
0.0
230
1.0
 70
    11
 71
     3
 72
    17
 73
    13
 74
     0
 42
0.0000000001
 43
0.0000000001
 12
1.0
 22
0.0
 32
0.0
 13
1.0
 23
0.0
 33
0.0
 40
0.0
 40
0.0
 40
0.0
 40
0.0
 40
1.0
 40
1.0
 40
1.0
 40
2.0
 40
2.0
 40
2.0
 40
3.0
 40
3.0
 40
3.0
 40
4.0
 40
4.0
 40
4.0
 40
4.0
 10
209.7060000000001
 20
-438.1705000000002
 30
0.0
 10
189.8270952045641
 20
-438.1705000000002
 30
0.0
 10
173.7118956116683
 20
-452.1167000000005
 30
0.0
 10
173.7118956116683
 20
-469.3202000000001
 30
0.0
 10
173.7118956116683
 20
-486.5236999999997
 30
0.0
 10
189.8270952045641
 20
-500.4699000000001
 30
0.0
 10
209.7060000000001
 20
-500.4699000000001
 30
0.0
 10
229.5850942001925
 20
-500.4699000000001
 30
0.0
 10
245.7000937930934
 20
-486.5236999999997
 30
0.0
 10
245.7000937930934
 20
-469.3202000000001
 30
0.0
 10
245.7000937930934
 20
-452.1167000000005
 30
0.0
 10
229.5850942001925
 20
-438.1705000000002
 30
0.0
 10
209.7060000000001
 20
-438.1705000000002
 30
0.0
  0
HATCH
  5
53
330
41
100
AcDbEntity
  8
Layer 1
 62
    32
420
 13457191
100
AcDbHatch
 10
0.0
 20
0.0
 30
0.0
210
0.0
220
0.0
230
1.0
  2
SOLID
 70
     1
 71
     0
 91
        2
 92
        1
 93
        1
 72
     4
 94
        3
 73
     0
 74
     1
 95
       17
 96
       13
 40
0.0
 40
0.0
 40
0.0
 40
0.0
 40
1.0
 40
1.0
 40
1.0
 40
2.0
 40
2.0
 40
2.0
 40
3.0
 40
3.0
 40
3.0
 40
4.0
 40
4.0
 40
4.0
 40
4.0
 10
587.3065851633874
 20
-471.7793999999994
 10
587.3065851633874
 20
-490.3410999999996
 10
569.8903856033576
 20
-505.3883000000005
 10
548.4061861460941
 20
-505.3883000000005
 10
526.9221866888256
 20
-505.3883000000005
 10
509.5057871288009
 20
-490.3410999999996
 10
509.5057871288009
 20
-471.7793999999994
 10
509.5057871288009
 20
-453.2176999999992
 10
526.9221866888256
 20
-438.1705000000002
 10
548.4061861460941
 20
-438.1705000000002
 10
569.8903856033576
 20
-438.1705000000002
 10
587.3065851633874
 20
-453.2176999999992
 10
587.3065851633874
 20
-471.7793999999994
 97
        0
 97
        0
 92
        1
 93
        1
 72
     4
 94
        3
 73
     0
 74
     1
 95
       17
 96
       13
 40
0.0
 40
0.0
 40
0.0
 40
0.0
 40
1.0
 40
1.0
 40
1.0
 40
2.0
 40
2.0
 40
2.0
 40
3.0
 40
3.0
 40
3.0
 40
4.0
 40
4.0
 40
4.0
 40
4.0
 10
209.7060000000001
 20
-438.1705000000002
 10
189.8270952045641
 20
-438.1705000000002
 10
173.7118956116683
 20
-452.1167000000005
 10
173.7118956116683
 20
-469.3202000000001
 10
173.7118956116683
 20
-486.5236999999997
 10
189.8270952045641
 20
-500.4699000000001
 10
209.7060000000001
 20
-500.4699000000001
 10
229.5850942001925
 20
-500.4699000000001
 10
245.7000937930934
 20
-486.5236999999997
 10
245.7000937930934
 20
-469.3202000000001
 10
245.7000937930934
 20
-452.1167000000005
 10
229.5850942001925
 20
-438.1705000000002
 10
209.7060000000001
 20
-438.1705000000002
 97
        0
 97
        0
 75
     2
 76
     1
 98
        0
  0
SPLINE
  5
54
330
41
100
AcDbEntity
  8
Layer 1
370
     0
100
AcDbSpline
210
0.0
220
0.0
230
1.0
 70
    11
 71
     3
 72
    20
 73
    16
 74
     0
 42
0.0000000001
 43
0.0000000001
 12
1.0
 22
0.0
 32
0.0
 13
1.0
 23
0.0
 33
0.0
 40
0.0
 40
0.0
 40
0.0
 40
0.0
 40
1.0
 40
1.0
 40
1.0
 40
2.0
 40
2.0
 40
2.0
 40
3.0
 40
3.0
 40
3.0
 40
4.0
 40
4.0
 40
4.0
 40
5.0
 40
5.0
 40
5.0
 40
5.0
 10
420.3781893803534
 20
-507.8912
 30
0.0
 10
420.421789379252
 20
-517.9289000000008
 30
0.0
 10
418.0778894384639
 20
-525.1843000000008
 30
0.0
 10
413.2127895613667
 20
-530.0694999999996
 30
0.0
 10
407.3223897101707
 20
-535.9851999999992
 30
0.0
 10
397.6732899539275
 20
-538.6244000000006
 30
0.0
 10
381.9250903517604
 20
-538.6244000000006
 30
0.0
 10
358.9232909328348
 20
-538.6244000000006
 30
0.0
 10
343.4719999999998
 20
-519.9549999999999
 30
0.0
 10
343.4719999999998
 20
-502.5187000000005
 30
0.0
 10
343.4719999999998
 20
-485.7652999999991
 30
0.0
 10
358.2062909509477
 20
-475.3572999999997
 30
0.0
 10
381.9250903517604
 20
-475.3572999999997
 30
0.0
 10
404.3574897850704
 20
-475.3572999999997
 30
0.0
 10
420.2471893836628
 20
-477.6908000000003
 30
0.0
 10
420.3781893803534
 20
-507.8912
 30
0.0
  0
HATCH
  5
55
330
41
100
AcDbEntity
  8
Layer 1
 62
    23
420
 15695711
100
AcDbHatch
 10
0.0
 20
0.0
 30
0.0
210
0.0
220
0.0
230
1.0
  2
SOLID
 70
     1
 71
     0
 91
        1
 92
        1
 93
        1
 72
     4
 94
        3
 73
     0
 74
     1
 95
       20
 96
       16
 40
0.0
 40
0.0
 40
0.0
 40
0.0
 40
1.0
 40
1.0
 40
1.0
 40
2.0
 40
2.0
 40
2.0
 40
3.0
 40
3.0
 40
3.0
 40
4.0
 40
4.0
 40
4.0
 40
5.0
 40
5.0
 40
5.0
 40
5.0
 10
420.3781893803534
 20
-507.8912
 10
420.421789379252
 20
-517.9289000000008
 10
418.0778894384639
 20
-525.1843000000008
 10
413.2127895613667
 20
-530.0694999999996
 10
407.3223897101707
 20
-535.9851999999992
 10
397.6732899539275
 20
-538.6244000000006
 10
381.9250903517604
 20
-538.6244000000006
 10
358.9232909328348
 20
-538.6244000000006
 10
343.4719999999998
 20
-519.9549999999999
 10
343.4719999999998
 20
-502.5187000000005
 10
343.4719999999998
 20
-485.7652999999991
 10
358.2062909509477
 20
-475.3572999999997
 10
381.9250903517604
 20
-475.3572999999997
 10
404.3574897850704
 20
-475.3572999999997
 10
420.2471893836628
 20
-477.6908000000003
 10
420.3781893803534
 20
-507.8912
 97
        0
 97
        0
 75
     2
 76
     1
 98
        0
  0
INSERT
  5
57
330
41
100
AcDbEntity
  8
Layer 1
100
AcDbBlockReference
  2
block 3
 10
0.0
 20
0.0
 30
0.0
  0
INSERT
  5
5E
330
41
100
AcDbEntity
  8
Layer 1
100
AcDbBlockReference
  2
block 4
 10
0.0
 20
0.0
 30
0.0
  0
INSERT
  5
64
330
41
100
AcDbEntity
  8
Layer 1
100
AcDbBlockReference
  2
block 5
 10
0.0
 20
0.0
 30
0.0
  0
INSERT
  5
6A
330
41
100
AcDbEntity
  8
Layer 1
100
AcDbBlockReference
  2
block 6
 10
0.0
 20
0.0
 30
0.0
  0
INSERT
  5
70
330
41
100
AcDbEntity
  8
Layer 1
100
AcDbBlockReference
  2
block 7
 10
0.0
 20
0.0
 30
0.0
  0
HATCH
  5
75
330
41
100
AcDbEntity
  8
Layer 1
 62
    28
420
  5968397
100
AcDbHatch
 10
0.0
 20
0.0
 30
0.0
210
0.0
220
0.0
230
1.0
  2
SOLID
 70
     1
 71
     0
 91
       11
 92
        1
 93
        1
 72
     4
 94
        3
 73
     0
 74
     1
 95
      215
 96
      211
 40
0.0
 40
0.0
 40
0.0
 40
0.0
 40
1.0
 40
1.0
 40
1.0
 40
2.0
 40
2.0
 40
2.0
 40
3.0
 40
3.0
 40
3.0
 40
4.0
 40
4.0
 40
4.0
 40
5.0
 40
5.0
 40
5.0
 40
6.0
 40
6.0
 40
6.0
 40
7.0
 40
7.0
 40
7.0
 40
8.0
 40
8.0
 40
8.0
 40
9.0
 40
9.0
 40
9.0
 40
10.0
 40
10.0
 40
10.0
 40
11.0
 40
11.0
 40
11.0
 40
12.0
 40
12.0
 40
12.0
 40
13.0
 40
13.0
 40
13.0
 40
14.0
 40
14.0
 40
14.0
 40
15.0
 40
15.0
 40
15.0
 40
16.0
 40
16.0
 40
16.0
 40
17.0
 40
17.0
 40
17.0
 40
18.0
 40
18.0
 40
18.0
 40
19.0
 40
19.0
 40
19.0
 40
20.0
 40
20.0
 40
20.0
 40
21.0
 40
21.0
 40
21.0
 40
22.0
 40
22.0
 40
22.0
 40
23.0
 40
23.0
 40
23.0
 40
24.0
 40
24.0
 40
24.0
 40
25.0
 40
25.0
 40
25.0
 40
26.0
 40
26.0
 40
26.0
 40
27.0
 40
27.0
 40
27.0
 40
28.0
 40
28.0
 40
28.0
 40
29.0
 40
29.0
 40
29.0
 40
30.0
 40
30.0
 40
30.0
 40
31.0
 40
31.0
 40
31.0
 40
32.0
 40
32.0
 40
32.0
 40
33.0
 40
33.0
 40
33.0
 40
34.0
 40
34.0
 40
34.0
 40
35.0
 40
35.0
 40
35.0
 40
36.0
 40
36.0
 40
36.0
 40
37.0
 40
37.0
 40
37.0
 40
38.0
 40
38.0
 40
38.0
 40
39.0
 40
39.0
 40
39.0
 40
40.0
 40
40.0
 40
40.0
 40
41.0
 40
41.0
 40
41.0
 40
42.0
 40
42.0
 40
42.0
 40
43.0
 40
43.0
 40
43.0
 40
44.0
 40
44.0
 40
44.0
 40
45.0
 40
45.0
 40
45.0
 40
46.0
 40
46.0
 40
46.0
 40
47.0
 40
47.0
 40
47.0
 40
48.0
 40
48.0
 40
48.0
 40
49.0
 40
49.0
 40
49.0
 40
50.0
 40
50.0
 40
50.0
 40
51.0
 40
51.0
 40
51.0
 40
52.0
 40
52.0
 40
52.0
 40
53.0
 40
53.0
 40
53.0
 40
54.0
 40
54.0
 40
54.0
 40
55.0
 40
55.0
 40
55.0
 40
56.0
 40
56.0
 40
56.0
 40
57.0
 40
57.0
 40
57.0
 40
58.0
 40
58.0
 40
58.0
 40
59.0
 40
59.0
 40
59.0
 40
60.0
 40
60.0
 40
60.0
 40
61.0
 40
61.0
 40
61.0
 40
62.0
 40
62.0
 40
62.0
 40
63.0
 40
63.0
 40
63.0
 40
64.0
 40
64.0
 40
64.0
 40
65.0
 40
65.0
 40
65.0
 40
66.0
 40
66.0
 40
66.0
 40
67.0
 40
67.0
 40
67.0
 40
68.0
 40
68.0
 40
68.0
 40
69.0
 40
69.0
 40
69.0
 40
70.0
 40
70.0
 40
70.0
 40
70.0
 10
701.6193822756031
 20
-154.8572999999997
 10
701.6193822756031
 20
-154.8572999999997
 10
701.4708822793546
 20
-151.3509999999997
 10
701.4708822793546
 20
-151.3509999999997
 10
701.4708822793546
 20
-151.3509999999997
 10
698.127082363826
 20
-152.4138000000003
 10
698.127082363826
 20
-152.4138000000003
 10
696.7210823993446
 20
-152.8609999999999
 10
556.8971859315934
 20
-197.5433000000003
 10
465.592888238134
 20
-247.8906999999999
 10
454.8739999999998
 20
-246.6376
 10
348.6502911923526
 20
-234.8505999999998
 10
285.5448927865291
 20
-251.2084000000004
 10
284.6652928087497
 20
-251.4363999999996
 10
277.2338929964826
 20
-242.1722
 10
276.4276930168489
 20
-241.3396000000002
 10
270.5131931662618
 20
-235.2318999999998
 10
264.3756933213081
 20
-229.3398999999999
 10
258.0881934801437
 20
-223.6180999999997
 10
238.2626939809779
 20
-205.5769
 10
216.9110000000001
 20
-189.2044999999998
 10
194.5307950857386
 20
-174.4625999999998
 10
163.6109999999999
 20
-154.0956999999999
 10
130.619096700284
 20
-136.8698000000004
 10
96.22130000000016
 20
-123.1696000000002
 10
89.18279999999959
 20
-120.3662000000004
 10
82.08550000000014
 20
-117.7103999999999
 10
74.9350999999997
 20
-115.2048999999997
 10
70.54719999999998
 20
-113.6673000000001
 10
66.28009999999995
 20
-111.7977000000001
 10
61.85679999999957
 20
-110.3481000000002
 10
57.57719999999972
 20
-108.9438
 10
52.56049999999959
 20
-106.8626000000004
 10
51.18159999999989
 20
-113.2811000000002
 10
50.52229999999963
 20
-116.3519999999999
 10
52.73739999999998
 20
-119.4628000000002
 10
53.63730000000032
 20
-122.3274000000001
 10
61.86160000000018
 20
-148.5024999999996
 10
76.51640000000043
 20
-172.8235999999997
 10
90.19400000000041
 20
-196.4281000000001
 10
113.2595971388218
 20
-236.2350999999999
 10
139.4995964759437
 20
-275.0316000000003
 10
171.7622956609193
 20
-307.982
 10
177.3597955195146
 20
-313.6985999999997
 10
183.1409999999996
 20
-319.2353000000003
 10
189.1068952227579
 20
-324.5658999999996
 10
188.9256952273354
 20
-324.9894000000004
 10
188.8149999999996
 20
-325.2596000000003
 10
188.7798952310186
 20
-325.3462
 10
188.7328952322059
 20
-325.4619999999995
 10
188.7070000000003
 20
-325.5801000000001
 10
188.6770952336155
 20
-325.6976999999997
 10
178.697395485724
 20
-346.5526
 10
123.2317968869029
 20
-468.1265000000003
 10
153.3920961249896
 20
-533.4752000000008
 10
155.0067960841989
 20
-536.9735999999994
 10
156.6075960437593
 20
-540.4773000000005
 10
158.2073960033449
 20
-543.9827000000005
 10
161.6874959154302
 20
-551.6013999999996
 10
165.2854958245371
 20
-559.4802999999993
 10
168.9812957311733
 20
-567.1705999999995
 10
170.344495696736
 20
-570.0069999999996
 10
172.0343956540455
 20
-572.8906999999999
 10
173.669195612747
 20
-575.6800000000003
 10
177.2601955220307
 20
-581.8070000000007
 10
180.9734954282249
 20
-588.1419999999998
 10
181.6388954114154
 20
-594.4838
 10
181.7606954083385
 20
-597.6440999999995
 10
175.3681955698266
 20
-625.4560000000001
 10
172.5640000000003
 20
-630.7152999999998
 10
172.5640000000003
 20
-630.7152999999998
 10
181.8853954051883
 20
-630.7152999999998
 10
181.890395405062
 20
-630.7152999999998
 10
183.7640953577284
 20
-630.7152999999998
 10
186.0448953001105
 20
-610.3958999999995
 10
186.3981952911854
 20
-607.8634000000002
 10
187.6869999999999
 20
-598.6241000000009
 10
189.8151952048647
 20
-591.0164000000004
 10
186.783095281462
 20
-582.2476999999999
 10
180.6762954357328
 20
-564.5879999999997
 10
166.2709999999997
 20
-547.336800000001
 10
159.4758959712999
 20
-530.0036
 10
150.7110000000002
 20
-507.6452000000008
 10
150.5162961976384
 20
-484.7726999999995
 10
153.4738961229232
 20
-461.2837999999992
 10
156.7031960413442
 20
-435.6349000000009
 10
165.3863958219881
 20
-410.4804999999997
 10
173.7285956112464
 20
-386.0591999999997
 10
179.7542954590244
 20
-368.4182000000001
 10
208.2561947390059
 20
-304.1664000000001
 10
212.9361946207791
 20
-298.1121000000003
 10
213.4795946070517
 20
-297.4093000000003
 10
214.0496945926498
 20
-296.4903999999997
 10
213.6496946027546
 20
-295.6971000000003
 10
213.0771946172172
 20
-294.5617000000002
 10
211.3567946606781
 20
-295.0240000000003
 10
210.2835946877894
 20
-295.7058999999999
 10
204.4232948358331
 20
-299.4296000000004
 10
199.9502949488306
 20
-304.9277000000002
 10
195.5858950590846
 20
-310.3278
 10
193.474495112423
 20
-312.9399000000003
 10
191.3950000000004
 20
-317.4463999999998
 10
191.3950000000004
 20
-317.4463999999998
 10
191.3950000000004
 20
-317.4463999999998
 10
142.0159999999996
 20
-260.7241000000004
 10
135.4926965771665
 20
-251.6193999999996
 10
129.2780967341605
 20
-242.9457000000002
 10
120.1178969655666
 20
-234.1089000000002
 10
116.5929999999998
 20
-223.9184000000005
 10
107.8197972762428
 20
-198.5550999999996
 10
106.6912973047511
 20
-173.9894999999997
 10
108.6011972565029
 20
-147.7398000000003
 10
108.6795972545224
 20
-146.6626999999999
 10
112.3443971619417
 20
-137.0005000000001
 10
112.0718971688257
 20
-136.8841000000002
 10
226.4644942790255
 20
-185.7914000000001
 10
281.8360000000002
 20
-255.0933000000005
 10
282.5249999999996
 20
-255.9337999999998
 10
282.5249999999996
 20
-255.9337999999998
 10
283.6253928350197
 20
-257.2761
 10
283.6253928350197
 20
-257.2761
 10
283.6253928350197
 20
-257.2761
 10
285.2994927927284
 20
-258.6121999999996
 10
285.2994927927284
 20
-258.6121999999996
 10
350.2030911531256
 20
-241.0694000000003
 10
466.4443882166233
 20
-256.7538999999997
 10
467.5927881876123
 20
-256.8962000000001
 10
467.5927881876123
 20
-256.8962000000001
 10
589.3803851109988
 20
-196.7775000000001
 10
652.2862835218621
 20
-173.7458999999999
 10
658.9986833522926
 20
-171.2883000000002
 10
662.1597832724365
 20
-170.7556000000004
 10
668.9178831017125
 20
-168.4309999999996
 10
667.8742831280761
 20
-168.79
 10
665.8468831792925
 20
-201.0267000000003
 10
665.1512831968648
 20
-204.8752999999997
 10
662.7530000000006
 20
-218.1427999999996
 10
662.6959999999999
 20
-231.2048000000004
 10
657.5655833884957
 20
-243.6818000000003
 10
652.0871835268917
 20
-257.0047000000004
 10
644.86458370935
 20
-269.0470999999998
 10
636.3372839247677
 20
-280.1315999999997
 10
627.8240841398292
 20
-291.1976999999997
 10
618.0110843877264
 20
-301.3092999999999
 10
607.3358846574047
 20
-310.7876999999999
 10
597.8116848980062
 20
-319.2442000000001
 10
587.9188851479194
 20
-323.7835999999998
 10
576.5395854353847
 20
-329.6594999999998
 10
570.2267855948594
 20
-332.9182000000001
 10
565.5229999999992
 20
-329.1980999999996
 10
561.0623858263716
 20
-325.4778999999999
 10
555.0433859784243
 20
-320.4575000000004
 10
548.3610861472334
 20
-315.8836000000001
 10
540.8747863363533
 20
-313.3759
 10
539.4722863717834
 20
-312.9061000000002
 10
537.9510000000009
 20
-313.6666999999998
 10
537.482
 20
-315.0727999999999
 10
537.0130000000008
 20
-316.4778999999999
 10
537.7727864147164
 20
-317.9974000000002
 10
539.1805863791524
 20
-318.4660999999996
 10
563.2250857717372
 20
-326.4831999999997
 10
578.5903853835771
 20
-350.4387999999999
 10
588.1647851417074
 20
-372.7853999999998
 10
600.2270000000008
 20
-400.9380000000001
 10
604.3004847340853
 20
-431.3381000000008
 10
610.8521845685755
 20
-461.0316000000003
 10
622.5168842739004
 20
-513.8976000000002
 10
632.6593840176793
 20
-570.9694
 10
641.0097838067304
 20
-630.7152999999998
 10
641.0097838067304
 20
-630.7152999999998
 10
648.2116836247951
 20
-630.7152999999998
 10
648.2116836247951
 20
-630.7152999999998
 10
639.8230000000003
 20
-570.5647000000008
 10
629.6230840943826
 20
-513.0951000000005
 10
617.8804843910257
 20
-459.8752999999997
 10
616.4342844275598
 20
-453.3220999999994
 10
615.0701844620198
 20
-446.6273999999994
 10
613.7506844953532
 20
-440.1519000000008
 10
611.3560845558459
 20
-428.4025000000001
 10
608.8802846183899
 20
-416.2531999999992
 10
605.8097846959572
 20
-404.4069
 10
601.6982847998224
 20
-388.5494999999992
 10
595.5074849562152
 20
-368.0784999999996
 10
584.0200852464113
 20
-350.3906999999999
 10
582.2638852907767
 20
-347.6851999999999
 10
579.1068853705292
 20
-343.6225999999997
 10
577.0327854229254
 20
-341.0114999999996
 10
578.9400853747429
 20
-339.9486999999999
 10
581.3416853140734
 20
-338.5565999999999
 10
582.7197852792597
 20
-337.5541000000003
 10
585.8862851992671
 20
-335.2502999999997
 10
588.9550851217427
 20
-332.8635999999997
 10
591.2745850631472
 20
-331.0410000000002
 10
595.9676849445896
 20
-327.3531000000003
 10
599.7403848492831
 20
-324.3053
 10
603.1453847632656
 20
-321.4486999999999
 10
627.212584155277
 20
-301.2588999999998
 10
649.5366835913228
 20
-276.6476000000002
 10
671.391883039214
 20
-246.2070000000003
 10
671.391883039214
 20
-246.2070000000003
 10
673.1113829957758
 20
-243.8167999999996
 10
673.1113829957758
 20
-243.8167999999996
 10
684.9908826956744
 20
-227.3167000000003
 10
698.4562823555098
 20
-208.6149999999998
 10
700.0098823162625
 20
-187.1292000000003
 10
700.1871823117835
 20
-184.6796000000004
 10
700.3914823066225
 20
-182.2353000000003
 10
700.5958823014589
 20
-179.7925999999998
 10
701.274482284316
 20
-171.6787999999997
 10
701.9765822665795
 20
-163.2889999999998
 10
701.6193822756031
 20
-154.8572999999997
 97
        0
 97
        0
 92
        1
 93
        1
 72
     4
 94
        3
 73
     0
 74
     1
 95
       26
 96
       22
 40
0.0
 40
0.0
 40
0.0
 40
0.0
 40
1.0
 40
1.0
 40
1.0
 40
2.0
 40
2.0
 40
2.0
 40
3.0
 40
3.0
 40
3.0
 40
4.0
 40
4.0
 40
4.0
 40
5.0
 40
5.0
 40
5.0
 40
6.0
 40
6.0
 40
6.0
 40
7.0
 40
7.0
 40
7.0
 40
7.0
 10
94.83650000000034
 20
-193.7384000000002
 10
87.0020999999997
 20
-180.2178999999996
 10
79.46209999999974
 20
-166.6102000000001
 10
72.42590000000018
 20
-153.2941000000001
 10
68.17910000000029
 20
-145.2554
 10
64.65700000000015
 20
-137.7154
 10
61.65809999999965
 20
-130.2434000000003
 10
61.41709999999966
 20
-129.6426000000001
 10
60.69400000000041
 20
-127.0419000000002
 10
59.99359999999979
 20
-124.5267999999996
 10
58.82780000000002
 20
-120.3366999999998
 10
57.94220000000041
 20
-117.2496000000001
 10
57.22530000000006
 20
-114.9642000000003
 10
72.80509999999958
 20
-119.8783000000003
 10
87.60519999999997
 20
-125.3373000000001
 10
101.6291974326305
 20
-131.1638999999996
 10
99.58550000000014
 20
-142.7624999999998
 10
95.73400000000038
 20
-174.6688000000004
 10
105.9238973241372
 20
-212.3152
 10
102.2381974172458
 20
-206.3104999999996
 10
98.54539999999997
 20
-200.1391999999996
 10
94.83650000000034
 20
-193.7384000000002
 97
        0
 97
        0
 92
        1
 93
        1
 72
     4
 94
        3
 73
     0
 74
     1
 95
       26
 96
       22
 40
0.0
 40
0.0
 40
0.0
 40
0.0
 40
1.0
 40
1.0
 40
1.0
 40
2.0
 40
2.0
 40
2.0
 40
3.0
 40
3.0
 40
3.0
 40
4.0
 40
4.0
 40
4.0
 40
5.0
 40
5.0
 40
5.0
 40
6.0
 40
6.0
 40
6.0
 40
7.0
 40
7.0
 40
7.0
 40
7.0
 10
695.2486824365405
 20
-179.3446000000004
 10
695.0425824417471
 20
-181.8082000000004
 10
694.8364824469536
 20
-184.2727000000004
 10
694.6582824514553
 20
-186.7424000000001
 10
693.2138824879439
 20
-206.7129999999997
 10
680.2209999999995
 20
-224.7596999999996
 10
668.7571831057721
 20
-240.6817000000001
 10
668.7571831057721
 20
-240.6817000000001
 10
667.0340831493013
 20
-243.0771000000004
 10
667.0340831493013
 20
-243.0771000000004
 10
664.9150832028317
 20
-246.0284000000001
 10
662.7903832565062
 20
-248.9078
 10
660.6616833102817
 20
-251.7491
 10
675.3570829390446
 20
-218.8071
 10
675.8485829266283
 20
-180.5681999999997
 10
676.1116829199818
 20
-164.7920999999997
 10
684.5747827061859
 20
-161.9094000000005
 10
692.7317825001228
 20
-159.8082000000004
 10
696.3463824088103
 20
-158.6291000000001
 10
696.4013824074209
 20
-165.5675000000001
 10
695.817182422179
 20
-172.5555999999997
 10
695.2486824365405
 20
-179.3446000000004
 97
        0
 97
        0
 92
        1
 93
        1
 72
     4
 94
        3
 73
     0
 74
     1
 95
       17
 96
       13
 40
0.0
 40
0.0
 40
0.0
 40
0.0
 40
1.0
 40
1.0
 40
1.0
 40
2.0
 40
2.0
 40
2.0
 40
3.0
 40
3.0
 40
3.0
 40
4.0
 40
4.0
 40
4.0
 40
4.0
 10
279.0852929497123
 20
-347.8495999999996
 10
264.7860000000001
 20
-347.8495999999996
 10
253.1518936048451
 20
-363.8126000000002
 10
253.1518936048451
 20
-381.2348999999995
 10
253.1518936048451
 20
-398.6571999999996
 10
266.5744932657617
 20
-412.8325999999997
 10
280.8738929045285
 20
-412.8325999999997
 10
301.2551923896535
 20
-412.8325999999997
 10
305.7194922768758
 20
-398.6232
 10
306.8072922493957
 20
-381.2348999999995
 10
308.2602922126898
 20
-358.0105000000003
 10
293.3846925884791
 20
-347.8495999999996
 10
279.0852929497123
 20
-347.8495999999996
 97
        0
 97
        0
 92
        1
 93
        1
 72
     4
 94
        3
 73
     0
 74
     1
 95
       17
 96
       13
 40
0.0
 40
0.0
 40
0.0
 40
0.0
 40
1.0
 40
1.0
 40
1.0
 40
2.0
 40
2.0
 40
2.0
 40
3.0
 40
3.0
 40
3.0
 40
4.0
 40
4.0
 40
4.0
 40
4.0
 10
258.5173934693012
 20
-381.2348999999995
 10
258.5173934693012
 20
-365.7844999999998
 10
268.5463932159473
 20
-353.2151000000003
 10
280.8738929045285
 20
-353.2151000000003
 10
293.2012925931122
 20
-353.2151000000003
 10
303.2302923397583
 20
-365.7844999999998
 10
303.2302923397583
 20
-381.2348999999995
 10
303.2302923397583
 20
-396.6852999999992
 10
293.2012925931122
 20
-409.2556000000004
 10
280.8738929045285
 20
-409.2556000000004
 10
268.5463932159473
 20
-409.2556000000004
 10
258.5173934693012
 20
-396.6852999999992
 10
258.5173934693012
 20
-381.2348999999995
 97
        0
 97
        0
 92
        1
 93
        1
 72
     4
 94
        3
 73
     0
 74
     1
 95
       17
 96
       13
 40
0.0
 40
0.0
 40
0.0
 40
0.0
 40
1.0
 40
1.0
 40
1.0
 40
2.0
 40
2.0
 40
2.0
 40
3.0
 40
3.0
 40
3.0
 40
4.0
 40
4.0
 40
4.0
 40
4.0
 10
487.149387693571
 20
-347.8495999999996
 10
472.8500000000004
 20
-347.8495999999996
 10
461.2158883487064
 20
-363.8126000000002
 10
461.2158883487064
 20
-381.2348999999995
 10
461.2158883487064
 20
-398.6571999999996
 10
472.8500000000004
 20
-414.6211000000003
 10
487.149387693571
 20
-414.6211000000003
 10
507.6797871749295
 20
-414.6211000000003
 10
514.8713869932544
 20
-398.6571999999996
 10
514.8713869932544
 20
-381.2348999999995
 10
514.8713869932544
 20
-363.8126000000002
 10
501.4487873323378
 20
-347.8495999999996
 10
487.149387693571
 20
-347.8495999999996
 97
        0
 97
        0
 92
        1
 93
        1
 72
     4
 94
        3
 73
     0
 74
     1
 95
       17
 96
       13
 40
0.0
 40
0.0
 40
0.0
 40
0.0
 40
1.0
 40
1.0
 40
1.0
 40
2.0
 40
2.0
 40
2.0
 40
3.0
 40
3.0
 40
3.0
 40
4.0
 40
4.0
 40
4.0
 40
4.0
 10
464.7928882583437
 20
-381.2348999999995
 10
464.7928882583437
 20
-365.7844999999998
 10
474.8218880049899
 20
-353.2151000000003
 10
487.149387693571
 20
-353.2151000000003
 10
499.4768873821522
 20
-353.2151000000003
 10
509.5057871288009
 20
-365.7844999999998
 10
509.5057871288009
 20
-381.2348999999995
 10
509.5057871288009
 20
-396.6852999999992
 10
499.4768873821522
 20
-409.2556000000004
 10
487.149387693571
 20
-409.2556000000004
 10
474.8218880049899
 20
-409.2556000000004
 10
464.7928882583437
 20
-396.6852999999992
 10
464.7928882583437
 20
-381.2348999999995
 97
        0
 97
        0
 92
        1
 93
        1
 72
     4
 94
        3
 73
     0
 74
     1
 95
       17
 96
       13
 40
0.0
 40
0.0
 40
0.0
 40
0.0
 40
1.0
 40
1.0
 40
1.0
 40
2.0
 40
2.0
 40
2.0
 40
3.0
 40
3.0
 40
3.0
 40
4.0
 40
4.0
 40
4.0
 40
4.0
 10
370.8960906303764
 20
-417.6026000000002
 10
359.6803909137088
 20
-417.6026000000002
 10
346.3973912492656
 20
-423.5750000000007
 10
347.6453912177385
 20
-428.7808000000005
 10
349.5451911697455
 20
-436.7052000000003
 10
356.103291004074
 20
-438.1705000000002
 10
367.319090720739
 20
-438.1705000000002
 10
378.5348904374041
 20
-438.1705000000002
 10
386.9927902237396
 20
-434.1340999999993
 10
386.9927902237396
 20
-428.7808000000005
 10
386.9927902237396
 20
-423.4274999999998
 10
382.1118903470415
 20
-417.6026000000002
 10
370.8960906303764
 20
-417.6026000000002
 97
        0
 97
        0
 92
        1
 93
        1
 72
     4
 94
        3
 73
     0
 74
     1
 95
       17
 96
       13
 40
0.0
 40
0.0
 40
0.0
 40
0.0
 40
1.0
 40
1.0
 40
1.0
 40
2.0
 40
2.0
 40
2.0
 40
3.0
 40
3.0
 40
3.0
 40
4.0
 40
4.0
 40
4.0
 40
4.0
 10
367.319090720739
 20
-434.5935000000009
 10
357.4926909689748
 20
-434.5935000000009
 10
351.2224911273734
 20
-431.1509000000005
 10
351.2224911273734
 20
-428.7808000000005
 10
351.2224911273734
 20
-426.4107000000004
 10
357.4926909689748
 20
-422.9681
 10
367.319090720739
 20
-422.9681
 10
377.1454904725033
 20
-422.9681
 10
383.4156903141047
 20
-426.4107000000004
 10
383.4156903141047
 20
-428.7808000000005
 10
383.4156903141047
 20
-431.1509000000005
 10
377.1454904725033
 20
-434.5935000000009
 10
367.319090720739
 20
-434.5935000000009
 97
        0
 97
        0
 92
        1
 93
        1
 72
     4
 94
        3
 73
     0
 74
     1
 95
       20
 96
       16
 40
0.0
 40
0.0
 40
0.0
 40
0.0
 40
1.0
 40
1.0
 40
1.0
 40
2.0
 40
2.0
 40
2.0
 40
3.0
 40
3.0
 40
3.0
 40
4.0
 40
4.0
 40
4.0
 40
5.0
 40
5.0
 40
5.0
 40
5.0
 10
381.9249999999993
 20
-471.7803000000004
 10
356.0482910054634
 20
-473.357
 10
338.1063914587139
 20
-483.5593000000008
 10
338.1063914587139
 20
-502.5187000000005
 10
338.1063914587139
 20
-521.6823000000004
 10
356.7835909868882
 20
-543.9899000000005
 10
381.9249999999993
 20
-543.9899000000005
 10
393.2184900664652
 20
-543.9899000000005
 10
407.2690000000002
 20
-541.1097000000009
 10
415.7478894973246
 20
-532.5933000000005
 10
421.3186893565944
 20
-526.9989999999998
 10
424.0031892887782
 20
-518.9140000000007
 10
423.9550892899933
 20
-507.8772000000008
 10
423.8101892936538
 20
-474.4961999999996
 10
410.8763896203891
 20
-470.0162999999993
 10
381.9249999999993
 20
-471.7803000000004
 97
        0
 97
        0
 92
        1
 93
        1
 72
     4
 94
        3
 73
     0
 74
     1
 95
       20
 96
       16
 40
0.0
 40
0.0
 40
0.0
 40
0.0
 40
1.0
 40
1.0
 40
1.0
 40
2.0
 40
2.0
 40
2.0
 40
3.0
 40
3.0
 40
3.0
 40
4.0
 40
4.0
 40
4.0
 40
5.0
 40
5.0
 40
5.0
 40
5.0
 10
343.47189132317
 20
-502.5187000000005
 10
343.47189132317
 20
-485.7652999999991
 10
358.2061909509503
 20
-475.3572999999997
 10
381.9249999999993
 20
-475.3572999999997
 10
404.3573897850729
 20
-475.3572999999997
 10
420.2470893836653
 20
-477.6908000000003
 10
420.378089380356
 20
-507.8912
 10
420.421789379252
 20
-517.9289000000008
 10
418.0777894384664
 20
-525.1843000000008
 10
413.2126895613692
 20
-530.0694999999996
 10
407.3222897101732
 20
-535.9851999999992
 10
397.67318995393
 20
-538.6242999999995
 10
381.9249999999993
 20
-538.6242999999995
 10
358.9231909328373
 20
-538.6242999999995
 10
343.47189132317
 20
-519.9549000000006
 10
343.47189132317
 20
-502.5187000000005
 97
        0
 97
        0
 75
     2
 76
     1
 98
        0
  0
ENDBLK
  5
44
330
41
100
AcDbEntity
  8
0
100
AcDbBlockEnd
  0
BLOCK
  5
58
330
56
100
AcDbEntity
  8
0
100
AcDbBlockBegin
  2
block 3
 70
     0
 10
0.0
 20
0.0
 30
0.0
  3
block 3
  1

  0
SPLINE
  5
5A
330
56
100
AcDbEntity
  8
Layer 1
370
     0
100
AcDbSpline
210
0.0
220
0.0
230
1.0
 70
    11
 71
     3
 72
   215
 73
   211
 74
     0
 42
0.0000000001
 43
0.0000000001
 12
1.0
 22
0.0
 32
0.0
 13
1.0
 23
0.0
 33
0.0
 40
0.0
 40
0.0
 40
0.0
 40
0.0
 40
1.0
 40
1.0
 40
1.0
 40
2.0
 40
2.0
 40
2.0
 40
3.0
 40
3.0
 40
3.0
 40
4.0
 40
4.0
 40
4.0
 40
5.0
 40
5.0
 40
5.0
 40
6.0
 40
6.0
 40
6.0
 40
7.0
 40
7.0
 40
7.0
 40
8.0
 40
8.0
 40
8.0
 40
9.0
 40
9.0
 40
9.0
 40
10.0
 40
10.0
 40
10.0
 40
11.0
 40
11.0
 40
11.0
 40
12.0
 40
12.0
 40
12.0
 40
13.0
 40
13.0
 40
13.0
 40
14.0
 40
14.0
 40
14.0
 40
15.0
 40
15.0
 40
15.0
 40
16.0
 40
16.0
 40
16.0
 40
17.0
 40
17.0
 40
17.0
 40
18.0
 40
18.0
 40
18.0
 40
19.0
 40
19.0
 40
19.0
 40
20.0
 40
20.0
 40
20.0
 40
21.0
 40
21.0
 40
21.0
 40
22.0
 40
22.0
 40
22.0
 40
23.0
 40
23.0
 40
23.0
 40
24.0
 40
24.0
 40
24.0
 40
25.0
 40
25.0
 40
25.0
 40
26.0
 40
26.0
 40
26.0
 40
27.0
 40
27.0
 40
27.0
 40
28.0
 40
28.0
 40
28.0
 40
29.0
 40
29.0
 40
29.0
 40
30.0
 40
30.0
 40
30.0
 40
31.0
 40
31.0
 40
31.0
 40
32.0
 40
32.0
 40
32.0
 40
33.0
 40
33.0
 40
33.0
 40
34.0
 40
34.0
 40
34.0
 40
35.0
 40
35.0
 40
35.0
 40
36.0
 40
36.0
 40
36.0
 40
37.0
 40
37.0
 40
37.0
 40
38.0
 40
38.0
 40
38.0
 40
39.0
 40
39.0
 40
39.0
 40
40.0
 40
40.0
 40
40.0
 40
41.0
 40
41.0
 40
41.0
 40
42.0
 40
42.0
 40
42.0
 40
43.0
 40
43.0
 40
43.0
 40
44.0
 40
44.0
 40
44.0
 40
45.0
 40
45.0
 40
45.0
 40
46.0
 40
46.0
 40
46.0
 40
47.0
 40
47.0
 40
47.0
 40
48.0
 40
48.0
 40
48.0
 40
49.0
 40
49.0
 40
49.0
 40
50.0
 40
50.0
 40
50.0
 40
51.0
 40
51.0
 40
51.0
 40
52.0
 40
52.0
 40
52.0
 40
53.0
 40
53.0
 40
53.0
 40
54.0
 40
54.0
 40
54.0
 40
55.0
 40
55.0
 40
55.0
 40
56.0
 40
56.0
 40
56.0
 40
57.0
 40
57.0
 40
57.0
 40
58.0
 40
58.0
 40
58.0
 40
59.0
 40
59.0
 40
59.0
 40
60.0
 40
60.0
 40
60.0
 40
61.0
 40
61.0
 40
61.0
 40
62.0
 40
62.0
 40
62.0
 40
63.0
 40
63.0
 40
63.0
 40
64.0
 40
64.0
 40
64.0
 40
65.0
 40
65.0
 40
65.0
 40
66.0
 40
66.0
 40
66.0
 40
67.0
 40
67.0
 40
67.0
 40
68.0
 40
68.0
 40
68.0
 40
69.0
 40
69.0
 40
69.0
 40
70.0
 40
70.0
 40
70.0
 40
70.0
 10
701.6193822756031
 20
-154.8572999999997
 30
0.0
 10
701.6193822756031
 20
-154.8572999999997
 30
0.0
 10
701.4708822793546
 20
-151.3509999999997
 30
0.0
 10
701.4708822793546
 20
-151.3509999999997
 30
0.0
 10
701.4708822793546
 20
-151.3509999999997
 30
0.0
 10
698.127082363826
 20
-152.4138000000003
 30
0.0
 10
698.127082363826
 20
-152.4138000000003
 30
0.0
 10
696.7210823993446
 20
-152.8609999999999
 30
0.0
 10
556.8971859315934
 20
-197.5433000000003
 30
0.0
 10
465.592888238134
 20
-247.8906999999999
 30
0.0
 10
454.8739999999998
 20
-246.6376
 30
0.0
 10
348.6502911923526
 20
-234.8505999999998
 30
0.0
 10
285.5448927865291
 20
-251.2084000000004
 30
0.0
 10
284.6652928087497
 20
-251.4363999999996
 30
0.0
 10
277.2338929964826
 20
-242.1722
 30
0.0
 10
276.4276930168489
 20
-241.3396000000002
 30
0.0
 10
270.5131931662618
 20
-235.2318999999998
 30
0.0
 10
264.3756933213081
 20
-229.3398999999999
 30
0.0
 10
258.0881934801437
 20
-223.6180999999997
 30
0.0
 10
238.2626939809779
 20
-205.5769
 30
0.0
 10
216.9110000000001
 20
-189.2044999999998
 30
0.0
 10
194.5307950857386
 20
-174.4625999999998
 30
0.0
 10
163.6109999999999
 20
-154.0956999999999
 30
0.0
 10
130.619096700284
 20
-136.8698000000004
 30
0.0
 10
96.22130000000016
 20
-123.1696000000002
 30
0.0
 10
89.18279999999959
 20
-120.3662000000004
 30
0.0
 10
82.08550000000014
 20
-117.7103999999999
 30
0.0
 10
74.9350999999997
 20
-115.2048999999997
 30
0.0
 10
70.54719999999998
 20
-113.6673000000001
 30
0.0
 10
66.28009999999995
 20
-111.7977000000001
 30
0.0
 10
61.85679999999957
 20
-110.3481000000002
 30
0.0
 10
57.57719999999972
 20
-108.9438
 30
0.0
 10
52.56049999999959
 20
-106.8626000000004
 30
0.0
 10
51.18159999999989
 20
-113.2811000000002
 30
0.0
 10
50.52229999999963
 20
-116.3519999999999
 30
0.0
 10
52.73739999999998
 20
-119.4628000000002
 30
0.0
 10
53.63730000000032
 20
-122.3274000000001
 30
0.0
 10
61.86160000000018
 20
-148.5024999999996
 30
0.0
 10
76.51640000000043
 20
-172.8235999999997
 30
0.0
 10
90.19400000000041
 20
-196.4281000000001
 30
0.0
 10
113.2595971388218
 20
-236.2350999999999
 30
0.0
 10
139.4995964759437
 20
-275.0316000000003
 30
0.0
 10
171.7622956609193
 20
-307.982
 30
0.0
 10
177.3597955195146
 20
-313.6985999999997
 30
0.0
 10
183.1409999999996
 20
-319.2353000000003
 30
0.0
 10
189.1068952227579
 20
-324.5658999999996
 30
0.0
 10
188.9256952273354
 20
-324.9894000000004
 30
0.0
 10
188.8149999999996
 20
-325.2596000000003
 30
0.0
 10
188.7798952310186
 20
-325.3462
 30
0.0
 10
188.7328952322059
 20
-325.4619999999995
 30
0.0
 10
188.7070000000003
 20
-325.5801000000001
 30
0.0
 10
188.6770952336155
 20
-325.6976999999997
 30
0.0
 10
178.697395485724
 20
-346.5526
 30
0.0
 10
123.2317968869029
 20
-468.1265000000003
 30
0.0
 10
153.3920961249896
 20
-533.4752000000008
 30
0.0
 10
155.0067960841989
 20
-536.9735999999994
 30
0.0
 10
156.6075960437593
 20
-540.4773000000005
 30
0.0
 10
158.2073960033449
 20
-543.9827000000005
 30
0.0
 10
161.6874959154302
 20
-551.6013999999996
 30
0.0
 10
165.2854958245371
 20
-559.4802999999993
 30
0.0
 10
168.9812957311733
 20
-567.1705999999995
 30
0.0
 10
170.344495696736
 20
-570.0069999999996
 30
0.0
 10
172.0343956540455
 20
-572.8906999999999
 30
0.0
 10
173.669195612747
 20
-575.6800000000003
 30
0.0
 10
177.2601955220307
 20
-581.8070000000007
 30
0.0
 10
180.9734954282249
 20
-588.1419999999998
 30
0.0
 10
181.6388954114154
 20
-594.4838
 30
0.0
 10
181.7606954083385
 20
-597.6440999999995
 30
0.0
 10
175.3681955698266
 20
-625.4560000000001
 30
0.0
 10
172.5640000000003
 20
-630.7152999999998
 30
0.0
 10
172.5640000000003
 20
-630.7152999999998
 30
0.0
 10
181.8853954051883
 20
-630.7152999999998
 30
0.0
 10
181.890395405062
 20
-630.7152999999998
 30
0.0
 10
183.7640953577284
 20
-630.7152999999998
 30
0.0
 10
186.0448953001105
 20
-610.3958999999995
 30
0.0
 10
186.3981952911854
 20
-607.8634000000002
 30
0.0
 10
187.6869999999999
 20
-598.6241000000009
 30
0.0
 10
189.8151952048647
 20
-591.0164000000004
 30
0.0
 10
186.783095281462
 20
-582.2476999999999
 30
0.0
 10
180.6762954357328
 20
-564.5879999999997
 30
0.0
 10
166.2709999999997
 20
-547.336800000001
 30
0.0
 10
159.4758959712999
 20
-530.0036
 30
0.0
 10
150.7110000000002
 20
-507.6452000000008
 30
0.0
 10
150.5162961976384
 20
-484.7726999999995
 30
0.0
 10
153.4738961229232
 20
-461.2837999999992
 30
0.0
 10
156.7031960413442
 20
-435.6349000000009
 30
0.0
 10
165.3863958219881
 20
-410.4804999999997
 30
0.0
 10
173.7285956112464
 20
-386.0591999999997
 30
0.0
 10
179.7542954590244
 20
-368.4182000000001
 30
0.0
 10
208.2561947390059
 20
-304.1664000000001
 30
0.0
 10
212.9361946207791
 20
-298.1121000000003
 30
0.0
 10
213.4795946070517
 20
-297.4093000000003
 30
0.0
 10
214.0496945926498
 20
-296.4903999999997
 30
0.0
 10
213.6496946027546
 20
-295.6971000000003
 30
0.0
 10
213.0771946172172
 20
-294.5617000000002
 30
0.0
 10
211.3567946606781
 20
-295.0240000000003
 30
0.0
 10
210.2835946877894
 20
-295.7058999999999
 30
0.0
 10
204.4232948358331
 20
-299.4296000000004
 30
0.0
 10
199.9502949488306
 20
-304.9277000000002
 30
0.0
 10
195.5858950590846
 20
-310.3278
 30
0.0
 10
193.474495112423
 20
-312.9399000000003
 30
0.0
 10
191.3950000000004
 20
-317.4463999999998
 30
0.0
 10
191.3950000000004
 20
-317.4463999999998
 30
0.0
 10
191.3950000000004
 20
-317.4463999999998
 30
0.0
 10
142.0159999999996
 20
-260.7241000000004
 30
0.0
 10
135.4926965771665
 20
-251.6193999999996
 30
0.0
 10
129.2780967341605
 20
-242.9457000000002
 30
0.0
 10
120.1178969655666
 20
-234.1089000000002
 30
0.0
 10
116.5929999999998
 20
-223.9184000000005
 30
0.0
 10
107.8197972762428
 20
-198.5550999999996
 30
0.0
 10
106.6912973047511
 20
-173.9894999999997
 30
0.0
 10
108.6011972565029
 20
-147.7398000000003
 30
0.0
 10
108.6795972545224
 20
-146.6626999999999
 30
0.0
 10
112.3443971619417
 20
-137.0005000000001
 30
0.0
 10
112.0718971688257
 20
-136.8841000000002
 30
0.0
 10
226.4644942790255
 20
-185.7914000000001
 30
0.0
 10
281.8360000000002
 20
-255.0933000000005
 30
0.0
 10
282.5249999999996
 20
-255.9337999999998
 30
0.0
 10
282.5249999999996
 20
-255.9337999999998
 30
0.0
 10
283.6253928350197
 20
-257.2761
 30
0.0
 10
283.6253928350197
 20
-257.2761
 30
0.0
 10
283.6253928350197
 20
-257.2761
 30
0.0
 10
285.2994927927284
 20
-258.6121999999996
 30
0.0
 10
285.2994927927284
 20
-258.6121999999996
 30
0.0
 10
350.2030911531256
 20
-241.0694000000003
 30
0.0
 10
466.4443882166233
 20
-256.7538999999997
 30
0.0
 10
467.5927881876123
 20
-256.8962000000001
 30
0.0
 10
467.5927881876123
 20
-256.8962000000001
 30
0.0
 10
589.3803851109988
 20
-196.7775000000001
 30
0.0
 10
652.2862835218621
 20
-173.7458999999999
 30
0.0
 10
658.9986833522926
 20
-171.2883000000002
 30
0.0
 10
662.1597832724365
 20
-170.7556000000004
 30
0.0
 10
668.9178831017125
 20
-168.4309999999996
 30
0.0
 10
667.8742831280761
 20
-168.79
 30
0.0
 10
665.8468831792925
 20
-201.0267000000003
 30
0.0
 10
665.1512831968648
 20
-204.8752999999997
 30
0.0
 10
662.7530000000006
 20
-218.1427999999996
 30
0.0
 10
662.6959999999999
 20
-231.2048000000004
 30
0.0
 10
657.5655833884957
 20
-243.6818000000003
 30
0.0
 10
652.0871835268917
 20
-257.0047000000004
 30
0.0
 10
644.86458370935
 20
-269.0470999999998
 30
0.0
 10
636.3372839247677
 20
-280.1315999999997
 30
0.0
 10
627.8240841398292
 20
-291.1976999999997
 30
0.0
 10
618.0110843877264
 20
-301.3092999999999
 30
0.0
 10
607.3358846574047
 20
-310.7876999999999
 30
0.0
 10
597.8116848980062
 20
-319.2442000000001
 30
0.0
 10
587.9188851479194
 20
-323.7835999999998
 30
0.0
 10
576.5395854353847
 20
-329.6594999999998
 30
0.0
 10
570.2267855948594
 20
-332.9182000000001
 30
0.0
 10
565.5229999999992
 20
-329.1980999999996
 30
0.0
 10
561.0623858263716
 20
-325.4778999999999
 30
0.0
 10
555.0433859784243
 20
-320.4575000000004
 30
0.0
 10
548.3610861472334
 20
-315.8836000000001
 30
0.0
 10
540.8747863363533
 20
-313.3759
 30
0.0
 10
539.4722863717834
 20
-312.9061000000002
 30
0.0
 10
537.9510000000009
 20
-313.6666999999998
 30
0.0
 10
537.482
 20
-315.0727999999999
 30
0.0
 10
537.0130000000008
 20
-316.4778999999999
 30
0.0
 10
537.7727864147164
 20
-317.9974000000002
 30
0.0
 10
539.1805863791524
 20
-318.4660999999996
 30
0.0
 10
563.2250857717372
 20
-326.4831999999997
 30
0.0
 10
578.5903853835771
 20
-350.4387999999999
 30
0.0
 10
588.1647851417074
 20
-372.7853999999998
 30
0.0
 10
600.2270000000008
 20
-400.9380000000001
 30
0.0
 10
604.3004847340853
 20
-431.3381000000008
 30
0.0
 10
610.8521845685755
 20
-461.0316000000003
 30
0.0
 10
622.5168842739004
 20
-513.8976000000002
 30
0.0
 10
632.6593840176793
 20
-570.9694
 30
0.0
 10
641.0097838067304
 20
-630.7152999999998
 30
0.0
 10
641.0097838067304
 20
-630.7152999999998
 30
0.0
 10
648.2116836247951
 20
-630.7152999999998
 30
0.0
 10
648.2116836247951
 20
-630.7152999999998
 30
0.0
 10
639.8230000000003
 20
-570.5647000000008
 30
0.0
 10
629.6230840943826
 20
-513.0951000000005
 30
0.0
 10
617.8804843910257
 20
-459.8752999999997
 30
0.0
 10
616.4342844275598
 20
-453.3220999999994
 30
0.0
 10
615.0701844620198
 20
-446.6273999999994
 30
0.0
 10
613.7506844953532
 20
-440.1519000000008
 30
0.0
 10
611.3560845558459
 20
-428.4025000000001
 30
0.0
 10
608.8802846183899
 20
-416.2531999999992
 30
0.0
 10
605.8097846959572
 20
-404.4069
 30
0.0
 10
601.6982847998224
 20
-388.5494999999992
 30
0.0
 10
595.5074849562152
 20
-368.0784999999996
 30
0.0
 10
584.0200852464113
 20
-350.3906999999999
 30
0.0
 10
582.2638852907767
 20
-347.6851999999999
 30
0.0
 10
579.1068853705292
 20
-343.6225999999997
 30
0.0
 10
577.0327854229254
 20
-341.0114999999996
 30
0.0
 10
578.9400853747429
 20
-339.9486999999999
 30
0.0
 10
581.3416853140734
 20
-338.5565999999999
 30
0.0
 10
582.7197852792597
 20
-337.5541000000003
 30
0.0
 10
585.8862851992671
 20
-335.2502999999997
 30
0.0
 10
588.9550851217427
 20
-332.8635999999997
 30
0.0
 10
591.2745850631472
 20
-331.0410000000002
 30
0.0
 10
595.9676849445896
 20
-327.3531000000003
 30
0.0
 10
599.7403848492831
 20
-324.3053
 30
0.0
 10
603.1453847632656
 20
-321.4486999999999
 30
0.0
 10
627.212584155277
 20
-301.2588999999998
 30
0.0
 10
649.5366835913228
 20
-276.6476000000002
 30
0.0
 10
671.391883039214
 20
-246.2070000000003
 30
0.0
 10
671.391883039214
 20
-246.2070000000003
 30
0.0
 10
673.1113829957758
 20
-243.8167999999996
 30
0.0
 10
673.1113829957758
 20
-243.8167999999996
 30
0.0
 10
684.9908826956744
 20
-227.3167000000003
 30
0.0
 10
698.4562823555098
 20
-208.6149999999998
 30
0.0
 10
700.0098823162625
 20
-187.1292000000003
 30
0.0
 10
700.1871823117835
 20
-184.6796000000004
 30
0.0
 10
700.3914823066225
 20
-182.2353000000003
 30
0.0
 10
700.5958823014589
 20
-179.7925999999998
 30
0.0
 10
701.274482284316
 20
-171.6787999999997
 30
0.0
 10
701.9765822665795
 20
-163.2889999999998
 30
0.0
 10
701.6193822756031
 20
-154.8572999999997
 30
0.0
  0
SPLINE
  5
5B
330
56
100
AcDbEntity
  8
Layer 1
370
     0
100
AcDbSpline
210
0.0
220
0.0
230
1.0
 70
    11
 71
     3
 72
    26
 73
    22
 74
     0
 42
0.0000000001
 43
0.0000000001
 12
1.0
 22
0.0
 32
0.0
 13
1.0
 23
0.0
 33
0.0
 40
0.0
 40
0.0
 40
0.0
 40
0.0
 40
1.0
 40
1.0
 40
1.0
 40
2.0
 40
2.0
 40
2.0
 40
3.0
 40
3.0
 40
3.0
 40
4.0
 40
4.0
 40
4.0
 40
5.0
 40
5.0
 40
5.0
 40
6.0
 40
6.0
 40
6.0
 40
7.0
 40
7.0
 40
7.0
 40
7.0
 10
94.83650000000034
 20
-193.7384000000002
 30
0.0
 10
87.0020999999997
 20
-180.2178999999996
 30
0.0
 10
79.46209999999974
 20
-166.6102000000001
 30
0.0
 10
72.42590000000018
 20
-153.2941000000001
 30
0.0
 10
68.17910000000029
 20
-145.2554
 30
0.0
 10
64.65700000000015
 20
-137.7154
 30
0.0
 10
61.65809999999965
 20
-130.2434000000003
 30
0.0
 10
61.41709999999966
 20
-129.6426000000001
 30
0.0
 10
60.69400000000041
 20
-127.0419000000002
 30
0.0
 10
59.99359999999979
 20
-124.5267999999996
 30
0.0
 10
58.82780000000002
 20
-120.3366999999998
 30
0.0
 10
57.94220000000041
 20
-117.2496000000001
 30
0.0
 10
57.22530000000006
 20
-114.9642000000003
 30
0.0
 10
72.80509999999958
 20
-119.8783000000003
 30
0.0
 10
87.60519999999997
 20
-125.3373000000001
 30
0.0
 10
101.6291974326305
 20
-131.1638999999996
 30
0.0
 10
99.58550000000014
 20
-142.7624999999998
 30
0.0
 10
95.73400000000038
 20
-174.6688000000004
 30
0.0
 10
105.9238973241372
 20
-212.3152
 30
0.0
 10
102.2381974172458
 20
-206.3104999999996
 30
0.0
 10
98.54539999999997
 20
-200.1391999999996
 30
0.0
 10
94.83650000000034
 20
-193.7384000000002
 30
0.0
  0
SPLINE
  5
5C
330
56
100
AcDbEntity
  8
Layer 1
370
     0
100
AcDbSpline
210
0.0
220
0.0
230
1.0
 70
    11
 71
     3
 72
    26
 73
    22
 74
     0
 42
0.0000000001
 43
0.0000000001
 12
1.0
 22
0.0
 32
0.0
 13
1.0
 23
0.0
 33
0.0
 40
0.0
 40
0.0
 40
0.0
 40
0.0
 40
1.0
 40
1.0
 40
1.0
 40
2.0
 40
2.0
 40
2.0
 40
3.0
 40
3.0
 40
3.0
 40
4.0
 40
4.0
 40
4.0
 40
5.0
 40
5.0
 40
5.0
 40
6.0
 40
6.0
 40
6.0
 40
7.0
 40
7.0
 40
7.0
 40
7.0
 10
695.2486824365405
 20
-179.3446000000004
 30
0.0
 10
695.0425824417471
 20
-181.8082000000004
 30
0.0
 10
694.8364824469536
 20
-184.2727000000004
 30
0.0
 10
694.6582824514553
 20
-186.7424000000001
 30
0.0
 10
693.2138824879439
 20
-206.7129999999997
 30
0.0
 10
680.2209999999995
 20
-224.7596999999996
 30
0.0
 10
668.7571831057721
 20
-240.6817000000001
 30
0.0
 10
668.7571831057721
 20
-240.6817000000001
 30
0.0
 10
667.0340831493013
 20
-243.0771000000004
 30
0.0
 10
667.0340831493013
 20
-243.0771000000004
 30
0.0
 10
664.9150832028317
 20
-246.0284000000001
 30
0.0
 10
662.7903832565062
 20
-248.9078
 30
0.0
 10
660.6616833102817
 20
-251.7491
 30
0.0
 10
675.3570829390446
 20
-218.8071
 30
0.0
 10
675.8485829266283
 20
-180.5681999999997
 30
0.0
 10
676.1116829199818
 20
-164.7920999999997
 30
0.0
 10
684.5747827061859
 20
-161.9094000000005
 30
0.0
 10
692.7317825001228
 20
-159.8082000000004
 30
0.0
 10
696.3463824088103
 20
-158.6291000000001
 30
0.0
 10
696.4013824074209
 20
-165.5675000000001
 30
0.0
 10
695.817182422179
 20
-172.5555999999997
 30
0.0
 10
695.2486824365405
 20
-179.3446000000004
 30
0.0
  0
ENDBLK
  5
59
330
56
100
AcDbEntity
  8
0
100
AcDbBlockEnd
  0
BLOCK
  5
5F
330
5D
100
AcDbEntity
  8
0
100
AcDbBlockBegin
  2
block 4
 70
     0
 10
0.0
 20
0.0
 30
0.0
  3
block 4
  1

  0
SPLINE
  5
61
330
5D
100
AcDbEntity
  8
Layer 1
370
     0
100
AcDbSpline
210
0.0
220
0.0
230
1.0
 70
    11
 71
     3
 72
    17
 73
    13
 74
     0
 42
0.0000000001
 43
0.0000000001
 12
1.0
 22
0.0
 32
0.0
 13
1.0
 23
0.0
 33
0.0
 40
0.0
 40
0.0
 40
0.0
 40
0.0
 40
1.0
 40
1.0
 40
1.0
 40
2.0
 40
2.0
 40
2.0
 40
3.0
 40
3.0
 40
3.0
 40
4.0
 40
4.0
 40
4.0
 40
4.0
 10
279.0852929497123
 20
-347.8495999999996
 30
0.0
 10
264.7860000000001
 20
-347.8495999999996
 30
0.0
 10
253.1518936048451
 20
-363.8126000000002
 30
0.0
 10
253.1518936048451
 20
-381.2348999999995
 30
0.0
 10
253.1518936048451
 20
-398.6571999999996
 30
0.0
 10
266.5744932657617
 20
-412.8325999999997
 30
0.0
 10
280.8738929045285
 20
-412.8325999999997
 30
0.0
 10
301.2551923896535
 20
-412.8325999999997
 30
0.0
 10
305.7194922768758
 20
-398.6232
 30
0.0
 10
306.8072922493957
 20
-381.2348999999995
 30
0.0
 10
308.2602922126898
 20
-358.0105000000003
 30
0.0
 10
293.3846925884791
 20
-347.8495999999996
 30
0.0
 10
279.0852929497123
 20
-347.8495999999996
 30
0.0
  0
SPLINE
  5
62
330
5D
100
AcDbEntity
  8
Layer 1
370
     0
100
AcDbSpline
210
0.0
220
0.0
230
1.0
 70
    11
 71
     3
 72
    17
 73
    13
 74
     0
 42
0.0000000001
 43
0.0000000001
 12
1.0
 22
0.0
 32
0.0
 13
1.0
 23
0.0
 33
0.0
 40
0.0
 40
0.0
 40
0.0
 40
0.0
 40
1.0
 40
1.0
 40
1.0
 40
2.0
 40
2.0
 40
2.0
 40
3.0
 40
3.0
 40
3.0
 40
4.0
 40
4.0
 40
4.0
 40
4.0
 10
258.5173934693012
 20
-381.2348999999995
 30
0.0
 10
258.5173934693012
 20
-365.7844999999998
 30
0.0
 10
268.5463932159473
 20
-353.2151000000003
 30
0.0
 10
280.8738929045285
 20
-353.2151000000003
 30
0.0
 10
293.2012925931122
 20
-353.2151000000003
 30
0.0
 10
303.2302923397583
 20
-365.7844999999998
 30
0.0
 10
303.2302923397583
 20
-381.2348999999995
 30
0.0
 10
303.2302923397583
 20
-396.6852999999992
 30
0.0
 10
293.2012925931122
 20
-409.2556000000004
 30
0.0
 10
280.8738929045285
 20
-409.2556000000004
 30
0.0
 10
268.5463932159473
 20
-409.2556000000004
 30
0.0
 10
258.5173934693012
 20
-396.6852999999992
 30
0.0
 10
258.5173934693012
 20
-381.2348999999995
 30
0.0
  0
ENDBLK
  5
60
330
5D
100
AcDbEntity
  8
0
100
AcDbBlockEnd
  0
BLOCK
  5
65
330
63
100
AcDbEntity
  8
0
100
AcDbBlockBegin
  2
block 5
 70
     0
 10
0.0
 20
0.0
 30
0.0
  3
block 5
  1

  0
SPLINE
  5
67
330
63
100
AcDbEntity
  8
Layer 1
370
     0
100
AcDbSpline
210
0.0
220
0.0
230
1.0
 70
    11
 71
     3
 72
    17
 73
    13
 74
     0
 42
0.0000000001
 43
0.0000000001
 12
1.0
 22
0.0
 32
0.0
 13
1.0
 23
0.0
 33
0.0
 40
0.0
 40
0.0
 40
0.0
 40
0.0
 40
1.0
 40
1.0
 40
1.0
 40
2.0
 40
2.0
 40
2.0
 40
3.0
 40
3.0
 40
3.0
 40
4.0
 40
4.0
 40
4.0
 40
4.0
 10
487.149387693571
 20
-347.8495999999996
 30
0.0
 10
472.8500000000004
 20
-347.8495999999996
 30
0.0
 10
461.2158883487064
 20
-363.8126000000002
 30
0.0
 10
461.2158883487064
 20
-381.2348999999995
 30
0.0
 10
461.2158883487064
 20
-398.6571999999996
 30
0.0
 10
472.8500000000004
 20
-414.6211000000003
 30
0.0
 10
487.149387693571
 20
-414.6211000000003
 30
0.0
 10
507.6797871749295
 20
-414.6211000000003
 30
0.0
 10
514.8713869932544
 20
-398.6571999999996
 30
0.0
 10
514.8713869932544
 20
-381.2348999999995
 30
0.0
 10
514.8713869932544
 20
-363.8126000000002
 30
0.0
 10
501.4487873323378
 20
-347.8495999999996
 30
0.0
 10
487.149387693571
 20
-347.8495999999996
 30
0.0
  0
SPLINE
  5
68
330
63
100
AcDbEntity
  8
Layer 1
370
     0
100
AcDbSpline
210
0.0
220
0.0
230
1.0
 70
    11
 71
     3
 72
    17
 73
    13
 74
     0
 42
0.0000000001
 43
0.0000000001
 12
1.0
 22
0.0
 32
0.0
 13
1.0
 23
0.0
 33
0.0
 40
0.0
 40
0.0
 40
0.0
 40
0.0
 40
1.0
 40
1.0
 40
1.0
 40
2.0
 40
2.0
 40
2.0
 40
3.0
 40
3.0
 40
3.0
 40
4.0
 40
4.0
 40
4.0
 40
4.0
 10
464.7928882583437
 20
-381.2348999999995
 30
0.0
 10
464.7928882583437
 20
-365.7844999999998
 30
0.0
 10
474.8218880049899
 20
-353.2151000000003
 30
0.0
 10
487.149387693571
 20
-353.2151000000003
 30
0.0
 10
499.4768873821522
 20
-353.2151000000003
 30
0.0
 10
509.5057871288009
 20
-365.7844999999998
 30
0.0
 10
509.5057871288009
 20
-381.2348999999995
 30
0.0
 10
509.5057871288009
 20
-396.6852999999992
 30
0.0
 10
499.4768873821522
 20
-409.2556000000004
 30
0.0
 10
487.149387693571
 20
-409.2556000000004
 30
0.0
 10
474.8218880049899
 20
-409.2556000000004
 30
0.0
 10
464.7928882583437
 20
-396.6852999999992
 30
0.0
 10
464.7928882583437
 20
-381.2348999999995
 30
0.0
  0
ENDBLK
  5
66
330
63
100
AcDbEntity
  8
0
100
AcDbBlockEnd
  0
BLOCK
  5
6B
330
69
100
AcDbEntity
  8
0
100
AcDbBlockBegin
  2
block 6
 70
     0
 10
0.0
 20
0.0
 30
0.0
  3
block 6
  1

  0
SPLINE
  5
6D
330
69
100
AcDbEntity
  8
Layer 1
370
     0
100
AcDbSpline
210
0.0
220
0.0
230
1.0
 70
    11
 71
     3
 72
    17
 73
    13
 74
     0
 42
0.0000000001
 43
0.0000000001
 12
1.0
 22
0.0
 32
0.0
 13
1.0
 23
0.0
 33
0.0
 40
0.0
 40
0.0
 40
0.0
 40
0.0
 40
1.0
 40
1.0
 40
1.0
 40
2.0
 40
2.0
 40
2.0
 40
3.0
 40
3.0
 40
3.0
 40
4.0
 40
4.0
 40
4.0
 40
4.0
 10
370.8960906303764
 20
-417.6026000000002
 30
0.0
 10
359.6803909137088
 20
-417.6026000000002
 30
0.0
 10
346.3973912492656
 20
-423.5750000000007
 30
0.0
 10
347.6453912177385
 20
-428.7808000000005
 30
0.0
 10
349.5451911697455
 20
-436.7052000000003
 30
0.0
 10
356.103291004074
 20
-438.1705000000002
 30
0.0
 10
367.319090720739
 20
-438.1705000000002
 30
0.0
 10
378.5348904374041
 20
-438.1705000000002
 30
0.0
 10
386.9927902237396
 20
-434.1340999999993
 30
0.0
 10
386.9927902237396
 20
-428.7808000000005
 30
0.0
 10
386.9927902237396
 20
-423.4274999999998
 30
0.0
 10
382.1118903470415
 20
-417.6026000000002
 30
0.0
 10
370.8960906303764
 20
-417.6026000000002
 30
0.0
  0
SPLINE
  5
6E
330
69
100
AcDbEntity
  8
Layer 1
370
     0
100
AcDbSpline
210
0.0
220
0.0
230
1.0
 70
    11
 71
     3
 72
    17
 73
    13
 74
     0
 42
0.0000000001
 43
0.0000000001
 12
1.0
 22
0.0
 32
0.0
 13
1.0
 23
0.0
 33
0.0
 40
0.0
 40
0.0
 40
0.0
 40
0.0
 40
1.0
 40
1.0
 40
1.0
 40
2.0
 40
2.0
 40
2.0
 40
3.0
 40
3.0
 40
3.0
 40
4.0
 40
4.0
 40
4.0
 40
4.0
 10
367.319090720739
 20
-434.5935000000009
 30
0.0
 10
357.4926909689748
 20
-434.5935000000009
 30
0.0
 10
351.2224911273734
 20
-431.1509000000005
 30
0.0
 10
351.2224911273734
 20
-428.7808000000005
 30
0.0
 10
351.2224911273734
 20
-426.4107000000004
 30
0.0
 10
357.4926909689748
 20
-422.9681
 30
0.0
 10
367.319090720739
 20
-422.9681
 30
0.0
 10
377.1454904725033
 20
-422.9681
 30
0.0
 10
383.4156903141047
 20
-426.4107000000004
 30
0.0
 10
383.4156903141047
 20
-428.7808000000005
 30
0.0
 10
383.4156903141047
 20
-431.1509000000005
 30
0.0
 10
377.1454904725033
 20
-434.5935000000009
 30
0.0
 10
367.319090720739
 20
-434.5935000000009
 30
0.0
  0
ENDBLK
  5
6C
330
69
100
AcDbEntity
  8
0
100
AcDbBlockEnd
  0
BLOCK
  5
71
330
6F
100
AcDbEntity
  8
0
100
AcDbBlockBegin
  2
block 7
 70
     0
 10
0.0
 20
0.0
 30
0.0
  3
block 7
  1

  0
SPLINE
  5
73
330
6F
100
AcDbEntity
  8
Layer 1
370
     0
100
AcDbSpline
210
0.0
220
0.0
230
1.0
 70
    11
 71
     3
 72
    20
 73
    16
 74
     0
 42
0.0000000001
 43
0.0000000001
 12
1.0
 22
0.0
 32
0.0
 13
1.0
 23
0.0
 33
0.0
 40
0.0
 40
0.0
 40
0.0
 40
0.0
 40
1.0
 40
1.0
 40
1.0
 40
2.0
 40
2.0
 40
2.0
 40
3.0
 40
3.0
 40
3.0
 40
4.0
 40
4.0
 40
4.0
 40
5.0
 40
5.0
 40
5.0
 40
5.0
 10
381.9249999999993
 20
-471.7803000000004
 30
0.0
 10
356.0482910054634
 20
-473.357
 30
0.0
 10
338.1063914587139
 20
-483.5593000000008
 30
0.0
 10
338.1063914587139
 20
-502.5187000000005
 30
0.0
 10
338.1063914587139
 20
-521.6823000000004
 30
0.0
 10
356.7835909868882
 20
-543.9899000000005
 30
0.0
 10
381.9249999999993
 20
-543.9899000000005
 30
0.0
 10
393.2184900664652
 20
-543.9899000000005
 30
0.0
 10
407.2690000000002
 20
-541.1097000000009
 30
0.0
 10
415.7478894973246
 20
-532.5933000000005
 30
0.0
 10
421.3186893565944
 20
-526.9989999999998
 30
0.0
 10
424.0031892887782
 20
-518.9140000000007
 30
0.0
 10
423.9550892899933
 20
-507.8772000000008
 30
0.0
 10
423.8101892936538
 20
-474.4961999999996
 30
0.0
 10
410.8763896203891
 20
-470.0162999999993
 30
0.0
 10
381.9249999999993
 20
-471.7803000000004
 30
0.0
  0
SPLINE
  5
74
330
6F
100
AcDbEntity
  8
Layer 1
370
     0
100
AcDbSpline
210
0.0
220
0.0
230
1.0
 70
    11
 71
     3
 72
    20
 73
    16
 74
     0
 42
0.0000000001
 43
0.0000000001
 12
1.0
 22
0.0
 32
0.0
 13
1.0
 23
0.0
 33
0.0
 40
0.0
 40
0.0
 40
0.0
 40
0.0
 40
1.0
 40
1.0
 40
1.0
 40
2.0
 40
2.0
 40
2.0
 40
3.0
 40
3.0
 40
3.0
 40
4.0
 40
4.0
 40
4.0
 40
5.0
 40
5.0
 40
5.0
 40
5.0
 10
343.47189132317
 20
-502.5187000000005
 30
0.0
 10
343.47189132317
 20
-485.7652999999991
 30
0.0
 10
358.2061909509503
 20
-475.3572999999997
 30
0.0
 10
381.9249999999993
 20
-475.3572999999997
 30
0.0
 10
404.3573897850729
 20
-475.3572999999997
 30
0.0
 10
420.2470893836653
 20
-477.6908000000003
 30
0.0
 10
420.378089380356
 20
-507.8912
 30
0.0
 10
420.421789379252
 20
-517.9289000000008
 30
0.0
 10
418.0777894384664
 20
-525.1843000000008
 30
0.0
 10
413.2126895613692
 20
-530.0694999999996
 30
0.0
 10
407.3222897101732
 20
-535.9851999999992
 30
0.0
 10
397.67318995393
 20
-538.6242999999995
 30
0.0
 10
381.9249999999993
 20
-538.6242999999995
 30
0.0
 10
358.9231909328373
 20
-538.6242999999995
 30
0.0
 10
343.47189132317
 20
-519.9549000000006
 30
0.0
 10
343.47189132317
 20
-502.5187000000005
 30
0.0
  0
ENDBLK
  5
72
330
6F
100
AcDbEntity
  8
0
100
AcDbBlockEnd
  0
ENDSEC
  0
SECTION
  2
ENTITIES
  0
INSERT
  5
42
330
1F
100
AcDbEntity
  8
Layer 1
100
AcDbBlockReference
  2
block 2
 10
0.0
 20
0.0
 30
0.0
  0
ENDSEC
  0
SECTION
  2
OBJECTS
  0
DICTIONARY
  5
C
330
0
100
AcDbDictionary
281
     1
  3
ACAD_GROUP
350
D
  3
ACAD_LAYOUT
350
1A
  3
ACAD_MATERIAL
350
3B
  3
ACAD_MLEADERSTYLE
350
77
  3
ACAD_MLINESTYLE
350
17
  3
ACAD_PLOTSETTINGS
350
19
  3
ACAD_PLOTSTYLENAME
350
E
  3
ACAD_TABLESTYLE
350
76
  3
ACAD_VISUALSTYLE
350
2A
  0
SUN
  5
3F
330
29
100
AcDbSun
 90
        1
290
     0
 63
     7
421
 16777215
 40
1.0
291
     1
 91
  2455826
 92
 54000000
292
     0
 70
     2
 71
   256
280
     1
  0
DICTIONARY
  5
D
102
{ACAD_REACTORS
330
C
102
}
330
C
100
AcDbDictionary
281
     1
  0
DICTIONARY
  5
1A
102
{ACAD_REACTORS
330
C
102
}
330
C
100
AcDbDictionary
281
     1
  3
Layout1
350
1E
  3
Layout2
350
26
  3
Model
350
22
  0
DICTIONARY
  5
3B
102
{ACAD_REACTORS
330
C
102
}
330
C
100
AcDbDictionary
281
     1
  3
ByBlock
350
3D
  3
ByLayer
350
3C
  3
Global
350
3E
  0
DICTIONARY
  5
77
102
{ACAD_REACTORS
330
C
102
}
330
C
100
AcDbDictionary
281
     1
  0
DICTIONARY
  5
17
102
{ACAD_REACTORS
330
C
102
}
330
C
100
AcDbDictionary
281
     1
  3
Standard
350
18
  0
DICTIONARY
  5
19
102
{ACAD_REACTORS
330
C
102
}
330
C
100
AcDbDictionary
281
     1
  0
ACDBDICTIONARYWDFLT
  5
E
102
{ACAD_REACTORS
330
C
102
}
330
C
100
AcDbDictionary
281
     1
  3
Normal
350
F
100
AcDbDictionaryWithDefault
340
F
  0
DICTIONARY
  5
76
102
{ACAD_REACTORS
330
C
102
}
330
C
100
AcDbDictionary
281
     1
  0
DICTIONARY
  5
2A
102
{ACAD_REACTORS
330
C
102
}
330
C
100
AcDbDictionary
281
     1
  3
2dWireframe
350
2F
  3
3D Hidden
350
31
  3
3dWireframe
350
30
  3
Basic
350
32
  3
Brighten
350
36
  3
ColorChange
350
3A
  3
Conceptual
350
34
  3
Dim
350
35
  3
Facepattern
350
39
  3
Flat
350
2B
  3
FlatWithEdges
350
2C
  3
Gouraud
350
2D
  3
GouraudWithEdges
350
2E
  3
Linepattern
350
38
  3
Realistic
350
33
  3
Thicken
350
37
  0
LAYOUT
  5
1E
102
{ACAD_REACTORS
330
1A
102
}
330
1A
100
AcDbPlotSettings
  1

  2
none_device
  4

  6

 40
0.0
 41
0.0
 42
0.0
 43
0.0
 44
0.0
 45
0.0
 46
0.0
 47
0.0
 48
0.0
 49
0.0
140
0.0
141
0.0
142
1.0
143
1.0
 70
   688
 72
     0
 73
     0
 74
     5
  7

 75
    16
 76
     0
 77
     2
 78
   300
147
1.0
148
0.0
149
0.0
100
AcDbLayout
  1
Layout1
 70
     1
 71
     1
 10
0.0
 20
0.0
 11
12.0
 21
9.0
 12
0.0
 22
0.0
 32
0.0
 14
1.000000000000000E+20
 24
1.000000000000000E+20
 34
1.000000000000000E+20
 15
-1.000000000000000E+20
 25
-1.000000000000000E+20
 35
-1.000000000000000E+20
146
0.0
 13
0.0
 23
0.0
 33
0.0
 16
1.0
 26
0.0
 36
0.0
 17
0.0
 27
1.0
 37
0.0
 76
     0
330
1B
  0
LAYOUT
  5
26
102
{ACAD_REACTORS
330
1A
102
}
330
1A
100
AcDbPlotSettings
  1

  2
none_device
  4

  6

 40
0.0
 41
0.0
 42
0.0
 43
0.0
 44
0.0
 45
0.0
 46
0.0
 47
0.0
 48
0.0
 49
0.0
140
0.0
141
0.0
142
1.0
143
1.0
 70
   688
 72
     0
 73
     0
 74
     5
  7

 75
    16
 76
     0
 77
     2
 78
   300
147
1.0
148
0.0
149
0.0
100
AcDbLayout
  1
Layout2
 70
     1
 71
     2
 10
0.0
 20
0.0
 11
0.0
 21
0.0
 12
0.0
 22
0.0
 32
0.0
 14
0.0
 24
0.0
 34
0.0
 15
0.0
 25
0.0
 35
0.0
146
0.0
 13
0.0
 23
0.0
 33
0.0
 16
1.0
 26
0.0
 36
0.0
 17
0.0
 27
1.0
 37
0.0
 76
     0
330
23
  0
LAYOUT
  5
22
102
{ACAD_REACTORS
330
1A
102
}
330
1A
100
AcDbPlotSettings
  1

  2
none_device
  4

  6

 40
0.0
 41
0.0
 42
0.0
 43
0.0
 44
0.0
 45
0.0
 46
0.0
 47
0.0
 48
0.0
 49
0.0
140
0.0
141
0.0
142
1.0
143
1.0
 70
  1712
 72
     0
 73
     0
 74
     0
  7

 75
     0
 76
     0
 77
     2
 78
   300
147
1.0
148
0.0
149
0.0
100
AcDbLayout
  1
Model
 70
     1
 71
     0
 10
0.0
 20
0.0
 11
12.0
 21
9.0
 12
0.0
 22
0.0
 32
0.0
 14
1.000000000000000E+20
 24
1.000000000000000E+20
 34
1.000000000000000E+20
 15
-1.000000000000000E+20
 25
-1.000000000000000E+20
 35
-1.000000000000000E+20
146
0.0
 13
0.0
 23
0.0
 33
0.0
 16
1.0
 26
0.0
 36
0.0
 17
0.0
 27
1.0
 37
0.0
 76
     0
330
1F
331
29
  0
MATERIAL
  5
3D
102
{ACAD_REACTORS
330
3B
102
}
330
3B
100
AcDbMaterial
  1
ByBlock
 72
     1
 94
      127
  0
MATERIAL
  5
3C
102
{ACAD_REACTORS
330
3B
102
}
330
3B
100
AcDbMaterial
  1
ByLayer
 72
     1
 94
      127
  0
MATERIAL
  5
3E
102
{ACAD_REACTORS
330
3B
102
}
330
3B
100
AcDbMaterial
  1
Global
 72
     1
 94
      127
  0
MLINESTYLE
  5
18
102
{ACAD_REACTORS
330
17
102
}
330
17
100
AcDbMlineStyle
  2
Standard
 70
     0
  3

 62
   256
 51
90.0
 52
90.0
 71
     2
 49
0.5
 62
   256
  6
BYLAYER
 49
-0.5
 62
   256
  6
BYLAYER
  0
ACDBPLACEHOLDER
  5
F
102
{ACAD_REACTORS
330
E
102
}
330
E
  0
VISUALSTYLE
  5
2F
102
{ACAD_REACTORS
330
2A
102
}
330
2A
100
AcDbVisualStyle
  2
2dWireframe
 70
     4
177
     2
291
     0
 71
     0
176
     1
 72
     2
176
     1
 73
     0
176
     1
 90
        0
176
     1
 40
-0.6
176
     1
 41
-30.0
176
     1
 62
     5
 63
     7
421
 16777215
176
     1
 74
     1
176
     1
 91
        4
176
     1
 64
     7
176
     1
 65
   257
176
     1
 75
     1
176
     1
175
     1
176
     1
 42
1.0
176
     1
 92
        0
176
     1
 66
   257
176
     1
 43
1.0
176
     1
 76
     1
176
     1
 77
     6
176
     1
 78
     2
176
     1
 67
     7
176
     1
 79
     5
176
     1
170
     0
176
     1
171
     0
176
     1
290
     0
176
     1
 93
        1
176
     1
 44
0.0
176
     1
173
     0
176
     1
  0
VISUALSTYLE
  5
31
102
{ACAD_REACTORS
330
2A
102
}
330
2A
100
AcDbVisualStyle
  2
3D Hidden
 70
     6
177
     2
291
     0
 71
     1
176
     1
 72
     2
176
     1
 73
     2
176
     1
 90
        0
176
     1
 40
-0.6
176
     1
 41
-30.0
176
     1
 62
     5
 63
     7
421
 16777215
176
     1
 74
     2
176
     1
 91
        2
176
     1
 64
     7
176
     1
 65
   257
176
     1
 75
     2
176
     1
175
     1
176
     1
 42
40.0
176
     1
 92
        0
176
     1
 66
   257
176
     1
 43
1.0
176
     1
 76
     1
176
     1
 77
     6
176
     1
 78
     2
176
     1
 67
     7
176
     1
 79
     3
176
     1
170
     0
176
     1
171
     0
176
     1
290
     0
176
     1
 93
        1
176
     1
 44
0.0
176
     1
173
     0
176
     1
  0
VISUALSTYLE
  5
30
102
{ACAD_REACTORS
330
2A
102
}
330
2A
100
AcDbVisualStyle
  2
3dWireframe
 70
     5
177
     2
291
     0
 71
     0
176
     1
 72
     2
176
     1
 73
     0
176
     1
 90
        0
176
     1
 40
-0.6
176
     1
 41
-30.0
176
     1
 62
     5
 63
     7
421
 16777215
176
     1
 74
     1
176
     1
 91
        4
176
     1
 64
     7
176
     1
 65
   257
176
     1
 75
     1
176
     1
175
     1
176
     1
 42
1.0
176
     1
 92
        0
176
     1
 66
   257
176
     1
 43
1.0
176
     1
 76
     1
176
     1
 77
     6
176
     1
 78
     2
176
     1
 67
     7
176
     1
 79
     5
176
     1
170
     0
176
     1
171
     0
176
     1
290
     0
176
     1
 93
        1
176
     1
 44
0.0
176
     1
173
     0
176
     1
  0
VISUALSTYLE
  5
32
102
{ACAD_REACTORS
330
2A
102
}
330
2A
100
AcDbVisualStyle
  2
Basic
 70
     7
177
     2
291
     1
 71
     1
176
     1
 72
     0
176
     1
 73
     1
176
     1
 90
        0
176
     1
 40
-0.6
176
     1
 41
-30.0
176
     1
 62
     5
 63
     7
421
 16777215
176
     1
 74
     0
176
     1
 91
        4
176
     1
 64
     7
176
     1
 65
   257
176
     1
 75
     1
176
     1
175
     1
176
     1
 42
1.0
176
     1
 92
        8
176
     1
 66
     7
176
     1
 43
1.0
176
     1
 76
     1
176
     1
 77
     6
176
     1
 78
     2
176
     1
 67
     7
176
     1
 79
     5
176
     1
170
     0
176
     1
171
     0
176
     1
290
     0
176
     1
 93
        1
176
     1
 44
0.0
176
     1
173
     0
176
     1
  0
VISUALSTYLE
  5
36
102
{ACAD_REACTORS
330
2A
102
}
330
2A
100
AcDbVisualStyle
  2
Brighten
 70
    12
177
     2
291
     1
 71
     2
176
     1
 72
     2
176
     1
 73
     0
176
     1
 90
        0
176
     1
 40
-0.6
176
     1
 41
-30.0
176
     1
 62
     5
 63
     7
421
 16777215
176
     1
 74
     1
176
     1
 91
        4
176
     1
 64
     7
176
     1
 65
   257
176
     1
 75
     1
176
     1
175
     1
176
     1
 42
1.0
176
     1
 92
        8
176
     1
 66
     7
176
     1
 43
1.0
176
     1
 76
     1
176
     1
 77
     6
176
     1
 78
     2
176
     1
 67
     7
176
     1
 79
     5
176
     1
170
     0
176
     1
171
     0
176
     1
290
     0
176
     1
 93
        1
176
     1
 44
50.0
176
     1
173
     0
176
     1
  0
VISUALSTYLE
  5
3A
102
{ACAD_REACTORS
330
2A
102
}
330
2A
100
AcDbVisualStyle
  2
ColorChange
 70
    16
177
     2
291
     1
 71
     2
176
     1
 72
     2
176
     1
 73
     3
176
     1
 90
        0
176
     1
 40
-0.6
176
     1
 41
-30.0
176
     1
 62
     5
 63
     8
421
  8421504
176
     1
 74
     1
176
     1
 91
        4
176
     1
 64
     7
176
     1
 65
   257
176
     1
 75
     1
176
     1
175
     1
176
     1
 42
1.0
176
     1
 92
        8
176
     1
 66
     8
424
  8421504
176
     1
 43
1.0
176
     1
 76
     1
176
     1
 77
     6
176
     1
 78
     2
176
     1
 67
     7
176
     1
 79
     5
176
     1
170
     0
176
     1
171
     0
176
     1
290
     0
176
     1
 93
        1
176
     1
 44
0.0
176
     1
173
     0
176
     1
  0
VISUALSTYLE
  5
34
102
{ACAD_REACTORS
330
2A
102
}
330
2A
100
AcDbVisualStyle
  2
Conceptual
 70
     9
177
     2
291
     0
 71
     3
176
     1
 72
     2
176
     1
 73
     0
176
     1
 90
        0
176
     1
 40
-0.6
176
     1
 41
-30.0
176
     1
 62
     5
 63
     7
421
 16777215
176
     1
 74
     2
176
     1
 91
        2
176
     1
 64
     7
176
     1
 65
   257
176
     1
 75
     1
176
     1
175
     1
176
     1
 42
40.0
176
     1
 92
        8
176
     1
 66
     7
176
     1
 43
1.0
176
     1
 76
     1
176
     1
 77
     6
176
     1
 78
     2
176
     1
 67
     7
176
     1
 79
     3
176
     1
170
     0
176
     1
171
     0
176
     1
290
     0
176
     1
 93
        1
176
     1
 44
0.0
176
     1
173
     0
176
     1
  0
VISUALSTYLE
  5
35
102
{ACAD_REACTORS
330
2A
102
}
330
2A
100
AcDbVisualStyle
  2
Dim
 70
    11
177
     2
291
     1
 71
     2
176
     1
 72
     2
176
     1
 73
     0
176
     1
 90
        0
176
     1
 40
-0.6
176
     1
 41
-30.0
176
     1
 62
     5
 63
     7
421
 16777215
176
     1
 74
     1
176
     1
 91
        4
176
     1
 64
     7
176
     1
 65
   257
176
     1
 75
     1
176
     1
175
     1
176
     1
 42
1.0
176
     1
 92
        8
176
     1
 66
     7
176
     1
 43
1.0
176
     1
 76
     1
176
     1
 77
     6
176
     1
 78
     2
176
     1
 67
     7
176
     1
 79
     5
176
     1
170
     0
176
     1
171
     0
176
     1
290
     0
176
     1
 93
        1
176
     1
 44
-50.0
176
     1
173
     0
176
     1
  0
VISUALSTYLE
  5
39
102
{ACAD_REACTORS
330
2A
102
}
330
2A
100
AcDbVisualStyle
  2
Facepattern
 70
    15
177
     2
291
     1
 71
     2
176
     1
 72
     2
176
     1
 73
     0
176
     1
 90
        0
176
     1
 40
-0.6
176
     1
 41
-30.0
176
     1
 62
     5
 63
     7
421
 16777215
176
     1
 74
     1
176
     1
 91
        4
176
     1
 64
     7
176
     1
 65
   257
176
     1
 75
     1
176
     1
175
     1
176
     1
 42
1.0
176
     1
 92
        8
176
     1
 66
     7
176
     1
 43
1.0
176
     1
 76
     1
176
     1
 77
     6
176
     1
 78
     2
176
     1
 67
     7
176
     1
 79
     5
176
     1
170
     0
176
     1
171
     0
176
     1
290
     0
176
     1
 93
        1
176
     1
 44
0.0
176
     1
173
     0
176
     1
  0
VISUALSTYLE
  5
2B
102
{ACAD_REACTORS
330
2A
102
}
330
2A
100
AcDbVisualStyle
  2
Flat
 70
     0
177
     2
291
     1
 71
     2
176
     1
 72
     1
176
     1
 73
     1
176
     1
 90
        2
176
     1
 40
-0.6
176
     1
 41
30.0
176
     1
 62
     5
 63
     7
421
 16777215
176
     1
 74
     0
176
     1
 91
        4
176
     1
 64
     7
176
     1
 65
   257
176
     1
 75
     1
176
     1
175
     1
176
     1
 42
1.0
176
     1
 92
        8
176
     1
 66
     7
176
     1
 43
1.0
176
     1
 76
     1
176
     1
 77
     6
176
     1
 78
     2
176
     1
 67
     7
176
     1
 79
     5
176
     1
170
     0
176
     1
171
     0
176
     1
290
     0
176
     1
 93
       13
176
     1
 44
0.0
176
     1
173
     0
176
     1
  0
VISUALSTYLE
  5
2C
102
{ACAD_REACTORS
330
2A
102
}
330
2A
100
AcDbVisualStyle
  2
FlatWithEdges
 70
     1
177
     2
291
     1
 71
     2
176
     1
 72
     1
176
     1
 73
     1
176
     1
 90
        2
176
     1
 40
-0.6
176
     1
 41
30.0
176
     1
 62
     5
 63
     7
421
 16777215
176
     1
 74
     1
176
     1
 91
        4
176
     1
 64
     7
176
     1
 65
   257
176
     1
 75
     1
176
     1
175
     1
176
     1
 42
1.0
176
     1
 92
        0
176
     1
 66
   257
176
     1
 43
1.0
176
     1
 76
     1
176
     1
 77
     6
176
     1
 78
     2
176
     1
 67
     7
176
     1
 79
     5
176
     1
170
     0
176
     1
171
     0
176
     1
290
     0
176
     1
 93
       13
176
     1
 44
0.0
176
     1
173
     0
176
     1
  0
VISUALSTYLE
  5
2D
102
{ACAD_REACTORS
330
2A
102
}
330
2A
100
AcDbVisualStyle
  2
Gouraud
 70
     2
177
     2
291
     1
 71
     2
176
     1
 72
     2
176
     1
 73
     1
176
     1
 90
        2
176
     1
 40
-0.6
176
     1
 41
30.0
176
     1
 62
     5
 63
     7
421
 16777215
176
     1
 74
     0
176
     1
 91
        4
176
     1
 64
     7
176
     1
 65
   257
176
     1
 75
     1
176
     1
175
     1
176
     1
 42
1.0
176
     1
 92
        0
176
     1
 66
     7
176
     1
 43
1.0
176
     1
 76
     1
176
     1
 77
     6
176
     1
 78
     2
176
     1
 67
     7
176
     1
 79
     5
176
     1
170
     0
176
     1
171
     0
176
     1
290
     0
176
     1
 93
       13
176
     1
 44
0.0
176
     1
173
     0
176
     1
  0
VISUALSTYLE
  5
2E
102
{ACAD_REACTORS
330
2A
102
}
330
2A
100
AcDbVisualStyle
  2
GouraudWithEdges
 70
     3
177
     2
291
     1
 71
     2
176
     1
 72
     2
176
     1
 73
     1
176
     1
 90
        2
176
     1
 40
-0.6
176
     1
 41
30.0
176
     1
 62
     5
 63
     7
421
 16777215
176
     1
 74
     1
176
     1
 91
        4
176
     1
 64
     7
176
     1
 65
   257
176
     1
 75
     1
176
     1
175
     1
176
     1
 42
1.0
176
     1
 92
        0
176
     1
 66
   257
176
     1
 43
1.0
176
     1
 76
     1
176
     1
 77
     6
176
     1
 78
     2
176
     1
 67
     7
176
     1
 79
     5
176
     1
170
     0
176
     1
171
     0
176
     1
290
     0
176
     1
 93
       13
176
     1
 44
0.0
176
     1
173
     0
176
     1
  0
VISUALSTYLE
  5
38
102
{ACAD_REACTORS
330
2A
102
}
330
2A
100
AcDbVisualStyle
  2
Linepattern
 70
    14
177
     2
291
     1
 71
     2
176
     1
 72
     2
176
     1
 73
     0
176
     1
 90
        0
176
     1
 40
-0.6
176
     1
 41
-30.0
176
     1
 62
     5
 63
     7
421
 16777215
176
     1
 74
     1
176
     1
 91
        4
176
     1
 64
     7
176
     1
 65
   257
176
     1
 75
     7
176
     1
175
     7
176
     1
 42
1.0
176
     1
 92
        8
176
     1
 66
     7
176
     1
 43
1.0
176
     1
 76
     1
176
     1
 77
     6
176
     1
 78
     2
176
     1
 67
     7
176
     1
 79
     5
176
     1
170
     0
176
     1
171
     0
176
     1
290
     0
176
     1
 93
        1
176
     1
 44
0.0
176
     1
173
     0
176
     1
  0
VISUALSTYLE
  5
33
102
{ACAD_REACTORS
330
2A
102
}
330
2A
100
AcDbVisualStyle
  2
Realistic
 70
     8
177
     2
291
     0
 71
     2
176
     1
 72
     2
176
     1
 73
     0
176
     1
 90
        0
176
     1
 40
-0.6
176
     1
 41
-30.0
176
     1
 62
     5
 63
     7
421
 16777215
176
     1
 74
     1
176
     1
 91
        0
176
     1
 64
     7
176
     1
 65
   257
176
     1
 75
     1
176
     1
175
     1
176
     1
 42
1.0
176
     1
 92
        8
176
     1
 66
     8
424
  7895160
176
     1
 43
1.0
176
     1
 76
     1
176
     1
 77
     6
176
     1
 78
     2
176
     1
 67
     7
176
     1
 79
     5
176
     1
170
     0
176
     1
171
     0
176
     1
290
     0
176
     1
 93
       13
176
     1
 44
0.0
176
     1
173
     0
176
     1
  0
VISUALSTYLE
  5
37
102
{ACAD_REACTORS
330
2A
102
}
330
2A
100
AcDbVisualStyle
  2
Thicken
 70
    13
177
     2
291
     1
 71
     2
176
     1
 72
     2
176
     1
 73
     0
176
     1
 90
        0
176
     1
 40
-0.6
176
     1
 41
-30.0
176
     1
 62
     5
 63
     7
421
 16777215
176
     1
 74
     1
176
     1
 91
        4
176
     1
 64
     7
176
     1
 65
   257
176
     1
 75
     1
176
     1
175
     1
176
     1
 42
1.0
176
     1
 92
       12
176
     1
 66
     7
176
     1
 43
1.0
176
     1
 76
     1
176
     1
 77
     6
176
     1
 78
     2
176
     1
 67
     7
176
     1
 79
     5
176
     1
170
     0
176
     1
171
     0
176
     1
290
     0
176
     1
 93
        1
176
     1
 44
0.0
176
     1
173
     0
176
     1
  0
ENDSEC
  0
EOF
