<svg width="300" height="300" viewBox="0 0 300 300" fill="none" xmlns="http://www.w3.org/2000/svg">
<g clip-path="url(#clip0)">
<path d="M15 57.9H114V88.8C114 92.1 116.7 94.8 120 94.8C123.3 94.8 126 92.1 126 88.8V57.9H285C288.3 57.9 291 55.2 291 51.9C291 48.6 288.3 45.9 285 45.9H126V15C126 11.7 123.3 9 120 9C116.7 9 114 11.7 114 15V45.9H15C11.7 45.9 9 48.6 9 51.9C9 55.2 11.7 57.9 15 57.9Z" fill="white"/>
<path d="M285 144H216V113.1C216 109.8 213.3 107.1 210 107.1C206.7 107.1 204 109.8 204 113.1V144H15C11.7 144 9 146.7 9 150C9 153.3 11.7 156 15 156H204V186.9C204 190.2 206.7 192.9 210 192.9C213.3 192.9 216 190.2 216 186.9V156H285C288.3 156 291 153.3 291 150C291 146.7 288.3 144 285 144Z" fill="white"/>
<path d="M285 242.1H96V211.2C96 207.9 93.3 205.2 90 205.2C86.7 205.2 84 207.9 84 211.2V242.1H15C11.7 242.1 9 244.8 9 248.1C9 251.4 11.7 254.1 15 254.1H84V285C84 288.3 86.7 291 90 291C93.3 291 96 288.3 96 285V254.1H285C288.3 254.1 291 251.4 291 248.1C291 244.8 288.3 242.1 285 242.1Z" fill="white"/>
<path d="M129.113 13.718C129.113 12.494 129.389 11.396 129.941 10.424C130.493 9.44 131.243 8.672 132.191 8.12C133.151 7.568 134.213 7.292 135.377 7.292C136.745 7.292 137.939 7.622 138.959 8.282C139.979 8.942 140.723 9.878 141.191 11.09H139.229C138.881 10.334 138.377 9.752 137.717 9.344C137.069 8.936 136.289 8.732 135.377 8.732C134.501 8.732 133.715 8.936 133.019 9.344C132.323 9.752 131.777 10.334 131.381 11.09C130.985 11.834 130.787 12.71 130.787 13.718C130.787 14.714 130.985 15.59 131.381 16.346C131.777 17.09 132.323 17.666 133.019 18.074C133.715 18.482 134.501 18.686 135.377 18.686C136.289 18.686 137.069 18.488 137.717 18.092C138.377 17.684 138.881 17.102 139.229 16.346H141.191C140.723 17.546 139.979 18.476 138.959 19.136C137.939 19.784 136.745 20.108 135.377 20.108C134.213 20.108 133.151 19.838 132.191 19.298C131.243 18.746 130.493 17.984 129.941 17.012C129.389 16.04 129.113 14.942 129.113 13.718ZM143.017 15.032C143.017 14.024 143.221 13.142 143.629 12.386C144.037 11.618 144.595 11.024 145.303 10.604C146.023 10.184 146.821 9.974 147.697 9.974C148.561 9.974 149.311 10.16 149.947 10.532C150.583 10.904 151.057 11.372 151.369 11.936V10.136H153.025V20H151.369V18.164C151.045 18.74 150.559 19.22 149.911 19.604C149.275 19.976 148.531 20.162 147.679 20.162C146.803 20.162 146.011 19.946 145.303 19.514C144.595 19.082 144.037 18.476 143.629 17.696C143.221 16.916 143.017 16.028 143.017 15.032ZM151.369 15.05C151.369 14.306 151.219 13.658 150.919 13.106C150.619 12.554 150.211 12.134 149.695 11.846C149.191 11.546 148.633 11.396 148.021 11.396C147.409 11.396 146.851 11.54 146.347 11.828C145.843 12.116 145.441 12.536 145.141 13.088C144.841 13.64 144.691 14.288 144.691 15.032C144.691 15.788 144.841 16.448 145.141 17.012C145.441 17.564 145.843 17.99 146.347 18.29C146.851 18.578 147.409 18.722 148.021 18.722C148.633 18.722 149.191 18.578 149.695 18.29C150.211 17.99 150.619 17.564 150.919 17.012C151.219 16.448 151.369 15.794 151.369 15.05ZM157.791 11.486V17.3C157.791 17.78 157.893 18.122 158.097 18.326C158.301 18.518 158.655 18.614 159.159 18.614H160.365V20H158.889C157.977 20 157.293 19.79 156.837 19.37C156.381 18.95 156.153 18.26 156.153 17.3V11.486H154.875V10.136H156.153V7.652H157.791V10.136H160.365V11.486H157.791ZM171.35 14.69C171.35 15.002 171.332 15.332 171.296 15.68H163.412C163.472 16.652 163.802 17.414 164.402 17.966C165.014 18.506 165.752 18.776 166.616 18.776C167.324 18.776 167.912 18.614 168.38 18.29C168.86 17.954 169.196 17.51 169.388 16.958H171.152C170.888 17.906 170.36 18.68 169.568 19.28C168.776 19.868 167.792 20.162 166.616 20.162C165.68 20.162 164.84 19.952 164.096 19.532C163.364 19.112 162.788 18.518 162.368 17.75C161.948 16.97 161.738 16.07 161.738 15.05C161.738 14.03 161.942 13.136 162.35 12.368C162.758 11.6 163.328 11.012 164.06 10.604C164.804 10.184 165.656 9.974 166.616 9.974C167.552 9.974 168.38 10.178 169.1 10.586C169.82 10.994 170.372 11.558 170.756 12.278C171.152 12.986 171.35 13.79 171.35 14.69ZM169.658 14.348C169.658 13.724 169.52 13.19 169.244 12.746C168.968 12.29 168.59 11.948 168.11 11.72C167.642 11.48 167.12 11.36 166.544 11.36C165.716 11.36 165.008 11.624 164.42 12.152C163.844 12.68 163.514 13.412 163.43 14.348H169.658ZM177.58 9.974C178.432 9.974 179.176 10.16 179.812 10.532C180.46 10.904 180.94 11.372 181.252 11.936V10.136H182.908V20.216C182.908 21.116 182.716 21.914 182.332 22.61C181.948 23.318 181.396 23.87 180.676 24.266C179.968 24.662 179.14 24.86 178.192 24.86C176.896 24.86 175.816 24.554 174.952 23.942C174.088 23.33 173.578 22.496 173.422 21.44H175.042C175.222 22.04 175.594 22.52 176.158 22.88C176.722 23.252 177.4 23.438 178.192 23.438C179.092 23.438 179.824 23.156 180.388 22.592C180.964 22.028 181.252 21.236 181.252 20.216V18.146C180.928 18.722 180.448 19.202 179.812 19.586C179.176 19.97 178.432 20.162 177.58 20.162C176.704 20.162 175.906 19.946 175.186 19.514C174.478 19.082 173.92 18.476 173.512 17.696C173.104 16.916 172.9 16.028 172.9 15.032C172.9 14.024 173.104 13.142 173.512 12.386C173.92 11.618 174.478 11.024 175.186 10.604C175.906 10.184 176.704 9.974 177.58 9.974ZM181.252 15.05C181.252 14.306 181.102 13.658 180.802 13.106C180.502 12.554 180.094 12.134 179.578 11.846C179.074 11.546 178.516 11.396 177.904 11.396C177.292 11.396 176.734 11.54 176.23 11.828C175.726 12.116 175.324 12.536 175.024 13.088C174.724 13.64 174.574 14.288 174.574 15.032C174.574 15.788 174.724 16.448 175.024 17.012C175.324 17.564 175.726 17.99 176.23 18.29C176.734 18.578 177.292 18.722 177.904 18.722C178.516 18.722 179.074 18.578 179.578 18.29C180.094 17.99 180.502 17.564 180.802 17.012C181.102 16.448 181.252 15.794 181.252 15.05ZM189.978 20.162C189.054 20.162 188.214 19.952 187.458 19.532C186.714 19.112 186.126 18.518 185.694 17.75C185.274 16.97 185.064 16.07 185.064 15.05C185.064 14.042 185.28 13.154 185.712 12.386C186.156 11.606 186.756 11.012 187.512 10.604C188.268 10.184 189.114 9.974 190.05 9.974C190.986 9.974 191.832 10.184 192.588 10.604C193.344 11.012 193.938 11.6 194.37 12.368C194.814 13.136 195.036 14.03 195.036 15.05C195.036 16.07 194.808 16.97 194.352 17.75C193.908 18.518 193.302 19.112 192.534 19.532C191.766 19.952 190.914 20.162 189.978 20.162ZM189.978 18.722C190.566 18.722 191.118 18.584 191.634 18.308C192.15 18.032 192.564 17.618 192.876 17.066C193.2 16.514 193.362 15.842 193.362 15.05C193.362 14.258 193.206 13.586 192.894 13.034C192.582 12.482 192.174 12.074 191.67 11.81C191.166 11.534 190.62 11.396 190.032 11.396C189.432 11.396 188.88 11.534 188.376 11.81C187.884 12.074 187.488 12.482 187.188 13.034C186.888 13.586 186.738 14.258 186.738 15.05C186.738 15.854 186.882 16.532 187.17 17.084C187.47 17.636 187.866 18.05 188.358 18.326C188.85 18.59 189.39 18.722 189.978 18.722ZM198.828 11.738C199.116 11.174 199.524 10.736 200.052 10.424C200.592 10.112 201.246 9.956 202.014 9.956V11.648H201.582C199.746 11.648 198.828 12.644 198.828 14.636V20H197.19V10.136H198.828V11.738ZM212.401 10.136L206.461 24.644H204.769L206.713 19.892L202.735 10.136H204.553L207.649 18.128L210.709 10.136H212.401Z" fill="white"/>
<path d="M218.891 111.718C218.891 110.494 219.167 109.396 219.719 108.424C220.271 107.44 221.021 106.672 221.969 106.12C222.929 105.568 223.991 105.292 225.155 105.292C226.523 105.292 227.717 105.622 228.737 106.282C229.757 106.942 230.501 107.878 230.969 109.09H229.007C228.659 108.334 228.155 107.752 227.495 107.344C226.847 106.936 226.067 106.732 225.155 106.732C224.279 106.732 223.493 106.936 222.797 107.344C222.101 107.752 221.555 108.334 221.159 109.09C220.763 109.834 220.565 110.71 220.565 111.718C220.565 112.714 220.763 113.59 221.159 114.346C221.555 115.09 222.101 115.666 222.797 116.074C223.493 116.482 224.279 116.686 225.155 116.686C226.067 116.686 226.847 116.488 227.495 116.092C228.155 115.684 228.659 115.102 229.007 114.346H230.969C230.501 115.546 229.757 116.476 228.737 117.136C227.717 117.784 226.523 118.108 225.155 118.108C223.991 118.108 222.929 117.838 221.969 117.298C221.021 116.746 220.271 115.984 219.719 115.012C219.167 114.04 218.891 112.942 218.891 111.718ZM237.709 118.162C236.785 118.162 235.945 117.952 235.189 117.532C234.445 117.112 233.857 116.518 233.425 115.75C233.005 114.97 232.795 114.07 232.795 113.05C232.795 112.042 233.011 111.154 233.443 110.386C233.887 109.606 234.487 109.012 235.243 108.604C235.999 108.184 236.845 107.974 237.781 107.974C238.717 107.974 239.563 108.184 240.319 108.604C241.075 109.012 241.669 109.6 242.101 110.368C242.545 111.136 242.767 112.03 242.767 113.05C242.767 114.07 242.539 114.97 242.083 115.75C241.639 116.518 241.033 117.112 240.265 117.532C239.497 117.952 238.645 118.162 237.709 118.162ZM237.709 116.722C238.297 116.722 238.849 116.584 239.365 116.308C239.881 116.032 240.295 115.618 240.607 115.066C240.931 114.514 241.093 113.842 241.093 113.05C241.093 112.258 240.937 111.586 240.625 111.034C240.313 110.482 239.905 110.074 239.401 109.81C238.897 109.534 238.351 109.396 237.763 109.396C237.163 109.396 236.611 109.534 236.107 109.81C235.615 110.074 235.219 110.482 234.919 111.034C234.619 111.586 234.469 112.258 234.469 113.05C234.469 113.854 234.613 114.532 234.901 115.084C235.201 115.636 235.597 116.05 236.089 116.326C236.581 116.59 237.121 116.722 237.709 116.722ZM246.559 104.68V118H244.921V104.68H246.559ZM250.989 104.68V118H249.351V104.68H250.989ZM262.781 112.69C262.781 113.002 262.763 113.332 262.727 113.68H254.843C254.903 114.652 255.233 115.414 255.833 115.966C256.445 116.506 257.183 116.776 258.047 116.776C258.755 116.776 259.343 116.614 259.811 116.29C260.291 115.954 260.627 115.51 260.819 114.958H262.583C262.319 115.906 261.791 116.68 260.999 117.28C260.207 117.868 259.223 118.162 258.047 118.162C257.111 118.162 256.271 117.952 255.527 117.532C254.795 117.112 254.219 116.518 253.799 115.75C253.379 114.97 253.169 114.07 253.169 113.05C253.169 112.03 253.373 111.136 253.781 110.368C254.189 109.6 254.759 109.012 255.491 108.604C256.235 108.184 257.087 107.974 258.047 107.974C258.983 107.974 259.811 108.178 260.531 108.586C261.251 108.994 261.803 109.558 262.187 110.278C262.583 110.986 262.781 111.79 262.781 112.69ZM261.089 112.348C261.089 111.724 260.951 111.19 260.675 110.746C260.399 110.29 260.021 109.948 259.541 109.72C259.073 109.48 258.551 109.36 257.975 109.36C257.147 109.36 256.439 109.624 255.851 110.152C255.275 110.68 254.945 111.412 254.861 112.348H261.089ZM269.011 107.974C269.863 107.974 270.607 108.16 271.243 108.532C271.891 108.904 272.371 109.372 272.683 109.936V108.136H274.339V118.216C274.339 119.116 274.147 119.914 273.763 120.61C273.379 121.318 272.827 121.87 272.107 122.266C271.399 122.662 270.571 122.86 269.623 122.86C268.327 122.86 267.247 122.554 266.383 121.942C265.519 121.33 265.009 120.496 264.853 119.44H266.473C266.653 120.04 267.025 120.52 267.589 120.88C268.153 121.252 268.831 121.438 269.623 121.438C270.523 121.438 271.255 121.156 271.819 120.592C272.395 120.028 272.683 119.236 272.683 118.216V116.146C272.359 116.722 271.879 117.202 271.243 117.586C270.607 117.97 269.863 118.162 269.011 118.162C268.135 118.162 267.337 117.946 266.617 117.514C265.909 117.082 265.351 116.476 264.943 115.696C264.535 114.916 264.331 114.028 264.331 113.032C264.331 112.024 264.535 111.142 264.943 110.386C265.351 109.618 265.909 109.024 266.617 108.604C267.337 108.184 268.135 107.974 269.011 107.974ZM272.683 113.05C272.683 112.306 272.533 111.658 272.233 111.106C271.933 110.554 271.525 110.134 271.009 109.846C270.505 109.546 269.947 109.396 269.335 109.396C268.723 109.396 268.165 109.54 267.661 109.828C267.157 110.116 266.755 110.536 266.455 111.088C266.155 111.64 266.005 112.288 266.005 113.032C266.005 113.788 266.155 114.448 266.455 115.012C266.755 115.564 267.157 115.99 267.661 116.29C268.165 116.578 268.723 116.722 269.335 116.722C269.947 116.722 270.505 116.578 271.009 116.29C271.525 115.99 271.933 115.564 272.233 115.012C272.533 114.448 272.683 113.794 272.683 113.05ZM286.107 112.69C286.107 113.002 286.089 113.332 286.053 113.68H278.169C278.229 114.652 278.559 115.414 279.159 115.966C279.771 116.506 280.509 116.776 281.373 116.776C282.081 116.776 282.669 116.614 283.137 116.29C283.617 115.954 283.953 115.51 284.145 114.958H285.909C285.645 115.906 285.117 116.68 284.325 117.28C283.533 117.868 282.549 118.162 281.373 118.162C280.437 118.162 279.597 117.952 278.853 117.532C278.121 117.112 277.545 116.518 277.125 115.75C276.705 114.97 276.495 114.07 276.495 113.05C276.495 112.03 276.699 111.136 277.107 110.368C277.515 109.6 278.085 109.012 278.817 108.604C279.561 108.184 280.413 107.974 281.373 107.974C282.309 107.974 283.137 108.178 283.857 108.586C284.577 108.994 285.129 109.558 285.513 110.278C285.909 110.986 286.107 111.79 286.107 112.69ZM284.415 112.348C284.415 111.724 284.277 111.19 284.001 110.746C283.725 110.29 283.347 109.948 282.867 109.72C282.399 109.48 281.877 109.36 281.301 109.36C280.473 109.36 279.765 109.624 279.177 110.152C278.601 110.68 278.271 111.412 278.187 112.348H284.415Z" fill="white"/>
<path d="M101.827 213.668H106.219V215H100.189V202.454H101.827V213.668ZM112.26 215.162C111.336 215.162 110.496 214.952 109.74 214.532C108.996 214.112 108.408 213.518 107.976 212.75C107.556 211.97 107.346 211.07 107.346 210.05C107.346 209.042 107.562 208.154 107.994 207.386C108.438 206.606 109.038 206.012 109.794 205.604C110.55 205.184 111.396 204.974 112.332 204.974C113.268 204.974 114.114 205.184 114.87 205.604C115.626 206.012 116.22 206.6 116.652 207.368C117.096 208.136 117.318 209.03 117.318 210.05C117.318 211.07 117.09 211.97 116.634 212.75C116.19 213.518 115.584 214.112 114.816 214.532C114.048 214.952 113.196 215.162 112.26 215.162ZM112.26 213.722C112.848 213.722 113.4 213.584 113.916 213.308C114.432 213.032 114.846 212.618 115.158 212.066C115.482 211.514 115.644 210.842 115.644 210.05C115.644 209.258 115.488 208.586 115.176 208.034C114.864 207.482 114.456 207.074 113.952 206.81C113.448 206.534 112.902 206.396 112.314 206.396C111.714 206.396 111.162 206.534 110.658 206.81C110.166 207.074 109.77 207.482 109.47 208.034C109.17 208.586 109.02 209.258 109.02 210.05C109.02 210.854 109.164 211.532 109.452 212.084C109.752 212.636 110.148 213.05 110.64 213.326C111.132 213.59 111.672 213.722 112.26 213.722ZM118.86 210.05C118.86 209.03 119.064 208.142 119.472 207.386C119.88 206.618 120.444 206.024 121.164 205.604C121.896 205.184 122.73 204.974 123.666 204.974C124.878 204.974 125.874 205.268 126.654 205.856C127.446 206.444 127.968 207.26 128.22 208.304H126.456C126.288 207.704 125.958 207.23 125.466 206.882C124.986 206.534 124.386 206.36 123.666 206.36C122.73 206.36 121.974 206.684 121.398 207.332C120.822 207.968 120.534 208.874 120.534 210.05C120.534 211.238 120.822 212.156 121.398 212.804C121.974 213.452 122.73 213.776 123.666 213.776C124.386 213.776 124.986 213.608 125.466 213.272C125.946 212.936 126.276 212.456 126.456 211.832H128.22C127.956 212.84 127.428 213.65 126.636 214.262C125.844 214.862 124.854 215.162 123.666 215.162C122.73 215.162 121.896 214.952 121.164 214.532C120.444 214.112 119.88 213.518 119.472 212.75C119.064 211.982 118.86 211.082 118.86 210.05ZM129.794 210.032C129.794 209.024 129.998 208.142 130.406 207.386C130.814 206.618 131.372 206.024 132.08 205.604C132.8 205.184 133.598 204.974 134.474 204.974C135.338 204.974 136.088 205.16 136.724 205.532C137.36 205.904 137.834 206.372 138.146 206.936V205.136H139.802V215H138.146V213.164C137.822 213.74 137.336 214.22 136.688 214.604C136.052 214.976 135.308 215.162 134.456 215.162C133.58 215.162 132.788 214.946 132.08 214.514C131.372 214.082 130.814 213.476 130.406 212.696C129.998 211.916 129.794 211.028 129.794 210.032ZM138.146 210.05C138.146 209.306 137.996 208.658 137.696 208.106C137.396 207.554 136.988 207.134 136.472 206.846C135.968 206.546 135.41 206.396 134.798 206.396C134.186 206.396 133.628 206.54 133.124 206.828C132.62 207.116 132.218 207.536 131.918 208.088C131.618 208.64 131.468 209.288 131.468 210.032C131.468 210.788 131.618 211.448 131.918 212.012C132.218 212.564 132.62 212.99 133.124 213.29C133.628 213.578 134.186 213.722 134.798 213.722C135.41 213.722 135.968 213.578 136.472 213.29C136.988 212.99 137.396 212.564 137.696 212.012C137.996 211.448 138.146 210.794 138.146 210.05ZM144.568 206.486V212.3C144.568 212.78 144.67 213.122 144.874 213.326C145.078 213.518 145.432 213.614 145.936 213.614H147.142V215H145.666C144.754 215 144.07 214.79 143.614 214.37C143.158 213.95 142.93 213.26 142.93 212.3V206.486H141.652V205.136H142.93V202.652H144.568V205.136H147.142V206.486H144.568ZM149.972 203.534C149.66 203.534 149.396 203.426 149.18 203.21C148.964 202.994 148.856 202.73 148.856 202.418C148.856 202.106 148.964 201.842 149.18 201.626C149.396 201.41 149.66 201.302 149.972 201.302C150.272 201.302 150.524 201.41 150.728 201.626C150.944 201.842 151.052 202.106 151.052 202.418C151.052 202.73 150.944 202.994 150.728 203.21C150.524 203.426 150.272 203.534 149.972 203.534ZM150.764 205.136V215H149.126V205.136H150.764ZM157.858 215.162C156.934 215.162 156.094 214.952 155.338 214.532C154.594 214.112 154.006 213.518 153.574 212.75C153.154 211.97 152.944 211.07 152.944 210.05C152.944 209.042 153.16 208.154 153.592 207.386C154.036 206.606 154.636 206.012 155.392 205.604C156.148 205.184 156.994 204.974 157.93 204.974C158.866 204.974 159.712 205.184 160.468 205.604C161.224 206.012 161.818 206.6 162.25 207.368C162.694 208.136 162.916 209.03 162.916 210.05C162.916 211.07 162.688 211.97 162.232 212.75C161.788 213.518 161.182 214.112 160.414 214.532C159.646 214.952 158.794 215.162 157.858 215.162ZM157.858 213.722C158.446 213.722 158.998 213.584 159.514 213.308C160.03 213.032 160.444 212.618 160.756 212.066C161.08 211.514 161.242 210.842 161.242 210.05C161.242 209.258 161.086 208.586 160.774 208.034C160.462 207.482 160.054 207.074 159.55 206.81C159.046 206.534 158.5 206.396 157.912 206.396C157.312 206.396 156.76 206.534 156.256 206.81C155.764 207.074 155.368 207.482 155.068 208.034C154.768 208.586 154.618 209.258 154.618 210.05C154.618 210.854 154.762 211.532 155.05 212.084C155.35 212.636 155.746 213.05 156.238 213.326C156.73 213.59 157.27 213.722 157.858 213.722ZM169.876 204.956C171.076 204.956 172.048 205.322 172.792 206.054C173.536 206.774 173.908 207.818 173.908 209.186V215H172.288V209.42C172.288 208.436 172.042 207.686 171.55 207.17C171.058 206.642 170.386 206.378 169.534 206.378C168.67 206.378 167.98 206.648 167.464 207.188C166.96 207.728 166.708 208.514 166.708 209.546V215H165.07V205.136H166.708V206.54C167.032 206.036 167.47 205.646 168.022 205.37C168.586 205.094 169.204 204.956 169.876 204.956Z" fill="white"/>
<path d="M210.924 297.072C210.716 297.072 210.54 297 210.396 296.856C210.252 296.712 210.18 296.536 210.18 296.328C210.18 296.12 210.252 295.944 210.396 295.8C210.54 295.656 210.716 295.584 210.924 295.584C211.124 295.584 211.292 295.656 211.428 295.8C211.572 295.944 211.644 296.12 211.644 296.328C211.644 296.536 211.572 296.712 211.428 296.856C211.292 297 211.124 297.072 210.924 297.072ZM213.444 297.072C213.236 297.072 213.06 297 212.916 296.856C212.772 296.712 212.7 296.536 212.7 296.328C212.7 296.12 212.772 295.944 212.916 295.8C213.06 295.656 213.236 295.584 213.444 295.584C213.644 295.584 213.812 295.656 213.948 295.8C214.092 295.944 214.164 296.12 214.164 296.328C214.164 296.536 214.092 296.712 213.948 296.856C213.812 297 213.644 297.072 213.444 297.072ZM215.963 297.072C215.755 297.072 215.579 297 215.435 296.856C215.291 296.712 215.219 296.536 215.219 296.328C215.219 296.12 215.291 295.944 215.435 295.8C215.579 295.656 215.755 295.584 215.963 295.584C216.163 295.584 216.331 295.656 216.467 295.8C216.611 295.944 216.683 296.12 216.683 296.328C216.683 296.536 216.611 296.712 216.467 296.856C216.331 297 216.163 297.072 215.963 297.072ZM224.555 297L223.463 295.896C223.055 296.32 222.619 296.636 222.155 296.844C221.691 297.044 221.167 297.144 220.583 297.144C220.007 297.144 219.495 297.04 219.047 296.832C218.607 296.624 218.263 296.328 218.015 295.944C217.775 295.56 217.655 295.112 217.655 294.6C217.655 294.016 217.819 293.504 218.147 293.064C218.483 292.616 218.975 292.264 219.623 292.008C219.367 291.704 219.183 291.424 219.071 291.168C218.959 290.912 218.903 290.632 218.903 290.328C218.903 289.976 218.991 289.66 219.167 289.38C219.351 289.092 219.611 288.868 219.947 288.708C220.283 288.548 220.671 288.468 221.111 288.468C221.543 288.468 221.919 288.552 222.239 288.72C222.559 288.888 222.799 289.124 222.959 289.428C223.119 289.724 223.191 290.056 223.175 290.424H222.083C222.091 290.096 221.999 289.84 221.807 289.656C221.615 289.464 221.367 289.368 221.063 289.368C220.743 289.368 220.483 289.46 220.283 289.644C220.091 289.82 219.995 290.048 219.995 290.328C219.995 290.568 220.059 290.8 220.187 291.024C220.323 291.248 220.547 291.524 220.859 291.852L223.355 294.36L223.571 294.024L224.387 292.656H225.563L224.579 294.36C224.443 294.6 224.283 294.852 224.099 295.116L225.983 297H224.555ZM220.583 296.208C221.015 296.208 221.403 296.124 221.747 295.956C222.099 295.788 222.431 295.528 222.743 295.176L220.283 292.704C219.259 293.096 218.747 293.716 218.747 294.564C218.747 295.036 218.915 295.428 219.251 295.74C219.595 296.052 220.039 296.208 220.583 296.208ZM238.113 290.304C238.625 290.304 239.081 290.412 239.481 290.628C239.881 290.836 240.197 291.152 240.429 291.576C240.661 292 240.777 292.516 240.777 293.124V297H239.697V293.28C239.697 292.624 239.533 292.124 239.205 291.78C238.885 291.428 238.449 291.252 237.897 291.252C237.329 291.252 236.877 291.436 236.541 291.804C236.205 292.164 236.037 292.688 236.037 293.376V297H234.957V293.28C234.957 292.624 234.793 292.124 234.465 291.78C234.145 291.428 233.709 291.252 233.157 291.252C232.589 291.252 232.137 291.436 231.801 291.804C231.465 292.164 231.297 292.688 231.297 293.376V297H230.205V290.424H231.297V291.372C231.513 291.028 231.801 290.764 232.161 290.58C232.529 290.396 232.933 290.304 233.373 290.304C233.925 290.304 234.413 290.428 234.837 290.676C235.261 290.924 235.577 291.288 235.785 291.768C235.969 291.304 236.273 290.944 236.697 290.688C237.121 290.432 237.593 290.304 238.113 290.304ZM242.161 293.688C242.161 293.016 242.297 292.428 242.569 291.924C242.841 291.412 243.213 291.016 243.685 290.736C244.165 290.456 244.697 290.316 245.281 290.316C245.857 290.316 246.357 290.44 246.781 290.688C247.205 290.936 247.521 291.248 247.729 291.624V290.424H248.833V297H247.729V295.776C247.513 296.16 247.189 296.48 246.757 296.736C246.333 296.984 245.837 297.108 245.269 297.108C244.685 297.108 244.157 296.964 243.685 296.676C243.213 296.388 242.841 295.984 242.569 295.464C242.297 294.944 242.161 294.352 242.161 293.688ZM247.729 293.7C247.729 293.204 247.629 292.772 247.429 292.404C247.229 292.036 246.957 291.756 246.613 291.564C246.277 291.364 245.905 291.264 245.497 291.264C245.089 291.264 244.717 291.36 244.381 291.552C244.045 291.744 243.777 292.024 243.577 292.392C243.377 292.76 243.277 293.192 243.277 293.688C243.277 294.192 243.377 294.632 243.577 295.008C243.777 295.376 244.045 295.66 244.381 295.86C244.717 296.052 245.089 296.148 245.497 296.148C245.905 296.148 246.277 296.052 246.613 295.86C246.957 295.66 247.229 295.376 247.429 295.008C247.629 294.632 247.729 294.196 247.729 293.7ZM253.882 290.304C254.682 290.304 255.33 290.548 255.826 291.036C256.322 291.516 256.57 292.212 256.57 293.124V297H255.49V293.28C255.49 292.624 255.326 292.124 254.998 291.78C254.67 291.428 254.222 291.252 253.654 291.252C253.078 291.252 252.618 291.432 252.274 291.792C251.938 292.152 251.77 292.676 251.77 293.364V297H250.678V290.424H251.77V291.36C251.986 291.024 252.278 290.764 252.646 290.58C253.022 290.396 253.434 290.304 253.882 290.304ZM264.018 290.424L260.058 300.096H258.93L260.226 296.928L257.574 290.424H258.786L260.85 295.752L262.89 290.424H264.018ZM276.223 290.304C276.735 290.304 277.191 290.412 277.591 290.628C277.991 290.836 278.307 291.152 278.539 291.576C278.771 292 278.887 292.516 278.887 293.124V297H277.807V293.28C277.807 292.624 277.643 292.124 277.315 291.78C276.995 291.428 276.559 291.252 276.007 291.252C275.439 291.252 274.987 291.436 274.651 291.804C274.315 292.164 274.147 292.688 274.147 293.376V297H273.067V293.28C273.067 292.624 272.903 292.124 272.575 291.78C272.255 291.428 271.819 291.252 271.267 291.252C270.699 291.252 270.247 291.436 269.911 291.804C269.575 292.164 269.407 292.688 269.407 293.376V297H268.315V290.424H269.407V291.372C269.623 291.028 269.911 290.764 270.271 290.58C270.639 290.396 271.043 290.304 271.483 290.304C272.035 290.304 272.523 290.428 272.947 290.676C273.371 290.924 273.687 291.288 273.895 291.768C274.079 291.304 274.383 290.944 274.807 290.688C275.231 290.432 275.703 290.304 276.223 290.304ZM283.546 297.108C282.93 297.108 282.37 296.968 281.866 296.688C281.37 296.408 280.978 296.012 280.69 295.5C280.41 294.98 280.27 294.38 280.27 293.7C280.27 293.028 280.414 292.436 280.702 291.924C280.998 291.404 281.398 291.008 281.902 290.736C282.406 290.456 282.97 290.316 283.594 290.316C284.218 290.316 284.782 290.456 285.286 290.736C285.79 291.008 286.186 291.4 286.474 291.912C286.77 292.424 286.918 293.02 286.918 293.7C286.918 294.38 286.766 294.98 286.462 295.5C286.166 296.012 285.762 296.408 285.25 296.688C284.738 296.968 284.17 297.108 283.546 297.108ZM283.546 296.148C283.938 296.148 284.306 296.056 284.65 295.872C284.994 295.688 285.27 295.412 285.478 295.044C285.694 294.676 285.802 294.228 285.802 293.7C285.802 293.172 285.698 292.724 285.49 292.356C285.282 291.988 285.01 291.716 284.674 291.54C284.338 291.356 283.974 291.264 283.582 291.264C283.182 291.264 282.814 291.356 282.478 291.54C282.15 291.716 281.886 291.988 281.686 292.356C281.486 292.724 281.386 293.172 281.386 293.7C281.386 294.236 281.482 294.688 281.674 295.056C281.874 295.424 282.138 295.7 282.466 295.884C282.794 296.06 283.154 296.148 283.546 296.148ZM289.446 291.492C289.638 291.116 289.91 290.824 290.262 290.616C290.622 290.408 291.058 290.304 291.57 290.304V291.432H291.282C290.058 291.432 289.446 292.096 289.446 293.424V297H288.354V290.424H289.446V291.492ZM298.83 293.46C298.83 293.668 298.818 293.888 298.794 294.12H293.538C293.578 294.768 293.798 295.276 294.198 295.644C294.606 296.004 295.098 296.184 295.674 296.184C296.146 296.184 296.538 296.076 296.85 295.86C297.17 295.636 297.394 295.34 297.522 294.972H298.698C298.522 295.604 298.17 296.12 297.642 296.52C297.114 296.912 296.458 297.108 295.674 297.108C295.05 297.108 294.49 296.968 293.994 296.688C293.506 296.408 293.122 296.012 292.842 295.5C292.562 294.98 292.422 294.38 292.422 293.7C292.422 293.02 292.558 292.424 292.83 291.912C293.102 291.4 293.482 291.008 293.97 290.736C294.466 290.456 295.034 290.316 295.674 290.316C296.298 290.316 296.85 290.452 297.33 290.724C297.81 290.996 298.178 291.372 298.434 291.852C298.698 292.324 298.83 292.86 298.83 293.46ZM297.702 293.232C297.702 292.816 297.61 292.46 297.426 292.164C297.242 291.86 296.99 291.632 296.67 291.48C296.358 291.32 296.01 291.24 295.626 291.24C295.074 291.24 294.602 291.416 294.21 291.768C293.826 292.12 293.606 292.608 293.55 293.232H297.702Z" fill="white"/>
</g>
<defs>
<clipPath id="clip0">
<rect width="300" height="300" fill="white"/>
</clipPath>
</defs>
</svg>
