<svg width="331" height="273" viewBox="0 0 331 273" fill="none" xmlns="http://www.w3.org/2000/svg">
<path d="M267.543 271.55C255.606 271.501 243.62 271.501 231.683 271.453C208.242 271.404 184.85 271.404 161.409 271.404C132.144 271.404 102.83 271.939 73.5172 271.404C54.0713 271.063 62.8797 258.507 61.8208 245.124C60.81 232.811 51.6647 224.197 48.0547 213.393C36.8877 180.008 64.1312 114.454 64.1312 114.454L58.0664 108.322C52.1941 102.385 47.092 95.7173 42.9044 88.5147C32.6039 70.8 12.6767 36.636 5.3604 24.7613C2.1836 19.6027 -0.367464 13.13 0.643336 6.90067C1.0284 4.61334 2.27987 2.37468 4.3496 1.35268C5.6492 0.720011 7.0932 0.671344 8.48907 0.622678C12.7248 0.525344 16.6236 0.914676 20.8593 1.69334C40.9309 5.44068 60.1843 13.568 76.8384 25.4427C94.2627 37.8527 111.35 50.4573 126.416 65.8847C143.359 61.8453 207.039 64.1327 207.039 64.1327C212.093 61.2613 217.243 58.682 222.442 56.1513C237.796 48.7053 253.488 41.9893 269.275 35.7113C283.667 29.9687 298.541 23.5933 313.799 20.9167C317.313 20.284 321.019 20.2353 324.244 21.6467C330.212 24.2747 330.357 31.5747 330.501 37.22C330.79 51.4793 328.335 60.872 319.912 72.2113C311.2 83.94 302.776 95.8633 293.198 106.862C291.946 108.322 275.581 125.501 274.089 123.068C283.379 138.349 286.459 157.086 290.502 174.265C294.786 192.613 298.685 211.057 301.236 229.745C302.584 239.819 306.675 253.738 305.039 263.812C304.413 267.608 301.717 269.701 298.107 270.771C288.914 273.691 277.073 271.55 267.543 271.55Z" fill="white"/>
<path d="M295.027 260.357H71.4475C73.3247 255.393 75.7795 243.859 75.6351 242.496C75.25 238.846 73.3247 235.488 71.4475 232.276C70.6292 230.913 69.9072 229.599 69.2815 228.334C67.5005 224.635 65.7677 220.791 64.1312 217.092C63.3611 215.389 62.5909 213.685 61.8208 211.982C46.7551 178.986 79.1007 112.361 79.4376 111.729L79.8708 110.853L79.1488 110.171C62.254 95.1333 47.0439 75.2773 31.3043 47.7806C27.5499 41.2107 23.8917 34.592 20.5224 28.1193C18.5008 24.226 16.768 20.5273 15.324 16.8773C15.2277 16.5853 14.8427 15.32 14.5057 14.1033C13.9281 12.0593 13.4949 10.5507 13.158 9.43132C83.5771 31.8667 121.217 77.5647 121.602 78.0513L122.132 78.684L122.95 78.4406C154.189 69.924 209.301 76.6886 209.831 76.7373L210.264 76.786L210.649 76.5913C250.552 54.2533 310.237 34.154 320.826 30.65C320.874 34.008 320.586 37.4147 320.297 40.724C320.201 41.9407 320.104 43.1087 320.008 44.3253C319.334 54.0587 313.077 62.8187 307.541 70.5567L306.723 71.7246C296.326 86.3733 285.737 98.1993 274.329 107.884C272.693 109.247 270.912 110.707 268.698 112.507C267.591 113.383 266.147 114.503 264.655 115.622C263.788 116.255 261.622 117.471 260.852 117.861L259.456 118.591L260.467 119.807C260.515 119.856 263.403 123.457 264.655 125.355C269.997 133.629 272.885 143.362 274.811 150.857C276.255 156.551 277.458 162.439 278.613 168.133C279.239 171.297 279.913 174.557 280.587 177.769C286.122 203.514 290.984 231.303 295.027 260.357Z" fill="#F8C02B"/>
<path d="M320.152 31.1853C320.201 34.5433 319.912 37.95 319.623 41.2593C319.527 42.476 319.43 43.644 319.334 44.8607C318.66 54.594 312.403 63.354 306.868 71.092L306.049 72.26C305.52 72.99 304.99 73.72 304.461 74.45C303.98 75.1313 303.498 75.8127 302.969 76.4453C309.948 60.6287 310.141 41.5027 310.237 33.6187C314.81 32.1587 318.323 31.818 320.152 31.1853ZM33.9035 17.8507C30.6304 16.488 27.3092 15.174 23.8436 13.86C23.6511 13.7627 23.4104 13.714 23.2179 13.6167C21.6295 13.0327 19.9929 12.4487 18.4045 11.9133C18.1639 11.816 17.8751 11.7187 17.6344 11.67C15.9497 11.086 14.2651 10.5507 12.5323 9.96667C12.8692 11.086 13.3024 12.5947 13.88 14.6387C14.2169 15.8553 14.5539 17.1207 14.6983 17.4127C16.1423 21.0627 17.8269 24.7127 19.8967 28.6547C23.266 35.1273 26.9241 41.746 30.6785 48.316C31.5931 49.8733 32.4595 51.4307 33.374 52.9393C34.2404 54.448 35.1549 55.908 36.0213 57.368C31.0636 39.0207 32.9408 23.496 33.9035 17.8507Z" fill="#7E2B19"/>
<path d="M130.94 139.517C130.94 147.061 126.127 153.144 120.158 153.144C114.238 153.144 109.377 147.012 109.377 139.517C109.377 132.023 114.19 125.891 120.158 125.891C126.127 125.891 130.94 132.023 130.94 139.517ZM219.457 125.891C213.537 125.891 208.676 132.023 208.676 139.517C208.676 147.012 213.489 153.144 219.457 153.144C225.378 153.144 230.239 147.012 230.239 139.517C230.239 132.023 225.426 125.891 219.457 125.891ZM161.794 159.86C157.077 159.86 154.044 161.515 154.044 162.683C154.044 163.851 157.077 165.505 161.794 165.505C166.511 165.505 169.543 163.851 169.543 162.683C169.543 161.515 166.511 159.86 161.794 159.86Z" fill="#7D2B18"/>
<path d="M122.036 134.845C122.036 137.425 119.966 139.517 117.415 139.517C114.864 139.517 112.794 137.425 112.794 134.845C112.794 132.266 114.864 130.173 117.415 130.173C119.966 130.173 122.036 132.266 122.036 134.845ZM216.714 130.173C214.163 130.173 212.093 132.266 212.093 134.845C212.093 137.425 214.163 139.517 216.714 139.517C219.265 139.517 221.335 137.425 221.335 134.845C221.335 132.266 219.265 130.173 216.714 130.173Z" fill="white"/>
<path d="M267.687 183.609C267.687 192.661 259.312 199.961 248.963 199.961C238.614 199.961 230.239 192.661 230.239 183.609C230.239 174.557 238.614 167.257 248.963 167.257C259.312 167.257 267.687 174.557 267.687 183.609ZM85.9356 167.257C76.3571 167.257 68.6076 174.022 68.6076 182.393C68.6076 190.763 76.3571 197.528 85.9356 197.528C95.5141 197.528 103.264 190.763 103.264 182.393C103.264 174.022 95.5141 167.257 85.9356 167.257Z" fill="#CE5828"/>
<path d="M187.353 201.178C187.353 206.045 186.245 209.597 183.887 211.982C181.047 214.853 176.426 216.167 168.821 216.167C157.751 216.167 150.29 207.067 150.29 198.599C150.29 190.423 157.365 185.361 168.821 185.361C179.651 185.361 187.256 186.481 187.353 201.178Z" fill="#EF805F"/>
<path d="M322.703 29.3847L322.655 27.6813L321.067 28.2167C320.393 28.4114 253.103 50.1654 209.157 74.6934C204.007 74.0607 152.889 68.3667 122.517 76.2994C122.084 76.3967 118.522 71.9194 118.137 71.4814C115.297 68.5127 112.313 65.6414 109.328 62.8674C99.798 54.1074 89.4975 46.126 78.7156 38.9234C63.8424 28.9954 47.9584 20.6247 31.4005 13.9573C28.0312 12.5947 24.6137 11.2807 21.1481 10.064C19.0303 9.33402 16.9605 8.40935 14.8427 7.67935C12.7729 6.99802 10.3663 5.97602 9.6924 9.09068C9.35546 10.5993 10.4625 12.108 10.8957 13.4707C14.8427 26.2214 21.9183 38.0474 28.5125 49.5327C39.6313 68.902 52.2423 87.7847 67.7893 103.845C70.4848 106.619 73.2765 109.344 76.1164 111.923C76.0201 112.118 75.972 112.264 75.972 112.313C75.972 112.361 75.9239 112.41 75.9239 112.507C71.1105 122.679 44.4447 181.809 58.9328 213.637C59.7029 215.34 60.4731 217.043 61.2432 218.747C62.9279 222.445 64.6607 226.29 66.4416 230.037C67.1155 231.4 67.9337 232.811 68.7039 234.174C70.4367 237.143 72.2176 240.257 72.5545 243.323C72.6027 244.881 69.5221 258.41 68.1744 260.941H72.6508C73.5653 260.941 74.6724 251.061 74.8168 249.796C75.4425 245.319 76.4533 241.62 75.0093 237.337C72.0732 228.723 65.142 220.353 61.8689 211.933C57.6332 201.032 57.5369 189.936 58.9809 178.499C60.5212 166.041 64.7088 153.777 68.752 141.902C71.64 133.337 85.358 102.044 87.6203 99.124C87.8609 98.7834 88.1497 98.3454 87.9572 97.956C87.6684 97.4207 86.8501 97.6154 86.3207 97.956C83.4808 99.7567 81.3629 102.433 79.2451 105.061C78.2343 106.327 77.2235 108.517 77.2235 108.517C77.2235 108.517 53.4456 80.9227 50.3169 76.494C47.3327 72.26 42.9044 67.9774 41.2197 63.0134C36.984 50.652 36.4545 38.7287 37.3691 25.9294C37.4172 25.394 39.15 20.722 39.0537 20.6247C94.1183 44.4227 120.784 78.1487 121.121 78.538L121.651 79.1707L122.469 79.8034C153.707 71.2867 209.638 78.8787 210.216 78.976C210.216 78.976 268.842 49.7274 299.118 38.4854C302.343 37.2687 303.883 37.0254 307.108 35.906C306.627 36.1007 305.616 51.7714 305.279 53.6207C304.124 60.0934 304.076 66.42 301.621 72.5034C298.974 78.976 295.508 84.8647 291.417 90.218C287.325 95.62 282.608 100.535 277.458 105.159C272.885 109.295 268.12 111.485 262.633 114.357C259.601 115.963 257.338 114.113 255.172 112.313C252.284 109.879 249.059 107.641 245.449 106.424C244.776 106.181 244.054 106.57 243.813 107.251C243.572 107.933 243.957 108.663 244.631 108.906C256.183 112.799 263.596 124.479 268.217 135.332C274.041 149.056 275.966 163.851 279.143 178.256C284.774 204.001 289.636 231.741 293.679 260.843H297.145C293.101 231.546 288.192 203.611 282.56 177.721C281.886 174.509 281.212 171.297 280.587 168.133C279.432 162.439 278.228 156.502 276.784 150.759C274.811 143.021 271.827 133.093 266.291 124.479C265.425 123.165 263.933 121.17 262.922 119.905C263.836 119.369 264.992 118.688 265.665 118.201C267.206 117.082 268.65 115.914 269.805 115.038C272.067 113.237 273.896 111.777 275.533 110.366C287.133 100.535 297.867 88.5634 308.36 73.7687L309.178 72.6007C314.906 64.5707 321.356 55.47 322.126 45.0067C322.222 43.8387 322.318 42.622 322.415 41.454C322.559 37.5607 322.896 33.4727 322.703 29.3847ZM30.6304 48.2674C26.876 41.6973 23.2179 35.0787 19.8485 28.606C17.8269 24.7127 16.0941 21.014 14.6501 17.364C14.5539 17.072 14.1688 15.8067 13.8319 14.59C13.2543 12.546 12.8211 11.0374 12.4841 9.91802C19.9929 12.3027 27.1167 14.9794 33.8553 17.802C32.8927 23.4474 31.0155 38.972 35.9251 57.3194C34.1923 54.3994 32.4113 51.382 30.6304 48.2674ZM319.623 41.2594C319.527 42.476 319.43 43.644 319.334 44.8607C318.66 54.594 312.403 63.354 306.868 71.092L306.049 72.26C305.038 73.72 304.028 75.0827 302.969 76.494C310.044 60.4827 310.285 41.8433 310.429 34.154C314.521 32.7427 318.42 31.7207 320.152 31.1367C320.2 34.592 319.912 37.9987 319.623 41.2594ZM119.34 123.263C112.457 123.263 106.874 131.049 106.874 139.517C106.874 147.985 113.323 154.896 120.207 154.896C130.026 154.896 132.144 147.985 132.673 139.517C133.395 128.227 126.223 123.263 119.34 123.263ZM109.425 139.517C109.425 131.974 114.238 125.891 120.207 125.891C126.127 125.891 130.988 132.023 130.988 139.517C130.988 147.012 126.175 153.144 120.207 153.144C114.238 153.193 109.425 147.061 109.425 139.517ZM219.457 123.263C212.574 123.263 206.991 131.049 206.991 139.517C206.991 147.985 212.574 155.772 219.457 155.772C229.325 155.772 232.79 147.985 232.79 139.517C232.79 131.049 226.341 123.263 219.457 123.263ZM208.724 139.517C208.724 131.974 213.537 125.891 219.506 125.891C225.426 125.891 230.287 132.023 230.287 139.517C230.287 147.012 225.474 153.144 219.506 153.144C213.537 153.193 208.724 147.061 208.724 139.517ZM163.527 157.232C158.136 157.232 151.734 160.152 152.311 162.683C153.226 166.527 156.403 167.257 161.794 167.257C167.185 167.257 171.276 165.311 171.276 162.683C171.276 160.055 168.917 157.232 163.527 157.232ZM161.794 165.505C157.077 165.505 154.044 163.851 154.044 162.683C154.044 161.515 157.077 159.86 161.794 159.86C166.511 159.86 169.543 161.515 169.543 162.683C169.543 163.851 166.511 165.505 161.794 165.505ZM168.821 183.609C156.355 184.388 147.739 189.352 147.739 198.55C147.739 207.894 156.74 218.747 168.821 218.747C174.26 218.747 180.999 217.335 185.09 213.199C187.786 210.473 189.085 206.531 189.037 201.178C188.989 184.923 182.78 182.733 168.821 183.609ZM150.338 198.55C150.338 190.374 157.414 185.313 168.869 185.313C179.651 185.313 187.304 186.432 187.401 201.129C187.401 205.996 186.294 209.549 183.935 211.933C181.095 214.805 176.474 216.119 168.869 216.119C157.751 216.119 150.338 207.067 150.338 198.55Z" fill="#5C120D"/>
</svg>
